<?xml version="1.0" encoding="utf-8"?>
<!-- Generator: Adobe Illustrator 27.5.0, SVG Export Plug-In . SVG Version: 6.00 Build 0)  -->
<svg version="1.1" xmlns="http://www.w3.org/2000/svg" xmlns:xlink="http://www.w3.org/1999/xlink" x="0px" y="0px"
	 viewBox="0 0 500 500" style="enable-background:new 0 0 500 500;" xml:space="preserve">
<g id="BACKGROUND">
	<rect style="fill:#FFFFFF;" width="500" height="500"/>
</g>
<g id="OBJECTS">
	<g>
		<defs>
			<polygon id="SVGID_1_" points="500,371.681 0,414.064 0,0 500,0 			"/>
		</defs>
		<clipPath id="SVGID_00000139978009844401020170000016943091770054437809_">
			<use xlink:href="#SVGID_1_"  style="overflow:visible;"/>
		</clipPath>
		<g style="clip-path:url(#SVGID_00000139978009844401020170000016943091770054437809_);">
			<path style="fill:#5F8FA0;" d="M-6.23,406.938c-3.184-65.106,7.458-129.96,0.35-194.792c-0.652-6.007-1.363-12.362,1.151-17.856
				c2.828-6.182,9.075-9.904,14.576-13.897c15.323-11.123,26.89-26.803,35.52-43.658s14.506-34.962,20.163-53.034
				c1.566-5.003,3.731-10.672,8.687-12.381c3.578-1.234,7.462,0.051,11.216,0.53c10.497,1.533,20.44-4.395,25.881-12.95
				c8.483-5.261,19.675,8.506,23.86,14.011c17.393,22.879,34.786,45.759,52.179,68.638c20.199,28.142,26.192-12.429,50.359,12.951
				c51.733,68.786,81.241-116.471,122.511-53.802c8.362,13.485,16.725,26.967,25.088,40.448
				c12.044,20.393,19.876,24.569,42.531,24.899c7.059,1.883,12.054,7.988,16.549,13.749c23.132,29.655,46.264,59.31,69.396,88.965
				v85.451"/>
			<path style="fill:#99BBC5;" d="M-60.927,394.591c-0.397-4.912-0.649-10.094,1.526-14.516c2.174-4.422,7.633-7.622,12.131-5.61
				c-2.897-12.666,5.079-26.878,17.398-31.001c0.817-0.273,1.692-0.535,2.263-1.18c0.496-0.56,0.682-1.321,0.861-2.047
				c2.101-8.499,5.551-16.663,10.182-24.092c3.749-6.015,8.479-11.718,14.852-14.818c6.373-3.1,14.662-3.043,19.994,1.627
				c9.87-9.665,27.292-8.965,37.69,0.129s13.745,24.699,9.973,37.989c3.421-6.894,13.805-8.112,19.903-3.417
				c6.098,4.694,8.037,13.378,6.485,20.917c5.848-4.645,15.138-2.144,19.878,3.628c4.74,5.772,5.861,13.699,5.791,21.168"/>
			<path style="fill:#99BBC5;" d="M235.297,360.931c-1.085-3.785-2.18-7.63-2.174-11.567c0.005-3.937,1.258-8.048,4.198-10.666
				c0.46-0.41,0.962-0.785,1.324-1.284c0.627-0.864,0.755-1.98,0.887-3.04c1.22-9.788,4.746-19.738,12.119-26.288
				c7.373-6.551,19.194-8.672,27.247-2.979c5.435-3.734,11.207-7.206,17.622-8.731c6.415-1.526,13.621-0.872,18.906,3.072
				c5.285,3.944,7.969,11.585,5.096,17.521c6.76-3.889,15.525-4.5,22.385-0.789c6.86,3.711,11.232,11.949,9.653,19.588
				c2.55-1.706,5.291-3.474,8.359-3.521c1.629-0.025,3.23,0.447,4.726,1.09c6.488,2.79,11.524,9.904,9.956,16.792"/>
			<path style="fill:#99BBC5;" d="M129.414,381.613c-7.751-1.827-14.694-7.194-17.99-14.444c-3.296-7.251-2.686-16.252,1.938-22.737
				c2.54-3.562,6.668-6.281,10.317-8.621c2.947-1.89,7.462-2.754,9.486,0.103c-0.453-7.222,5.841-13.803,12.989-14.919
				c7.149-1.116,14.489,2.465,19.19,7.965c4.701,5.501,7.063,12.664,8.138,19.82c5.297-6.481,11.397-13.373,19.673-14.626
				c8.06-1.221,16.609,4.128,19.038,11.91c0.996-5.979,3.498-11.797,7.68-16.183c4.183-4.385,10.13-7.218,16.187-7.039
				c5.022,0.148,9.78,2.281,14.089,4.865c2.809,1.684,5.543,3.622,7.505,6.245c1.962,2.623,3.074,6.038,2.331,9.229
				c4.973-0.824,9.892,2.5,12.503,6.812c2.611,4.312,3.406,9.447,4.148,14.434"/>
			<path style="fill:#99BBC5;" d="M430.1,339.013c-1.215-5.921,0.251-12.338,3.914-17.145c3.664-4.806,9.463-7.919,15.493-8.316
				c-1.436-5.7-2.684-11.527-2.443-17.4c0.241-5.873,2.113-11.866,6.195-16.095c4.082-4.229,10.604-6.327,16.098-4.242
				c-1.277-4.942-2.053-10.107-1.279-15.153c0.774-5.045,3.253-9.986,7.441-12.904c1.589-1.107,3.429-1.914,5.361-2.052
				c3.082-0.22,6.086,1.292,8.337,3.409c2.251,2.117,3.871,4.803,5.462,7.453c4.513-4.079,12.077-3.237,16.669,0.752
				c4.592,3.989,6.575,10.302,6.824,16.381c0.22,5.374-0.85,11.001-4.151,15.247c3.822-1.639,8.422-0.023,11.416,2.865
				s4.716,6.817,6.298,10.664c1.78,4.326,3.498,8.782,3.739,13.454c0.38,7.374-2.935,14.387-6.343,20.937
				c-0.576,1.108-1.201,2.261-2.245,2.945c-1.045,0.684-2.641,0.696-3.381-0.311"/>
			<path style="fill:#99BBC5;" d="M365.333,356.165c-3.008-1.122-4.768-4.328-5.378-7.48c-0.889-4.6-0.725-9.118,0.817-13.508
				c1.16-3.303,3.227-6.404,6.252-8.166c3.025-1.761,7.084-1.947,9.933,0.088c-2.045-7.536,1.333-15.447,5.387-22.12
				c2.858-4.703,6.669-9.555,12.101-10.435c3.541-0.574,7.113,0.684,10.377,2.172c2.758,1.257,5.476,2.725,7.627,4.861
				c4.607,4.576,5.901,12.153,3.075,18c7.309-3.532,16.547-2.895,23.108,1.884c6.562,4.779,10.013,13.597,8.116,21.49
				c-0.607,2.526-1.871,5.1-4.182,6.288"/>
			<path style="fill:#E4E4E4;" d="M217.923,88.495c0.305-2.609,1.838-5.048,4.056-6.453c2.218-1.406,5.078-1.75,7.566-0.912
				c0.332-7.356,6.742-13.941,14.085-14.469c7.343-0.528,14.63,5.072,16.01,12.305c1.859-2.833,5.52-4.357,8.839-3.678
				c3.319,0.679,6.089,3.517,6.686,6.853c2.578-1.932,6.269-2.247,9.138-0.781c2.868,1.467,4.774,4.644,4.718,7.866"/>
			<path style="fill:#E4E4E4;" d="M395.017,104.337c2.002-2.487,5.776-3.345,8.657-1.969c1.521-4.086,5.044-7.37,9.226-8.601
				c4.182-1.231,8.922-0.379,12.414,2.231c2.501-5.268,8.253-8.816,14.082-8.687c5.829,0.129,11.418,3.928,13.684,9.301
				c0.219,0.52,0.456,1.103,0.97,1.334c0.834,0.376,1.688-0.396,2.456-0.893c2.401-1.555,5.796-0.402,7.652,1.775
				c1.856,2.177,2.557,5.082,3.199,7.87"/>
			<path style="fill:#E4E4E4;" d="M409.344,39.935c-0.605-4.895-5.653-8.778-10.538-8.105c-2.378-5.865-6.549-11.712-12.737-13.033
				c-5.446-1.163-11.149,1.608-14.881,5.742c-3.732,4.134-5.842,9.452-7.687,14.707"/>
			<path style="fill:#E4E4E4;" d="M145.575,40.96c0.811-3.521,5.085-5.777,8.449-4.459c0.859-5.214,5.902-9.402,11.184-9.285
				c5.282,0.116,10.137,4.521,10.765,9.768c1.617-1.946,3.539-3.794,5.968-4.501c2.429-0.707,5.444,0.076,6.6,2.327
				c0.603,1.174,1.229,2.962,2.497,2.598c0.407-0.117,0.704-0.455,1.008-0.749c1.823-1.764,4.747-2.277,7.061-1.237
				c2.314,1.039,3.873,3.566,3.766,6.1"/>
			<path style="fill:#E4E4E4;" d="M58.897,53.016C58.385,47.482,52.24,41.5,46.97,45.463c0.869-15.675-23.404-13.344-19.583,1.87
				c-4.398-3.936-11.939-0.553-11.926,5.349"/>
		</g>
	</g>
	<g>
		<defs>
			<polygon id="SVGID_00000170983871449825532130000018307873797994481552_" points="500,345.285 0,391.133 0,242.702 500,189.392 
							"/>
		</defs>
		<clipPath id="SVGID_00000076602776333027694880000002853569429234633119_">
			<use xlink:href="#SVGID_00000170983871449825532130000018307873797994481552_"  style="overflow:visible;"/>
		</clipPath>
		<g style="clip-path:url(#SVGID_00000076602776333027694880000002853569429234633119_);">
			<path style="fill:#D9C341;" d="M-181.887,271.529c26.732,1.97,56.641,2.668,89.16,1.005
				c47.945-2.452,90.248-9.457,125.676-17.691c0.328,3.477,0.657,6.953,0.985,10.43c-35.858,7.079-77.043,12.9-122.743,15.393
				c-33.746,1.841-65.088,1.603-93.565,0.128C-182.212,277.706-182.049,274.618-181.887,271.529z"/>
			<path style="fill:#D9C341;" d="M-178.837,308.298c26.732,1.97,56.641,2.668,89.16,1.005
				c47.945-2.452,90.248-9.457,125.676-17.691c0.328,3.477,0.657,6.953,0.985,10.43c-35.858,7.079-77.043,12.9-122.743,15.393
				c-33.746,1.841-65.088,1.603-93.565,0.128C-179.162,314.475-178.999,311.386-178.837,308.298z"/>
			<path style="fill:#E7D45A;" d="M460.14,223.823c26.732,1.97,56.641,2.668,89.16,1.005c47.945-2.452,90.248-9.457,125.676-17.691
				c0.328,3.477,0.656,6.953,0.985,10.43c-35.858,7.079-77.044,12.9-122.743,15.393c-33.746,1.841-65.088,1.602-93.565,0.128
				C459.814,230,459.977,226.912,460.14,223.823z"/>
			<path style="fill:#E7D45A;" d="M463.189,260.592c26.732,1.97,56.641,2.668,89.16,1.005c47.945-2.452,90.248-9.457,125.676-17.691
				c0.328,3.477,0.656,6.953,0.985,10.43c-35.858,7.079-77.043,12.9-122.743,15.393c-33.746,1.841-65.088,1.602-93.565,0.128
				C462.864,266.769,463.027,263.68,463.189,260.592z"/>
			<g>
				<path style="fill:#D9C341;" d="M229.062,253.429l3.731-10.727c-31.833,6.618-68.477,11.993-109.212,14.076
					c-12.28,0.628-24.186,0.918-35.691,0.931l-2.954,8.491c13.709-0.084,27.908-0.491,42.562-1.29
					C164.448,262.894,198.444,258.702,229.062,253.429z"/>
				<path style="fill:#E7D45A;" d="M250.241,249.517c-0.328-3.477-0.656-6.953-0.985-10.43c-5.327,1.238-10.829,2.444-16.463,3.615
					l-3.731,10.727C236.312,252.18,243.376,250.872,250.241,249.517z"/>
				<path style="fill:#E7D45A;" d="M34.421,255.773c-0.162,3.089-0.325,6.177-0.488,9.265c16.112,0.834,33.141,1.272,51.003,1.162
					l2.954-8.491C68.928,257.731,51.059,256.999,34.421,255.773z"/>
				<path style="fill:#E7D45A;" d="M37.471,292.541c-0.163,3.089-0.325,6.177-0.488,9.265c11.284,0.584,23.024,0.97,35.179,1.114
					l2.992-8.6C61.994,294.045,49.414,293.421,37.471,292.541z"/>
				<path style="fill:#E7D45A;" d="M252.306,275.855c-10.55,2.452-21.723,4.79-33.459,6.936l-3.522,10.124
					c13.232-2.017,25.907-4.25,37.966-6.631C252.963,282.809,252.635,279.332,252.306,275.855z"/>
				<path style="fill:#D9C341;" d="M126.631,293.546c-17.991,0.92-35.179,1.115-51.476,0.774l-2.992,8.6
					c18.52,0.219,38.011-0.13,58.386-1.242c30.331-1.655,58.661-4.781,84.777-8.762l3.522-10.124
					C191.171,287.853,160.299,291.825,126.631,293.546z"/>
			</g>
			<g>
				<path style="fill:#E7D45A;" d="M425.896,239.948l3.523-10.126c-27.688,5.065-58.574,9.04-92.26,10.762
					c-13.419,0.686-26.385,0.965-38.876,0.923l-2.96,8.509c14.695-0.037,29.957-0.438,45.753-1.3
					C371.424,247.061,399.767,243.933,425.896,239.948z"/>
				<path style="fill:#D9C341;" d="M247.999,239.58c-0.163,3.088-0.325,6.177-0.488,9.265c15.148,0.784,31.113,1.214,47.812,1.172
					l2.96-8.509C280.505,241.449,263.7,240.736,247.999,239.58z"/>
				<path style="fill:#D9C341;" d="M463.819,233.324c-0.328-3.477-0.656-6.953-0.985-10.43c-10.537,2.449-21.695,4.784-33.416,6.929
					l-3.523,10.126C439.113,237.932,451.773,235.702,463.819,233.324z"/>
				<path style="fill:#D9C341;" d="M251.048,276.348c-0.163,3.088-0.325,6.177-0.488,9.265c10.3,0.533,20.979,0.902,32.006,1.072
					l3.004-8.634C273.556,277.747,262.03,277.157,251.048,276.348z"/>
				<path style="fill:#E7D45A;" d="M340.208,277.353c-19.16,0.98-37.406,1.135-54.638,0.698l-3.004,8.634
					c19.462,0.3,40.018-0.025,61.559-1.2c24.007-1.31,46.754-3.544,68.152-6.39l3.348-9.623
					C392.422,273.147,367.21,275.972,340.208,277.353z"/>
				<path style="fill:#D9C341;" d="M465.884,259.662c-15.475,3.597-32.263,6.959-50.259,9.809l-3.348,9.623
					c19.335-2.572,37.57-5.642,54.591-9.003C466.54,266.615,466.212,263.139,465.884,259.662z"/>
			</g>
			<polyline style="fill:#363F56;" points="253.341,379.18 242.438,228.429 250.457,226.792 260.569,378.409 			"/>
			<polyline style="fill:#363F56;" points="42.487,396.542 31.584,245.791 39.604,244.154 49.716,395.77 			"/>
			<polyline style="fill:#363F56;" points="466.686,359.241 455.783,208.49 463.803,206.853 473.914,358.469 			"/>
		</g>
	</g>
	<g>
		<defs>
			<polygon id="SVGID_00000097468693123186238640000011227681122031616897_" points="0,350.988 500,330.052 500,500 0,500 			"/>
		</defs>
		<clipPath id="SVGID_00000031176755278400054800000013742530205942997640_">
			<use xlink:href="#SVGID_00000097468693123186238640000011227681122031616897_"  style="overflow:visible;"/>
		</clipPath>
		<g style="clip-path:url(#SVGID_00000031176755278400054800000013742530205942997640_);">
			<polygon style="fill:#5F8FA0;" points="0,383.414 500,330.052 500,500 0,500 			"/>
			<g>
				<path style="fill:#99BBC5;" d="M65.022,512.617c18.983-13.831,102.432-36.856,125.897-37.868
					c23.465-1.012,47.217,0.483,70.24-4.162c25.238-5.092,48.909-17.445,74.568-19.567c26.575-2.199,53.999,6.718,79.628-0.648
					c26.477-7.61,47.641-31.802,75.183-32.446c5.675-0.133,11.389,0.778,17.009-0.022c5.62-0.801,11.438-3.844,13.319-9.2
					l-11.163-65.677c-24.964,5.393-50.024,10.328-75.083,15.264c-29.576,5.825-59.271,11.666-89.373,13.282
					c-33.459,1.796-67.005-1.651-100.494-0.56c-36.455,1.188-72.497,7.738-108.381,14.27c-24.815,4.517-49.63,9.035-74.445,13.552
					c-22.829,4.156-45.868,8.328-69.059,7.56v110.819L65.022,512.617z"/>
				<path style="fill:#5F8FA0;" d="M118.662,398.996c2.696,2.192,6.548,2.294,9.954,1.61c3.407-0.685,6.674-2.043,10.127-2.426
					c0.873-0.097,1.804-0.119,2.577,0.298c0.768,0.414,1.265,1.199,1.981,1.698c1.395,0.972,3.36,0.657,4.819-0.216
					s2.572-2.208,3.813-3.371c2.956-2.769,6.764-4.615,10.769-5.219c1.33-0.201,2.726-0.283,3.894-0.948
					c1.168-0.666,2.009-2.165,1.42-3.374c-0.379-0.779-1.249-1.223-2.109-1.324c-0.86-0.1-1.725,0.088-2.571,0.276
					c-5.658,1.254-11.442,2.098-16.919,3.886c-5.987,1.955-11.971,3.916-17.954,5.883c-1.659,0.546-3.318,1.091-4.977,1.638
					C122.814,397.627,119.148,399.32,118.662,398.996z"/>
				<path style="fill:#5F8FA0;" d="M217.787,431.225c-1.862,0.709-3.592,1.74-5.469,2.407c-3.697,1.313-7.727,1.142-11.634,1.502
					c-4.855,0.446-9.631,1.742-14.046,3.809c-0.747,0.35-1.501,0.734-2.062,1.338c-0.561,0.604-0.901,1.477-0.668,2.268
					c0.364,1.234,1.845,1.711,3.123,1.862c5.727,0.673,11.638-1.366,17.232,0.034c3.151,0.788,6.148,2.653,9.381,2.343
					c3.379-0.324,6.015-2.912,8.724-4.958c3.195-2.414,6.924-4.245,10.904-4.689c1.133-0.126,2.302-0.145,3.358-0.576
					c1.055-0.431,1.994-1.412,1.944-2.551c-0.074-1.696-2.053-2.531-3.693-2.968C229.485,429.608,223.143,429.187,217.787,431.225z"
					/>
				<path style="fill:#5F8FA0;" d="M451.994,374.067c-4.279,1.096-8.694,1.559-13.019,2.46c-2.699,0.563-5.784,1.687-6.545,4.337
					c0.807-0.23,1.664-0.461,2.472-0.234c0.808,0.227,1.495,1.101,1.202,1.888c-0.248,0.667-1.022,0.944-1.705,1.141
					c-3.434,0.99-6.867,1.98-10.301,2.97c-1.04,0.3-2.126,0.626-2.896,1.386c-0.77,0.76-1.085,2.1-0.386,2.926
					c0.624,0.737,1.729,0.776,2.693,0.724c8.767-0.478,17.461-3.688,26.137-2.34c2.577,0.401,5.178,1.202,7.744,0.738
					c4.083-0.738,6.87-4.379,10.073-7.016c3.966-3.266,9.034-5.169,14.169-5.322c1.562-0.046,3.162,0.059,4.654-0.406
					c1.492-0.466,2.89-1.69,2.966-3.251c0.103-2.099-2.092-3.558-4.118-4.116c-2.026-0.558-4.306-0.751-5.819-2.209
					c-1.438-1.385-1.843-3.627-3.378-4.903c-1.962-1.63-4.979-1.024-7.151,0.313c-2.817,1.734-4.436,4.147-6.782,6.275
					C459.318,371.863,455.442,373.184,451.994,374.067z"/>
				<path style="fill:#5F8FA0;" d="M-1.989,446.901c3.09-1.505,6.762-0.983,10.093-0.133c3.331,0.85,6.696,2.005,10.116,1.66
					c5.851-0.59,11.238-5.495,16.917-3.971c1.413,0.379,2.812,1.278,3.236,2.678c0.536,1.772-0.676,3.627-2.147,4.75
					c-4.548,3.473-11.592,2.75-15.496,6.933c-2.281,2.445-2.913,6.025-4.927,8.694c-2.084,2.761-5.486,4.284-8.905,4.811
					c-3.419,0.528-6.905,0.17-10.346-0.189c0.213-0.276,0.426-0.551,0.639-0.827"/>
			</g>
			<g>
				<g>
					<path style="fill:#363F56;" d="M459.13,461.661c-1.848-6.084-5.406-16.641-12.632-17.055c-3.185,3.01-4.695,5.589-8.536,0.977
						c-29.205-28.698-29.854-42.387-56.337-1.595c-9.869-12.164-30.86,31.801-34.125,39.129c0.082-0.184,7.134,2.037,7.637,2.177
						c3.088,0.862,6.283,1.298,9.483,1.436c6.395,0.276,12.788-0.622,19.054-1.819c10.969-2.096,22.036-5.04,33.139-3.837
						c3.488,0.378,6.974,1.165,10.469,0.853c6.545-0.586,11.918-4.803,17.358-8.071c2.442-1.467,5.416-2.382,7.414-4.381
						C454.529,466.995,456.926,464.392,459.13,461.661z"/>
					<path style="fill:#2B344B;" d="M409.459,423.977c4.171,7.732,8.395,16.215,8.315,25.091c0.053,3.401-0.087,7.126,2.013,9.802
						c9.901,10.883,26.292-2.344,26.601-14.208c-7.795,8.1-9.851-3.769-14.921-8.134
						C428.981,433.448,401.887,407.925,409.459,423.977z"/>
					<path style="fill:#2B344B;" d="M381.635,444.113c3.901,4.162,5.036,10.007,6.005,15.448c0.34-6.856-0.034-14.886-2.141-21.419"
						/>
				</g>
				<g>
					<path style="fill:#2B344B;" d="M57.747,393.839c6.882-5.162,2.539-14.803,2.651-23.056c-2.327,6.457-3.709,13.912-7.72,17.52
						C54.982,389.526,56.285,391.858,57.747,393.839z"/>
					<path style="fill:#2B344B;" d="M79.198,382.404c2.519,3.814,8.259,5.061,12.611,4.038c4.509-1.708,6.114-7.072,9.957-9.731
						c0.681-1.308,1.151-2.843,1.88-4.16c-4.528,3.242-9.882,7.149-28.142-10.046c-1.902-1.228-4.209-2.19-6.401-2.08
						C75.243,365.796,75.98,375.293,79.198,382.404z"/>
					<path style="fill:#363F56;" d="M103.645,372.55c-0.729,1.318-1.199,2.852-1.88,4.16c-3.842,2.659-5.448,8.023-9.957,9.731
						c-4.352,1.023-10.092-0.224-12.611-4.038c-3.217-7.111-3.954-16.608-10.095-21.979c-0.772,0.039-1.53,0.208-2.25,0.549
						c-3.135,2.05-4.984,5.73-6.455,9.81c-0.112,8.253,4.23,17.894-2.651,23.056c-1.462-1.981-2.765-4.313-5.068-5.536
						c-0.054,0.049-0.105,0.103-0.16,0.151c-9.36-0.904-15.147,6.669-17.545,15c14.725,6.803,29.342-1.459,43.799-3.693
						c22.311,4.04,29.093-8.791,48.112-13.099C111.884,366.727,108.178,369.305,103.645,372.55z"/>
				</g>
				<g>
					<path style="fill:#2B344B;" d="M115.335,458.252c0.099,0.386,0.222,0.822,0.578,1.001c0.372,0.187,0.839-0.012,1.11-0.328
						c0.271-0.316,0.402-0.723,0.573-1.103c0.17-0.379,0.41-0.762,0.794-0.923c0.414-0.174,0.905-0.051,1.321-0.217
						c0.632-0.252,0.836-1.032,0.931-1.706c0.244-1.733,0.322-3.493,0.712-5.199c0.325-1.423,0.92-2.816,1.872-3.904
						c-0.207,0.002-0.414,0.016-0.619,0.059c-1.993,0.42-3.192,2.717-5.197,3.075c-1.199,0.214-2.392-0.327-3.484-0.866
						c-1.707-0.841-3.632-1.735-5.438-1.138c-0.118,0.039-0.228,0.093-0.34,0.143c0.625,0.491,1.225,1.015,1.785,1.579
						C112.535,451.347,114.421,454.673,115.335,458.252z"/>
					<path style="fill:#363F56;" d="M128.213,449.077c-0.765-0.824-1.505-1.69-2.428-2.332c-0.751-0.523-1.655-0.88-2.559-0.873
						c-0.953,1.089-1.547,2.481-1.872,3.904c-0.39,1.706-0.468,3.466-0.712,5.199c-0.095,0.674-0.299,1.453-0.931,1.706
						c-0.417,0.167-0.908,0.044-1.321,0.217c-0.383,0.161-0.624,0.544-0.794,0.923c-0.17,0.38-0.302,0.787-0.573,1.103
						c-0.271,0.316-0.738,0.515-1.11,0.328c-0.356-0.179-0.479-0.615-0.578-1.001c-0.914-3.579-2.799-6.905-5.401-9.527
						c-0.56-0.564-1.16-1.088-1.785-1.579c-1.314,0.584-2.221,1.862-3.009,3.091c-2.303,2.303-3.904,6.442-5.405,9.313
						c-0.673,1.288-1.173,2.771-1.934,3.998c-0.774,1.249-2.155,2.102-3.276,3.022c3.379,2.378,7.899,2.407,11.944,1.568
						c4.046-0.84,7.918-2.445,12.006-3.05c2.888-0.428,5.856-0.352,8.68-1.094c4.339-1.141,7.936-4.094,11.382-6.967
						C134.686,454.973,131.182,452.274,128.213,449.077z"/>
				</g>
			</g>
		</g>
	</g>
	<g>
		<g>
			<g>
				<path style="fill:#E4BB9B;" d="M318.098,270.423c9.664,23.744,28.97,40.968,48.298,56.651
					c33.68,30.237,58.58-27.077,76.617-48.792c-3.177-2.314-6.257-4.305-8.719-7.46c-15.403,8.671-38.056,17.933-46.055,34.231
					c-9.626-9.689-18.43-22.469-28.156-32.579L318.098,270.423z"/>
				<path style="fill:#CC9C77;" d="M389.001,311.732c0.026,0.285,0.047,0.586-0.079,0.842c-0.126,0.256-0.458,0.434-0.707,0.294
					c-0.161-0.091-0.237-0.278-0.297-0.453c-0.851-2.467-0.727-5.134,0.203-7.556c0.174,0.384,0.158,0.981,0.222,1.404
					c0.092,0.61,0.178,1.22,0.258,1.832C388.758,309.306,388.858,310.521,389.001,311.732z"/>
				<path style="fill:#CC9C77;" d="M391.909,327.468c1.427-0.017,2.905,0.163,4.13,0.894c-4.427-3.31-11.555-2.179-14.469,2.605
					C384.627,329.207,388.141,327.305,391.909,327.468z"/>
			</g>
			<g>
				<path style="fill:#FFFFFF;" d="M476.703,273.297c-0.377,0.929-0.755,1.862-1.251,2.733c-2.283,4.007-7.031,6.311-11.64,6.144
					c-2.331-0.084-4.601-0.728-6.909-1.064c-2.308-0.336-4.78-0.334-6.83,0.777c-1.494,0.81-2.632,2.116-4.062,3.019
					c-1.237,0.781-3.27,1.571-4.703,0.963c-1.184-0.502-1.829-1.864-1.823-3.15c0.006-1.286,0.545-2.509,1.161-3.638
					c-2.533-2.471-5.898-4.073-9.414-4.48c-1.333-0.154-4.387-0.404-3.972-2.431c0.118-0.574,0.45-1.079,0.653-1.628
					c0.28-0.758,0.309-1.581,0.381-2.386c0.283-3.185,1.294-6.303,2.934-9.048L476.703,273.297z"/>
				<path style="fill:#363F56;" d="M445.039,265.104c-1.011-0.25-2.032-0.502-3.073-0.521c-1.041-0.018-2.119,0.217-2.943,0.854
					c-0.824,0.637-1.341,1.724-1.12,2.742c0.228,1.052,1.197,1.835,2.245,2.077c1.049,0.242,2.155,0.019,3.158-0.371
					c1.003-0.39,1.933-0.944,2.908-1.399c0.975-0.455,2.025-0.816,3.101-0.784c0.213,0.007,0.43,0.028,0.637-0.02
					s0.411-0.184,0.47-0.388c0.101-0.352-0.26-0.671-0.609-0.78c-0.736-0.229-1.338-0.559-2.093-0.746
					C446.826,265.547,445.932,265.326,445.039,265.104z"/>
				<path style="fill:#363F56;" d="M430.481,259.109l1.304-3.72c0,0,47.061,16.607,46.91,16.506c-0.15-0.1-1.706,2.659-1.706,2.659
					L430.481,259.109z"/>
			</g>
			<g>
				<path style="fill:#363F56;" d="M314.639,253.692c3.141,30.059,21.203,58.191,47.227,73.559
					c8.682-9.775,17.363-19.55,26.045-29.325c-5.464-6.105-12.028-11.074-17.614-17.138c-5.781-6.276-10.95-13.115-15.401-20.395
					c0.051,0.641,0.102,1.282,0.153,1.923"/>
				<path style="fill:#2B344B;" d="M333.023,267.239c-3.509-0.523-7.113,0.025-10.481-1.158c1.566,2.257,3.147,4.213,5.612,5.559
					c-2.199,4.011-4.042,8.218-5.498,12.555c2.564-0.612,4.986-1.815,7.023-3.489"/>
				<path style="fill:#2B344B;" d="M369.433,279.84c-1.972,8.411-5.023,18.142-9.836,28.494c-2.176,4.68-4.465,8.958-6.761,12.838
					c-0.921-0.581-1.925-1.284-2.964-2.129c-1.059-0.861-1.966-1.717-2.732-2.513C354.571,304.3,362.002,292.07,369.433,279.84z"/>
			</g>
		</g>
		<g>
			<g>
				<path style="fill:#E4BB9B;" d="M337.484,270.933c-33.094,42.077-58.181,90.429-73.526,141.715
					c0.04-0.132,12.396,2.767,13.417,2.921c0.871,0.131,1.79,0.238,2.607-0.09c1.021-0.41,1.663-1.405,2.245-2.338
					c6.749-10.816,14.389-21.076,22.816-30.643c3.676-4.172,7.511-8.226,10.739-12.754c6.411-8.99,9.837-20.767,8.85-31.799
					c24.521-20.377,40.073-50.465,47.607-81.24L337.484,270.933z"/>
				<path style="fill:#CC9C77;" d="M308.034,331.308c-1.059,1.771-2.69,3.227-4.634,3.918c2.507-0.131,4.903-1.614,6.138-3.801
					c1.269-2.062,1.286-5.095,0.096-7.189C309.973,326.56,309.234,329.3,308.034,331.308z"/>
			</g>
			<g>
				<path style="fill:#FFFFFF;" d="M235.676,433.927c-0.094-1.15-0.187-2.304-0.127-3.456c0.275-5.299,3.963-10.121,8.786-12.333
					c2.439-1.118,5.105-1.631,7.65-2.479c2.546-0.848,5.086-2.128,6.618-4.331c1.117-1.605,1.611-3.536,2.614-5.203
					c0.868-1.442,2.548-3.305,4.335-3.422c1.477-0.096,2.843,0.97,3.502,2.295c0.659,1.325,0.737,2.86,0.688,4.339
					c3.881,1.231,8.168,1.137,11.992-0.263c1.45-0.531,4.718-1.854,5.339,0.445c0.176,0.651,0.095,1.341,0.171,2.011
					c0.104,0.924,0.5,1.784,0.842,2.649c1.355,3.42,1.928,7.147,1.663,10.816L235.676,433.927z"/>
				<path style="fill:#363F56;" d="M267.595,426.434c-1.28-4.526,6.934-12.617,11.487-10.853
					C283.496,419.805,271.286,427.915,267.595,426.434z"/>
				<polygon style="fill:#363F56;" points="234.712,433.163 290.368,424.466 290.368,427.61 234.712,435.437 				"/>
			</g>
			<g>
				<path style="fill:#363F56;" d="M314.639,253.692l18.241,13.774c-4.59,7.103-21.264,31.077-29.48,49.631
					c6.791,2.564,12.517,4.759,18.357,6.629c17.228-21.738,32.79-47.295,35.684-75.28
					C342.945,250.225,327.332,252.155,314.639,253.692z"/>
				<path style="fill:#363F56;" d="M375.821,246.201c-4.559,0.552-9.495,1.155-14.62,1.783
					c-5.087,28.016-17.034,54.763-34.545,77.218c4.054,1.146,8.305,2.151,13.128,3.022
					C359.1,308.829,376.06,274.156,375.821,246.201z"/>
				<path style="fill:#FFFFFF;" d="M357.441,248.445c-2.894,27.986-18.456,53.542-35.684,75.28c1.615,0.517,3.242,1.008,4.899,1.477
					c17.511-22.455,29.457-49.202,34.545-77.218C359.958,248.136,358.703,248.29,357.441,248.445z"/>
			</g>
		</g>
		<g>
			<g>
				<path style="fill:#E4BB9B;" d="M260.125,199.776c-1.278,1.153-2.519,2.347-3.72,3.581c-5.145-11.592-13.557-21.374-21.849-30.97
					c-2.966,1.53-6.343,2.838-9.088,4.715c1.838,14.099,17.279,61.381,37.266,48.164c11.696-6.504,24.767-12.265,33.828-22.31
					c3.934-5.825,5.375-17.434-2.786-20.209C281.209,183.275,269.605,192.015,260.125,199.776z"/>
				<polygon style="fill:#D88D7E;" points="224.843,179.275 237.609,174.286 243.481,181.825 227.151,188.658 				"/>
				<g>
					<path style="fill:#CC9C77;" d="M256.575,212.081c0.087,0.488,0.093,1.148-0.379,1.301c-0.446,0.145-0.834-0.34-1.017-0.773
						c-0.742-1.75-0.732-3.747-0.324-5.604c0.375-1.704,0.852-2.057,1.549-3.648c-0.635,1.279-0.274,2.053-0.282,3.451
						C256.114,208.575,256.264,210.342,256.575,212.081z"/>
					<path style="fill:#CC9C77;" d="M258.916,222.971c-0.377-1.603-1.751-2.925-3.367-3.241c-1.184-0.231-2.871,0.08-3.682,1.048
						c0.27,0.355,1.182,0.061,1.581,0.052c0.67-0.015,1.342,0.059,1.993,0.219C256.742,221.366,257.966,222.022,258.916,222.971z"/>
				</g>
			</g>
			<g>
				<path style="fill:#E4BB9B;" d="M235.997,174.256c0.392-1.156,0.784-2.311,1.176-3.467c0.388-1.145,0.781-2.314,0.796-3.523
					c0.041-3.18-2.4-5.848-4.036-8.353c-0.165-0.253-0.336-0.512-0.582-0.687c-0.394-0.28-0.927-0.301-1.392-0.169
					c-0.46,0.13-0.878,0.389-1.27,0.654c-0.535-0.989-1.688-1.956-2.871-1.924c-1.091,0.029-2.136,1.031-1.99,2.112
					c-0.391-0.522-1.152-0.685-1.767-0.469s-1.08,0.757-1.318,1.364c-0.238,0.607-0.273,1.276-0.224,1.927
					c-0.225-0.588-0.943-0.899-1.557-0.759c-0.614,0.14-1.098,0.657-1.31,1.25c-0.212,0.593-0.18,1.25-0.032,1.862
					c-0.538-0.659-1.732-0.579-2.179,0.145c-0.471,0.764-0.084,1.75,0.329,2.546c2.06,3.982,4.641,7.683,7.544,11.099
					c0.457,0.537,0.974,1.1,1.667,1.234c0.862,0.168,1.685-0.374,2.396-0.889L235.997,174.256z"/>
				<path style="fill:#CC9C77;" d="M230.414,158.684c-1.842,1.187-3.575,2.545-5.169,4.049c-0.213,0.201-0.43,0.414-0.538,0.687
					c-0.227,0.577,0.129,1.26,0.663,1.575c0.534,0.316,1.19,0.339,1.808,0.282c1.684-0.157,3.275-0.846,4.747-1.68
					c-1.668,2.264-2.028,5.426-0.912,8.008c-0.125-0.29-1.598-0.198-1.859-0.174c-0.653,0.06-1.274,0.249-1.862,0.535
					c-1.222,0.595-2.229,1.199-3.659,1.007c-1.162-0.156-2.254-0.78-2.979-1.702c0.551,0.204,1.185,0.173,1.714-0.084
					c0.529-0.257,0.945-0.736,1.126-1.295c0.609,0.395,1.445,0.407,2.065,0.029c0.62-0.378,0.993-1.127,0.92-1.849
					c0.641,0.212,1.38,0.108,1.937-0.275c0.557-0.382,0.92-1.034,0.952-1.708c0.008-0.158-0.028-0.353-0.178-0.403
					c-0.119-0.04-0.242,0.037-0.348,0.105c-1.088,0.695-2.569,0.718-3.679,0.057c-0.626-0.373-1.158-1.02-1.132-1.748
					c0.027-0.746,0.609-1.341,1.178-1.824c1.683-1.43,3.583-2.577,5.474-3.718"/>
				<path style="fill:#CC9C77;" d="M227.007,161.064c1.123-0.601-0.599-1.497-1.131-2.121
					C226.285,159.609,226.541,160.411,227.007,161.064z"/>
				<path style="fill:#CC9C77;" d="M223.608,169.973c-1.385-2.012-2.34-4.477-4.175-6.109
					C220.557,166.049,222.004,168.102,223.608,169.973z"/>
				<path style="fill:#CC9C77;" d="M224.352,165.611c0.7,0.88,1.555,1.633,2.213,2.545c-1.008-2.374-2.632-4.515-4.096-6.614
					C222.734,163.008,223.427,164.434,224.352,165.611z"/>
			</g>
		</g>
		<g>
			<g>
				<path style="fill:#FFFFFF;" d="M351.025,174.204c-9.403-8.674-61.545,1.648-66.617,12.212
					c-3.025,15.844,5.885,28.448,14.798,41.505c23.575-2.83,46.736-9.078,68.534-18.489
					C363.535,197.01,358.212,185.046,351.025,174.204z"/>
				<path style="fill:#D88D7E;" d="M367.74,209.432c-21.799,9.412-44.959,15.66-68.534,18.489
					c6.98,10.225,13.962,20.729,15.217,33.286c19.429,4.525,51.042-1.271,64.472-7.903
					C375.954,238.724,372.594,223.771,367.74,209.432z"/>
			</g>
			<g>
				<path style="fill:#E4E4E4;" d="M339.38,198.412c8.352,10.327,12.482,24.861,16.059,37.536c-3.87,2.95-11.06,7.61-21.197,9.775
					c-7.495,1.601-13.909,1.265-18.201,0.687c-4.921-12.134-10.671-24.259-17.457-35.437
					C312.129,206.935,326.261,203.672,339.38,198.412z"/>
				<path style="fill:#363F56;" d="M327.069,229.247c-0.701-3.978-2.481-7.626-5.005-10.759c-1.681-2.087-4.43-4.387-7.355-3.549
					c-1.897,0.544-3.236,2.343-3.725,4.188c-0.506,1.911-0.253,3.946,0.238,5.862c0.681,2.656,1.807,5.178,3.03,7.632
					c0.843,1.691,1.76,3.391,3.132,4.691c1.372,1.301,3.288,2.159,5.15,1.833c1.991-0.349,3.577-2.011,4.271-3.91
					C327.498,233.337,327.42,231.238,327.069,229.247z M323.03,231.237c-0.357,0.978-1.174,1.835-2.2,2.014
					c-0.959,0.168-1.947-0.274-2.653-0.945c-0.707-0.67-1.179-1.545-1.613-2.417c-0.63-1.264-1.21-2.564-1.561-3.932
					c-0.253-0.987-0.383-2.035-0.123-3.02c0.251-0.951,0.941-1.877,1.919-2.158c1.507-0.432,2.923,0.753,3.79,1.828
					c1.3,1.614,2.217,3.494,2.579,5.543C323.347,229.178,323.388,230.259,323.03,231.237z"/>
				<path style="fill:#363F56;" d="M325.412,218.47c1.185-2.492,2.371-4.984,3.556-7.475c1.261-0.134,2.49-0.557,3.568-1.225
					c3.108,6.46,6.07,12.994,9.1,19.49c1.41-0.567,2.821-1.135,4.231-1.702c0.405,1.233,1.439,2.426,1.7,3.641
					c-4.019,2.368-8.917,3.74-13.418,5.163c-0.177-1.014-0.61-1.981-1.249-2.788c1.423-0.63,2.846-1.26,4.269-1.89
					c-2.706-4.799-5.096-9.775-7.151-14.886"/>
			</g>
		</g>
		<g>
			<path style="fill:#E4BB9B;" d="M319.019,173.886c0.162,0.17-8.414,11.022-14.848,11.92c-0.998-6.263-3.754-12.237-7.87-17.062
				C313.875,145.96,306.22,158.792,319.019,173.886z"/>
			<path style="fill:#CC9C77;" d="M296.518,168.787c2.146,2.717,3.963,5.693,5.4,8.843c2.423-2.499,4.114-5.646,5.202-8.953
				c1.088-3.307,1.594-6.78,1.857-10.251L296.518,168.787z"/>
		</g>
		<g>
			<path style="fill:#E4BB9B;" d="M306.337,127.366c-11.062-2.369-21.743,6.638-22.868,17.654c-0.035,1.171-0.184,2.505-0.373,3.93
				c-2.515,3.045-7.982,9.279-0.977,7.759c-0.506,6.259,0.284,12.167,7.071,13.265C312.142,175.285,329.106,137.64,306.337,127.366z
				"/>
			<path style="fill:#364056;" d="M305.223,152.039c-7.271-1.842-2.181-10.535,1.739-13.316c-3.867,2.179-12.274,0.035-8.834-5.397
				c-16.162,11.719-28.374-19.053-8.381-19.916c4.042,0.477,7.25,3.743,11.216,4.659c10.838,0.242,23.96-4.737,22.986,12.043
				c17.059,20.074-19.944,39.034-15.423,22.135C307.777,151.761,306.196,152.465,305.223,152.039z"/>
			<g>
				<path style="fill:#E4BB9B;" d="M305.491,149.558c3.674-4.735,8.965,1.348,6.153,5.591
					C306.337,163.529,299.29,156.886,305.491,149.558z"/>
				<path style="fill:#CC9C77;" d="M308.448,150.907c0.619,0.327,0.897,1.088,0.887,1.789c-0.014,0.955-0.458,1.858-1.031,2.623
					c-0.443,0.592-1.018,1.149-1.745,1.281c-0.098,0.018-0.2,0.027-0.295-0.001c-0.095-0.028-0.182-0.101-0.202-0.198
					c-0.039-0.189,0.167-0.327,0.336-0.419c0.974-0.532,1.719-1.467,2.022-2.534c0.083-0.293,0.134-0.602,0.089-0.903
					c-0.045-0.301-0.197-0.597-0.451-0.765c-0.347-0.23-0.859-0.164-1.136,0.147c-0.19,0.213-0.35,0.696-0.706,0.675
					c-0.21-0.012-0.235-0.207-0.219-0.383c0.059-0.626,0.566-1.137,1.128-1.355C307.547,150.701,308.043,150.693,308.448,150.907z"
					/>
			</g>
			<g>
				<g>
					<path style="fill:#364056;" d="M293.3,144.696c0.409,0.049,0.822,0.128,1.229,0.067c0.407-0.061,0.819-0.297,0.952-0.686
						c0.135-0.396-0.059-0.847-0.375-1.12s-0.733-0.399-1.142-0.484c-1.415-0.293-2.922-0.167-4.25,0.402
						c-1.328,0.569-2.468,1.587-3.142,2.866c-0.087,0.165-0.168,0.347-0.14,0.531c0.121,0.787,1.134-0.199,1.412-0.369
						c0.539-0.33,1.116-0.599,1.715-0.803C290.756,144.693,292.044,144.546,293.3,144.696z"/>
					<path style="fill:#364056;" d="M287.946,150.671c0.191,0.337,0.559,0.586,0.946,0.57c0.339-0.014,0.65-0.227,0.84-0.508
						c0.19-0.281,0.273-0.623,0.301-0.961c0.06-0.73-0.233-1.595-1.082-1.655c-0.655-0.047-0.963,0.64-1.104,1.172
						C287.727,149.744,287.707,150.249,287.946,150.671z"/>
				</g>
				<path style="fill:#FFFFFF;" d="M292.551,159.872c0.206-0.139,0.453-0.29,0.685-0.204c0.171,0.064,0.276,0.247,0.294,0.428
					c0.018,0.181-0.036,0.362-0.102,0.533c-0.449,1.16-1.436,2.024-2.465,2.724c-0.703,0.478-1.452,0.908-2.273,1.128
					c-0.821,0.22-1.725,0.215-2.492-0.151c-0.502-0.239-1.204-0.794-1.249-1.4c-0.047-0.624,0.647-0.809,1.133-0.849
					c1.485-0.122,2.93-0.446,4.303-1.032C291.142,160.727,291.869,160.333,292.551,159.872z"/>
			</g>
		</g>
		<g>
			<g>
				<path style="fill:#E4BB9B;" d="M397.874,181.648c6.732,2.089,7.008,7.957,6.627,13.151c-0.596,12.699-1.213,25.534-4.715,37.756
					c-3.753,0.286-7.533,0.214-11.272-0.214c-0.682-12.056-1.775-21.873-2.457-33.929c-10.548-0.498-25.711,1.281-35.763-2.777
					c-7.244-3.153-18.326-24.281-8.597-24.622C359.916,170.373,380.907,177.032,397.874,181.648z"/>
				<path style="fill:#CC9C77;" d="M389.417,195.385c0.277-0.256,0.579-0.607,0.453-0.962c-0.097-0.272-0.428-0.404-0.714-0.361
					c-0.286,0.042-0.534,0.216-0.759,0.398c-1.235,1-2.369,2.59-2.568,4.201c0.579-0.276,1.072-0.951,1.537-1.381
					C388.05,196.648,388.734,196.017,389.417,195.385z"/>
				<path style="fill:#CC9C77;" d="M397.635,188.718c0.893,1.255,2.274,2.154,3.783,2.464c-1.124,0.621-2.593,0.465-3.649-0.267
					c-1.056-0.732-1.704-1.971-1.853-3.247c-0.098-0.841-0.05-1.897,0.329-2.665c0.406,0.232,0.335,1.234,0.443,1.659
					C396.875,187.397,397.195,188.099,397.635,188.718z"/>
			</g>
			<g>
				<path style="fill:#E4BB9B;" d="M389.813,227.247c-1.13,0.603-2.259,1.207-3.388,1.81c-1.119,0.598-2.259,1.211-3.138,2.125
					c-2.313,2.404-2.36,6.199-2.905,9.29c-0.055,0.312-0.11,0.633-0.047,0.944c0.1,0.497,0.493,0.896,0.944,1.129
					c0.445,0.23,0.951,0.332,1.442,0.411c-0.3,1.141-0.112,2.708,0.817,3.533c0.856,0.76,2.375,0.744,3.039-0.189
					c-0.075,0.68,0.39,1.351,1.016,1.627c0.626,0.275,1.37,0.196,1.988-0.098c0.618-0.293,1.125-0.781,1.555-1.314
					c-0.249,0.612,0.076,1.365,0.647,1.698c0.57,0.334,1.312,0.285,1.899-0.017c0.588-0.302,1.035-0.828,1.361-1.402
					c-0.061,0.891,0.91,1.687,1.772,1.453c0.909-0.246,1.32-1.279,1.576-2.185c1.281-4.526,1.962-9.212,2.191-13.911
					c0.036-0.739,0.044-1.541-0.39-2.141c-0.539-0.747-1.558-0.923-2.472-1.039L389.813,227.247z"/>
				<path style="fill:#CC9C77;" d="M384.835,235.989c-0.938,0.884-1.605,2.039-1.971,3.275c-0.187,0.633-0.297,1.288-0.337,1.947
					c-0.031,0.507-0.129,1.286,0.066,1.757c0.151-0.256,0.184-0.646,0.26-0.932c0.136-0.505,0.278-1.008,0.427-1.51
					c0.293-0.983,0.611-1.959,0.954-2.926c0.098-0.275,0.197-0.549,0.299-0.822C384.607,236.583,384.684,236.131,384.835,235.989z"
					/>
			</g>
		</g>
	</g>
	<g>
		<g>
			<g>
				<path style="fill:#9A7960;" d="M163.505,191.084c7.546,2.439,15.71,4.187,22.291,8.772
					c11.415,11.135,17.247,26.067,23.694,40.411c-1.97,1.957-5.34,3.265-7.999,4.062c-8.86-7.691-26.128-26.611-27.725-32.857
					c-17.978,2.935-45.099-0.846-46.139-24.037C127.563,179.913,158.118,190.33,163.505,191.084z"/>
				<path style="fill:#FFFFFF;" d="M197.392,241.565c0.192,0.158,11.85-4.927,11.85-4.927l-4.095-8.905l-14.745,6.918
					L197.392,241.565z"/>
				<path style="fill:#7C5C44;" d="M185.18,203.081c-2.452,2.063-5.891-0.821-5.486-3.664
					C180.851,201.418,182.72,203.157,185.18,203.081z"/>
			</g>
			<g>
				<path style="fill:#9A7960;" d="M197.353,242.14c-3.698,2.94,0.799,7.838,2.378,10.956c0.911,1.828,3,1.21,4.1-0.093
					c0.143,3.014,5.494,4.559,4.666,0.648c1.65,1.92,4.34-0.585,3.258-2.633c1.709,1.895,3.794-1.038,2.781-2.811
					c5.376-0.915-4.567-8.663-5.892-10.614c-1.601-2.102-4.002-0.217-5.702,0.754"/>
				<g>
					<path style="fill:#7C5C44;" d="M206.257,242.028c0.914,0.272,1.894,0.272,2.833,0.108c0.219-0.038,0.497-0.061,0.61,0.13
						c0.073,0.123,0.037,0.279,0,0.417c-0.148,0.542-0.295,1.083-0.443,1.624c-0.042,0.155-0.108,0.335-0.263,0.378
						c-0.164,0.046-0.316-0.09-0.452-0.192c-0.404-0.302-0.948-0.367-1.446-0.285c-0.498,0.082-0.964,0.295-1.422,0.506
						c-1.275,0.587-2.551,1.174-3.826,1.761c1.322-0.727,2.284-2.075,2.542-3.561c0.069-0.397,0.087-0.806,0.032-1.206
						c-0.017-0.125-0.241-0.754-0.037-0.789c0.091-0.015,0.709,0.577,0.837,0.654C205.546,241.769,205.895,241.921,206.257,242.028z
						"/>
					<path style="fill:#7C5C44;" d="M206.679,244.417c5.739-1.112-1.496,7.275-3.02,8.635c6.916-5.361,8.692-13.613-2.168-6.296
						C203.248,246.179,204.874,245.001,206.679,244.417z"/>
					<path style="fill:#7C5C44;" d="M201.164,249.367c-0.304-0.696-0.135-1.519,0.223-2.188c0.358-0.669,0.888-1.227,1.356-1.825
						c0.565-0.721,1.053-1.52,1.298-2.403c0.245-0.883,0.232-1.859-0.166-2.685c0.605,0.606,0.842,1.519,0.742,2.37
						c-0.1,0.851-0.506,1.642-1.029,2.32c-0.451,0.583-0.986,1.107-1.543,1.588c-0.453,0.391-0.664,0.97-0.792,1.545
						C201.159,248.507,201.128,248.939,201.164,249.367z"/>
					<path style="fill:#7C5C44;" d="M214.043,243.351c-0.456-0.807-1.288-1.449-2.215-1.472c-0.721-0.018-1.44,0.358-1.836,0.96
						c-0.397,0.602-0.459,1.411-0.158,2.066c-0.286-0.134-0.615-0.172-0.923-0.108c-0.125-0.34-0.448-0.598-0.807-0.645
						c0.404-0.033,0.817,0.063,1.164,0.27c-0.305-0.991,0.195-2.166,1.12-2.634c0.925-0.468,2.168-0.175,2.786,0.657"/>
				</g>
			</g>
		</g>
		<g>
			<path style="fill:#9A7960;" d="M172.956,311.928c-8.416-0.802-17.018-1.802-25.555-2.124c3.01,7.071,5.861,14.208,8.551,21.407
				c7.121-2.508,14.21-4.771,21.262-6.161L172.956,311.928z"/>
			<g>
				<path style="fill:#D88D7E;" d="M176.699,322.669c-2.384,2.114,1.111,4.919,3.517,3.796c3.745-1.685,7.652-3.636,11.912-2.671
					c8.101,3.405,12.456,2.502,16.615-5.27c-8.144-2.902-28.875-23.338-33.77-15.383c-2.751,3.454-14.152,9.639-5.728,12.918"/>
				<polygon style="fill:#363F56;" points="174.797,299.733 178.952,295.424 211.85,317.092 208.743,320.508 				"/>
			</g>
		</g>
		<g>
			<path style="fill:#363F56;" d="M115.475,313.749c23.019-7.713,57.044-27.598,47.879-52.848l-28.892,0.969
				c-18.485,16.265-71.367,43.668-55.596,70.818c18.192,25.276,52.943,5.936,77.085-1.478c-2.69-7.199-5.541-14.336-8.551-21.407
				C136.475,309.393,125.657,310.093,115.475,313.749z"/>
			<path style="fill:#2B344B;" d="M150.693,294.521c-12.549-18.186-1.407-6.742-19.013-15.22c5.863,0.872,12.117,1.726,17.771-0.524
				L150.693,294.521z"/>
			<path style="fill:#2B344B;" d="M102.588,321.373c6.214,0.896,12.578-2.865,14.871-8.693
				C113.657,316.888,107.829,319.314,102.588,321.373z"/>
			<path style="fill:#2B344B;" d="M93.488,325.252c0.897,2.263,1.084,4.801,0.53,7.172c4.006-4.881,0.979-13.873-5.912-12.969
				C90.679,319.889,92.45,323.057,93.488,325.252z"/>
		</g>
		<g>
			<g>
				<path style="fill:#363F56;" d="M192.189,322.102c-0.739-23.988-6.308-47.308-15.971-69.191l-37.473,7.99
					c10.734,33.876,24.199,67.221,44.915,96.314c4.618,6.583,9.487,13.055,14.316,19.552l23.881-7.88
					C210.621,335.443,205.495,323.86,192.189,322.102z"/>
				<path style="fill:#2B344B;" d="M182.001,321.576c1.359,2.417,1.72,5.681,0.937,8.476c4.387-5.688-0.102-13.786-5.725-12.285
					C179.121,318.555,180.781,319.406,182.001,321.576z"/>
			</g>
			<path style="fill:#9A7960;" d="M231.38,397.446c-3.679-10.947-6.781-20.395-9.523-28.559l-23.881,7.88
				c6.749,9.08,13.42,18.21,19.216,27.766C222.189,401.468,225.888,399.5,231.38,397.446z"/>
		</g>
		<g>
			<path style="fill:#D88D7E;" d="M189.432,419.059c-0.572-1.934-0.914-4.312,0.115-6.106c1.036-1.806,2.236-3.519,3.574-5.114
				c2.677-3.193,5.907-5.921,9.506-8.02c1.799-1.049,3.69-1.941,5.648-2.653c-0.647-2.159,0.636-4.649,2.688-5.58
				c2.052-0.931,4.622-0.365,6.265,1.177c1.643,1.543,2.374,3.923,2.132,6.163c4.028,0.232,8.117-0.692,11.654-2.635
				c0.921-0.506,2.003-1.095,2.958-0.657c0.695,0.319,1.055,1.081,1.339,1.79c1.842,4.591,2.868,9.508,3.016,14.453"/>
			<path style="fill:#363F56;" d="M223.067,402.447c-0.592-0.337-1.407-0.383-1.909,0.077c-0.488,0.448-0.528,1.184-0.659,1.833
				c-0.361,1.792-1.842,3.415-3.664,3.563c-0.643,0.052-1.301-0.072-1.931,0.068c-0.63,0.14-1.255,0.685-1.155,1.323
				c0.083,0.534,0.622,0.87,1.135,1.039c1.883,0.617,3.937-0.069,5.716-0.941c1.779-0.872,3.523-1.957,5.491-2.187
				c1.188-0.139,2.397,0.045,3.585-0.094c1.188-0.138,2.448-0.713,2.885-1.826c0.236-0.6,0.192-1.303-0.116-1.869
				c-0.308-0.566-0.875-0.984-1.507-1.112c-0.763-0.154-1.552,0.104-2.245,0.46c-0.692,0.356-1.333,0.815-2.054,1.109
				c-0.545,0.223-1.645,0.532-2.152,0.074c-0.201-0.181-0.336-0.519-0.518-0.732C223.708,402.928,223.417,402.646,223.067,402.447z"
				/>
			<polygon style="fill:#363F56;" points="188.584,417.754 238.529,409.328 238.529,413.031 188.886,420.116 			"/>
		</g>
		<g>
			<path style="fill:#9A7960;" d="M122.851,185.868c0.151,0.159-7.886,10.331-13.917,11.172c-0.935-5.871-3.518-11.47-7.377-15.992
				C118.03,159.693,110.855,171.721,122.851,185.868z"/>
			<path style="fill:#7C5C44;" d="M101.424,181.089c2.011,2.547,3.715,5.336,5.062,8.289c2.271-2.343,3.856-5.292,4.876-8.392
				c1.02-3.1,1.494-6.355,1.74-9.609"/>
		</g>
		<g>
			<path style="fill:#D88D7E;" d="M159.714,224.972c-4.159-4.978-4.345-11.41-5.011-17.568c-2.152-8.85-6.262-20.617-16.318-22.612
				c-11.036-1.489-50.673-2.66-47.302,14.911c1.546,46.402,32.067,14.056,31.886,70.347c18.25,4.645,40.796-2.974,55.983-12.708
				C177.298,245.242,167.041,234.504,159.714,224.972z"/>
			<path style="fill:#9A7960;" d="M105.001,185.943c6.223-0.529,13.79,1.826,19.239-2.118c-1.171-0.04-2.725-0.066-4.553-0.023
				c-1.223,0.029-3.397,0.084-5.827,0.352C111.66,184.397,108.62,184.884,105.001,185.943z"/>
			<g>
				<path style="fill:#E4E4E4;" d="M129.084,225.611c7.962-2.905,16.172-5.852,24.642-5.551
					c-1.862-11.638-6.639-22.798-13.772-32.179c-4.026,3.036-8.973,4.661-13.96,5.408c-5.032,0.753-10.017,0.254-15.043,0.598
					c0.986,1.59,2.076,2.878,2.925,4.604c1.123,2.282,2.276,4.55,3.459,6.801c2.347,4.469,4.812,8.876,7.39,13.216
					C125.103,219.145,128.789,225.718,129.084,225.611z"/>
				<path style="fill:#363F56;" d="M130.107,216.437c-2.578-5.018-5.4-10.127-7.979-15.146c-0.772,0.174-1.707,0.359-2.479,0.533
					c0.327-1.498,0.655-2.996,0.982-4.494c1.47-0.117,2.924-0.437,4.308-0.947c2.914,6.04,6.147,12.594,9.061,18.634l1.812-0.626
					l1.812,2.997l-8.136,2.964l-1.449-3.327L130.107,216.437z"/>
				<path style="fill:#363F56;" d="M141.752,202.806c0.54-1.462,0.218-3.251-0.337-4.7c-5.176-9.575-14.457,4.212-4.509,6.861
					c-4.027,3.828,0.537,11.875,5.776,11.383C150.212,215.286,148.875,203.3,141.752,202.806z M135.181,199.265
					c0.466-3.221,4.778-1.838,4.045,1.013C138.581,202.996,134.437,201.996,135.181,199.265z M144.743,211.82
					c-2.17,3.787-7.547,0.129-5.887-3.52C140.826,202.862,147.019,207.539,144.743,211.82z"/>
			</g>
		</g>
		<path style="fill:#9A7960;" d="M110.964,142.265c-10.368-2.22-20.38,6.222-21.434,16.547c-0.043,1.442-0.269,3.145-0.526,4.964
			c-0.638,1.249-1.554,2.357-2.677,3.199c-0.237,0.178-0.486,0.348-0.674,0.577c-0.188,0.23-0.308,0.536-0.239,0.825
			c0.064,0.271,0.284,0.481,0.529,0.613c0.245,0.132,0.519,0.199,0.783,0.287c0.547,0.182,1.058,0.464,1.513,0.818
			c-0.42,5.745,0.409,11.098,6.653,12.108C116.405,187.179,132.306,151.895,110.964,142.265z"/>
		<g>
			<g>
				<path style="fill:#364056;" d="M146.937,166.056c-0.385-0.235-4.225-3.749-3.455-4.073c-1.865,0.785-4.02,1.048-5.915,0.34
					c-1.895-0.709-3.434-2.518-3.466-4.541c-1.668,0.367-3.47-0.389-4.57-1.695c-1.1-1.307-1.544-3.084-1.442-4.789
					c0.083-1.4,0.519-2.723,1.086-3.994c0.198-0.443,0.336-0.93,0.611-1.323c0.148-0.211,1.341-0.982,1.339-1.115
					c-0.07-3.722,2.927-7.258,6.611-7.798c0.727-2.817,2.877-5.228,5.593-6.271c2.716-1.043,5.927-0.692,8.353,0.914
					c1.738-1.256,4.137-1.362,6.147-0.616c2.011,0.746,3.667,2.247,4.969,3.951c1.502,1.964,2.618,4.33,2.593,6.802
					c-0.025,2.472-1.389,5.019-3.679,5.951c1.768,1.691,3.05,3.948,3.321,6.379c0.271,2.431-0.547,5.019-2.356,6.666
					c-1.809,1.647-4.62,2.199-6.82,1.131c0.314,2.028-1.115,4.081-3.028,4.824C150.919,167.542,148.689,167.124,146.937,166.056z"/>
				<path style="fill:#FFFFFF;" d="M122.731,147.75c1.906,0.381,3.834,0.654,5.771,0.816c2.051,2.398,2.89,5.84,2.26,8.932
					c-2.065,1.175-4.272,2.205-6.475,3.094"/>
			</g>
			<path style="fill:#364056;" d="M90.924,153.574c-1.466-16.136,26.201-17.302,33.029-5.981c6.232,9.239,2.524,23.743-8.957,26.472
				c-1.106,0.576-2.056-0.092-1.969-1.326c-0.161-3.016-0.019-8.223-4.514-6.869c-0.587,0.138-1.371,0.281-1.783-0.273
				C108.839,154.228,101.258,147.687,90.924,153.574z"/>
		</g>
		<g>
			<path style="fill:#9A7960;" d="M110.171,163.066c3.444-4.438,8.403,1.263,5.767,5.24
				C110.964,176.161,104.358,169.934,110.171,163.066z"/>
			<path style="fill:#7C5C44;" d="M112.943,164.33c0.581,0.307,0.841,1.02,0.832,1.677c-0.013,0.895-0.43,1.742-0.966,2.458
				c-0.416,0.554-0.954,1.076-1.636,1.201c-0.091,0.017-0.187,0.025-0.276-0.001c-0.089-0.027-0.171-0.095-0.189-0.186
				c-0.037-0.177,0.156-0.306,0.315-0.393c0.913-0.499,1.612-1.375,1.895-2.375c0.078-0.275,0.126-0.564,0.084-0.847
				c-0.042-0.283-0.184-0.559-0.422-0.717c-0.326-0.215-0.805-0.153-1.065,0.138c-0.178,0.199-0.328,0.653-0.662,0.633
				c-0.197-0.012-0.221-0.194-0.205-0.359c0.055-0.587,0.53-1.066,1.058-1.27C112.098,164.136,112.563,164.129,112.943,164.33z"/>
		</g>
		<g>
			<g>
				<path style="fill:#364056;" d="M98.745,158.508c0.383,0.046,0.77,0.12,1.152,0.063c0.382-0.057,0.768-0.278,0.893-0.643
					c0.127-0.371-0.055-0.794-0.352-1.05c-0.297-0.256-0.687-0.374-1.071-0.454c-1.326-0.275-2.739-0.157-3.984,0.377
					c-1.245,0.534-2.314,1.488-2.945,2.686c-0.082,0.155-0.158,0.325-0.131,0.498c0.113,0.738,1.063-0.186,1.324-0.346
					c0.506-0.309,1.046-0.562,1.607-0.752C96.36,158.505,97.567,158.367,98.745,158.508z"/>
				<path style="fill:#364056;" d="M93.97,164.342c0.179,0.316,0.524,0.549,0.886,0.534c0.318-0.013,0.609-0.213,0.787-0.476
					c0.179-0.263,0.256-0.584,0.282-0.901c0.056-0.684-0.218-1.495-1.015-1.551c-0.614-0.044-0.903,0.6-1.035,1.099
					C93.765,163.472,93.746,163.946,93.97,164.342z"/>
			</g>
			<path style="fill:#364056;" d="M98.287,172.959c0.193-0.13,0.424-0.272,0.642-0.191c0.16,0.06,0.259,0.231,0.275,0.401
				c0.017,0.17-0.034,0.34-0.096,0.499c-0.421,1.087-1.346,1.897-2.31,2.554c-0.659,0.448-1.361,0.851-2.131,1.057
				s-1.617,0.201-2.336-0.141c-0.47-0.224-1.128-0.744-1.171-1.313c-0.044-0.585,0.606-0.758,1.062-0.796
				c1.392-0.114,2.746-0.418,4.033-0.967C96.966,173.76,97.648,173.391,98.287,172.959z"/>
		</g>
		<g>
			<g>
				<path style="fill:#9A7960;" d="M60.337,208.246c-6.845-11.572-17.246-19.283-26.726-30.215l-7.378,5.207
					c5.492,14.925,15.159,49.325,34.155,49.185c11.947-1.872,31.727-11.491,41.372-19.003c9.763-6.085,5.264-20.01-3.622-22.945
					c-1.472-0.486-3.087-0.263-4.569,0.192c-11.947,3.668-22.524,12.034-31.61,20.421C61.435,210.134,60.894,209.187,60.337,208.246
					z"/>
				<path style="fill:#FFFFFF;" d="M26.233,188.262c1.859-0.522,3.996-1.261,6.287-2.326c2.729-1.268,4.983-2.675,6.766-3.958
					c2.064,1.979,4.128,3.958,6.191,5.936c-2.334,1.953-5.299,4.1-8.936,6.064c-2.212,1.194-4.323,2.132-6.255,2.872
					C28.935,193.988,27.584,191.125,26.233,188.262z"/>
				<path style="fill:#7C5C44;" d="M61.908,211.162c-1.062,1.011-1.966,2.188-2.668,3.475c0.54-1.647,1.205-3.252,1.989-4.798"/>
				<path style="fill:#7C5C44;" d="M59.624,226.449c1.452,0.253,2.796,0.982,3.91,1.946c-0.505-3.658-5.709-4.08-7.776-1.53
					C56.961,226.787,58.322,226.037,59.624,226.449z"/>
			</g>
			<g>
				<path style="fill:#9A7960;" d="M28.133,188.262c-2.564-4.172-8.893-9.219-6.449-14.455c1.309-1.719,2.494-6.24,5.219-5.26
					c-0.056-1.773,2.164-2.874,3.542-1.758c0.288-1.71,2.752-2.093,3.546-0.553c3.22-4.097,4.696,2.58,4.61,5.195
					c5.5,1.733-1.204,12.019-4.021,14.007"/>
				<path style="fill:#7C5C44;" d="M37.737,173.557c-0.44,0.625-1.164,1.107-1.926,1.046c0.325-0.235,0.651-0.47,0.976-0.705
					c0.067-0.048,0.136-0.099,0.172-0.172c0.063-0.126,0.013-0.278-0.044-0.407c-0.34-0.761-0.945-1.402-1.686-1.785
					c0.436,0.111,0.872,0.252,1.248,0.498c0.376,0.247,0.692,0.612,0.798,1.05c0.012-1.614,0.018-3.268-0.533-4.785
					c0.806,1.54,1.204,3.337,0.855,5.04c0.027-0.134,0.232-0.33,0.307-0.451c0.105-0.17,0.203-0.345,0.292-0.524
					c0.153-0.307,0.254-0.63,0.382-0.945C38.476,172.145,38.16,172.957,37.737,173.557z"/>
			</g>
		</g>
	</g>
</g>
</svg>
