<?xml version="1.0" encoding="utf-8"?>
<!-- Generator: Adobe Illustrator 27.5.0, SVG Export Plug-In . SVG Version: 6.00 Build 0)  -->
<svg version="1.1" xmlns="http://www.w3.org/2000/svg" xmlns:xlink="http://www.w3.org/1999/xlink" x="0px" y="0px"
	 viewBox="0 0 500 500" style="enable-background:new 0 0 500 500;" xml:space="preserve">
<g id="Background_Complete">
	<g>
		<rect y="382.398" style="fill:#EBEBEB;" width="500" height="0.25"/>
		<rect x="396.586" y="389.208" style="fill:#EBEBEB;" width="25.97" height="0.25"/>
		<rect x="306.973" y="391.013" style="fill:#EBEBEB;" width="8.693" height="0.25"/>
		<rect x="430.709" y="398.494" style="fill:#EBEBEB;" width="19.192" height="0.25"/>
		<rect x="52.459" y="390.888" style="fill:#EBEBEB;" width="16.249" height="0.25"/>
		<rect x="74.056" y="390.888" style="fill:#EBEBEB;" width="36.833" height="0.25"/>
		<rect x="201.658" y="395.111" style="fill:#EBEBEB;" width="93.676" height="0.25"/>
		<path style="fill:#EBEBEB;" d="M237.014,337.8H43.915c-3.147,0-5.708-2.561-5.708-5.708V60.66c0-3.147,2.561-5.708,5.708-5.708
			h193.099c3.146,0,5.707,2.561,5.707,5.708v271.432C242.721,335.239,240.16,337.8,237.014,337.8z M43.915,55.203
			c-3.01,0-5.458,2.448-5.458,5.458v271.432c0,3.01,2.448,5.458,5.458,5.458h193.099c3.009,0,5.457-2.448,5.457-5.458V60.66
			c0-3.009-2.448-5.458-5.457-5.458H43.915z"/>
		<path style="fill:#EBEBEB;" d="M453.31,337.8H260.212c-3.147,0-5.707-2.561-5.707-5.708V60.66c0-3.147,2.561-5.708,5.707-5.708
			H453.31c3.148,0,5.708,2.561,5.708,5.708v271.432C459.019,335.239,456.458,337.8,453.31,337.8z M260.212,55.203
			c-3.009,0-5.457,2.448-5.457,5.458v271.432c0,3.01,2.448,5.458,5.457,5.458H453.31c3.01,0,5.458-2.448,5.458-5.458V60.66
			c0-3.009-2.448-5.458-5.458-5.458H260.212z"/>
	</g>
	<g>
		<path style="fill:#FAFAFA;" d="M219.186,126.424c-1.552-3.435-4.676-6.088-6.984-5.921c-0.864,0.066-1.491,0.516-1.856,1.231
			c-4.217-4.275-9.068-6.903-13.072-6.612c-2.036,0.141-3.62,1.023-4.715,2.462c-4.525-6.453-10.293-11.027-14.478-11.027
			c-2.378,0-3.856,1.48-4.381,3.95c-4.645-4.333-9.415-6.994-13.262-6.994c-6.134,0-8.126,6.761-5.617,16.258
			c-1.005,1.788-5.842,4.291-5.645,7.285h70.278C219.369,126.848,219.283,126.64,219.186,126.424z"/>
		<path style="fill:#FAFAFA;" d="M332.48,85.468c-1.206-2.668-3.633-4.73-5.426-4.6c-0.672,0.052-1.159,0.401-1.442,0.956
			c-3.276-3.321-7.045-5.363-10.156-5.137c-1.582,0.11-2.813,0.795-3.664,1.913c-3.516-5.014-7.997-8.568-11.249-8.568
			c-1.847,0-2.996,1.15-3.403,3.069c-3.609-3.366-7.315-5.434-10.304-5.434c-4.766,0-6.314,5.253-4.364,12.632
			c-0.781,1.389-4.539,3.334-4.386,5.66h54.603C332.621,85.797,332.555,85.636,332.48,85.468z"/>
		<path style="fill:#FAFAFA;" d="M121.003,100.104c-0.714,0.059-1.214,0.518-1.488,1.257c-3.605-4.375-7.671-7.06-10.946-6.762
			c-1.672,0.144-2.944,1.053-3.791,2.523c-0.003,0.009-0.005,0-0.005,0c-3.918-6.592-8.805-11.265-12.244-11.265
			c-1.958,0-3.123,1.512-3.469,4.035c-3.954-4.435-7.958-7.153-11.12-7.153c-3.92,0-5.651,4.18-5.111,10.611
			c-1.89-1.869-3.743-2.973-5.254-2.973c-2.094,0-3.074,2.115-2.905,5.429c-0.185,0-0.366,0.017-0.546,0.051
			c-3.195,0.552-4.419,4.834-2.882,9.727h65.452C125.262,102.355,122.794,99.942,121.003,100.104z"/>
		<path style="fill:#FAFAFA;" d="M391.456,172.731c-0.818,0.068-1.39,0.594-1.704,1.44c-4.13-5.012-8.788-8.087-12.539-7.747
			c-1.915,0.165-3.373,1.207-4.342,2.89c-0.004,0.01-0.006,0-0.006,0c-4.489-7.552-10.087-12.905-14.027-12.905
			c-2.243,0-3.577,1.732-3.974,4.623c-4.53-5.08-9.116-8.194-12.739-8.194c-4.491,0-6.474,4.788-5.855,12.156
			c-2.165-2.141-4.288-3.406-6.019-3.406c-2.398,0-3.522,2.423-3.328,6.219c-0.212,0-0.42,0.019-0.625,0.058
			c-3.66,0.633-5.062,5.538-3.302,11.143h74.981C396.335,175.31,393.508,172.546,391.456,172.731z"/>
		<path style="fill:#EBEBEB;" d="M101.036,135.325c-1.796,0.149-3.566,0.385-5.335,0.652c-1.762,0.284-3.509,0.624-5.235,1.057
			c-1.304,0.333-2.6,0.697-3.872,1.166c-1.573-1.146-3.338-2.129-5.211-2.967c-1.147-0.503-2.32-0.97-3.545-1.368
			c-1.218-0.403-2.473-0.76-3.783-1.016l2.958,1.837c0.965,0.613,1.925,1.214,2.848,1.832c0.947,0.6,1.808,1.25,2.677,1.876
			c0.859,0.635,1.649,1.293,2.4,1.958l0.891,0.788l1.325-0.52c1.382-0.543,2.96-1.008,4.543-1.456
			c1.587-0.453,3.22-0.877,4.862-1.304c3.273-0.884,6.609-1.705,9.905-2.769C104.632,135.061,102.83,135.174,101.036,135.325z"/>
		<path style="fill:#EBEBEB;" d="M153.676,147.571c-1.795,0.15-3.566,0.384-5.335,0.652c-1.762,0.283-3.509,0.624-5.234,1.058
			c-1.305,0.333-2.6,0.696-3.872,1.166c-1.573-1.146-3.337-2.128-5.211-2.967c-1.147-0.503-2.32-0.97-3.544-1.369
			c-1.219-0.402-2.474-0.759-3.784-1.015l2.958,1.837c0.965,0.612,1.925,1.214,2.849,1.831c0.946,0.6,1.808,1.25,2.677,1.876
			c0.858,0.635,1.649,1.293,2.399,1.958l0.891,0.788l1.325-0.52c1.382-0.543,2.96-1.008,4.543-1.457
			c1.587-0.452,3.22-0.876,4.862-1.303c3.273-0.885,6.609-1.705,9.905-2.769C157.272,147.307,155.469,147.421,153.676,147.571z"/>
		<path style="fill:#EBEBEB;" d="M411.8,140.778c-2.103,0.175-4.176,0.451-6.248,0.764c-2.063,0.332-4.11,0.731-6.13,1.238
			c-1.527,0.39-3.045,0.816-4.534,1.366c-1.842-1.343-3.909-2.493-6.103-3.475c-1.343-0.589-2.717-1.136-4.151-1.602
			c-1.427-0.472-2.897-0.89-4.43-1.189l3.464,2.152c1.131,0.718,2.254,1.422,3.336,2.145c1.108,0.702,2.118,1.464,3.135,2.197
			c1.005,0.744,1.931,1.515,2.81,2.293l1.043,0.923l1.552-0.609c1.619-0.635,3.467-1.181,5.321-1.705
			c1.859-0.531,3.771-1.027,5.693-1.527c3.833-1.036,7.739-1.996,11.599-3.243C416.01,140.469,413.901,140.601,411.8,140.778z"/>
		<path style="fill:#EBEBEB;" d="M331.527,122.536c-2.102,0.175-4.176,0.45-6.247,0.764c-2.063,0.332-4.11,0.731-6.13,1.239
			c-1.528,0.39-3.045,0.815-4.535,1.365c-1.842-1.343-3.908-2.492-6.102-3.474c-1.343-0.589-2.716-1.136-4.15-1.603
			c-1.427-0.471-2.897-0.889-4.431-1.189l3.464,2.152c1.131,0.717,2.254,1.421,3.336,2.145c1.108,0.703,2.117,1.463,3.135,2.197
			c1.005,0.744,1.931,1.515,2.81,2.293l1.043,0.923l1.552-0.609c1.618-0.636,3.466-1.181,5.32-1.706
			c1.859-0.529,3.771-1.026,5.693-1.526c3.832-1.036,7.739-1.996,11.599-3.243C335.738,122.227,333.628,122.359,331.527,122.536z"/>
		<path style="fill:#EBEBEB;" d="M391.408,117.046c-1.278,0.106-2.539,0.274-3.798,0.464c-1.254,0.202-2.498,0.444-3.727,0.753
			c-0.928,0.237-1.851,0.496-2.756,0.83c-1.12-0.816-2.376-1.516-3.71-2.112c-0.817-0.358-1.652-0.69-2.523-0.974
			c-0.867-0.287-1.761-0.541-2.693-0.723l2.106,1.308c0.687,0.436,1.37,0.864,2.028,1.304c0.674,0.427,1.287,0.89,1.906,1.336
			c0.611,0.452,1.174,0.921,1.708,1.394l0.634,0.561l0.943-0.37c0.984-0.386,2.107-0.718,3.234-1.036
			c1.13-0.323,2.293-0.625,3.461-0.928c2.33-0.63,4.705-1.213,7.051-1.971C393.967,116.858,392.685,116.938,391.408,117.046z"/>
		<path style="fill:#EBEBEB;" d="M283.014,107.615c-1.278,0.106-2.538,0.274-3.798,0.464c-1.254,0.202-2.498,0.444-3.726,0.753
			c-0.929,0.237-1.851,0.496-2.757,0.83c-1.12-0.816-2.376-1.515-3.71-2.112c-0.816-0.358-1.651-0.691-2.523-0.974
			c-0.868-0.286-1.761-0.54-2.694-0.723l2.106,1.308c0.687,0.436,1.37,0.864,2.028,1.304c0.674,0.427,1.287,0.89,1.905,1.336
			c0.611,0.452,1.174,0.921,1.708,1.394l0.634,0.561l0.943-0.37c0.984-0.387,2.107-0.718,3.234-1.037
			c1.13-0.322,2.292-0.624,3.461-0.928c2.33-0.63,4.705-1.213,7.051-1.971C285.574,107.427,284.291,107.508,283.014,107.615z"/>
		<path style="fill:#EBEBEB;" d="M435.698,112.383c-0.896,0.074-1.779,0.192-2.661,0.325c-0.879,0.142-1.75,0.311-2.611,0.528
			c-0.651,0.166-1.297,0.347-1.931,0.582c-0.785-0.572-1.665-1.062-2.6-1.48c-0.572-0.251-1.157-0.484-1.768-0.683
			c-0.608-0.201-1.234-0.379-1.887-0.507l1.475,0.916c0.482,0.306,0.96,0.606,1.421,0.914c0.472,0.299,0.902,0.624,1.335,0.936
			c0.428,0.317,0.823,0.645,1.197,0.977l0.444,0.393l0.661-0.259c0.689-0.271,1.477-0.503,2.266-0.726
			c0.792-0.226,1.606-0.438,2.425-0.651c1.633-0.441,3.297-0.85,4.941-1.381C437.491,112.251,436.593,112.307,435.698,112.383z"/>
		<path style="fill:#EBEBEB;" d="M364.888,85.905c-0.896,0.075-1.779,0.192-2.661,0.325c-0.879,0.141-1.75,0.311-2.611,0.528
			c-0.651,0.166-1.297,0.347-1.931,0.582c-0.785-0.572-1.665-1.062-2.599-1.48c-0.572-0.251-1.157-0.484-1.768-0.683
			c-0.608-0.201-1.234-0.379-1.887-0.506l1.475,0.916c0.482,0.305,0.96,0.605,1.421,0.914c0.472,0.299,0.902,0.623,1.335,0.936
			c0.428,0.317,0.822,0.645,1.197,0.977l0.444,0.393l0.661-0.259c0.689-0.271,1.477-0.503,2.266-0.727
			c0.792-0.226,1.606-0.437,2.425-0.65c1.632-0.441,3.297-0.85,4.941-1.381C366.682,85.773,365.783,85.83,364.888,85.905z"/>
		<g>
			<g>
				<rect x="224.479" y="366.993" style="fill:#E6E6E6;" width="19.821" height="15.405"/>
				<path style="fill:#F0F0F0;" d="M235.4,258.243l61.583,114.798c0.479,0.893-0.351,1.924-1.326,1.646l-12.951-3.689
					c-0.733-0.209-1.462,0.342-1.462,1.103v5.05c0,0.961-1.11,1.496-1.862,0.898l-12.274-9.768
					c-0.448-0.357-1.091-0.328-1.505,0.066l-6.049,5.754c-0.349,0.332-0.869,0.411-1.301,0.196l-13.579-6.742
					c-0.484-0.24-1.071-0.11-1.408,0.313l-7.216,9.052c-0.434,0.544-1.248,0.58-1.728,0.076l-8.578-9.003
					c-0.445-0.466-1.186-0.476-1.642-0.02l-8.606,8.599c-0.41,0.41-1.061,0.449-1.518,0.092l-10.855-8.482
					c-0.399-0.312-0.955-0.325-1.369-0.033l-8.278,5.85c-0.732,0.517-1.748,0.033-1.807-0.861l-0.448-6.742
					c-0.055-0.828-0.943-1.325-1.678-0.94l-15.719,8.237c-1.002,0.525-2.078-0.562-1.544-1.559l61.096-113.893
					C233.811,257.437,234.968,257.437,235.4,258.243z"/>
				<path style="fill:#E6E6E6;" d="M233.293,261.904l-42.917,69.862c-0.547,0.891,0.376,1.93,1.473,1.657l7.556-1.879
					c0.82-0.204,1.631,0.346,1.631,1.105v1.709c0,0.955,1.231,1.492,2.076,0.905l7.689-5.344c0.498-0.346,1.204-0.318,1.666,0.065
					l3.793,3.151c0.389,0.323,0.96,0.399,1.438,0.192l9.07-3.933c0.537-0.233,1.182-0.105,1.559,0.307l4.583,5.021
					c0.485,0.532,1.382,0.567,1.918,0.076l5.43-4.977c0.496-0.455,1.311-0.464,1.82-0.02l5.519,4.815
					c0.457,0.399,1.172,0.437,1.68,0.091l7.156-4.883c0.443-0.302,1.054-0.315,1.512-0.032l4.955,3.058
					c0.82,0.506,1.947,0.022,2.014-0.866l0.214-2.807c0.063-0.822,1.048-1.319,1.87-0.943l9.206,4.212
					c1.128,0.516,2.323-0.581,1.714-1.573l-42.369-68.972C235.059,261.109,233.781,261.109,233.293,261.904z"/>
				<path style="fill:#F0F0F0;" d="M233.253,249.919l-27.354,50.269c-0.493,0.907,0.477,1.896,1.561,1.591l3.392-0.952
					c0.837-0.235,1.69,0.317,1.69,1.094l0,0c0,0.99,1.321,1.515,2.158,0.858l3.867-3.034c0.524-0.411,1.324-0.38,1.805,0.071
					l1.88,1.763c0.407,0.381,1.053,0.47,1.572,0.217l5.172-2.532c0.576-0.282,1.3-0.137,1.683,0.336l2.386,2.951
					c0.49,0.606,1.494,0.645,2.041,0.078l2.769-2.865c0.51-0.527,1.427-0.537,1.951-0.021l2.899,2.856
					c0.473,0.467,1.283,0.51,1.817,0.099l3.982-3.067c0.47-0.362,1.165-0.377,1.655-0.036l2.177,1.517
					c0.823,0.573,2.035,0.092,2.098-0.833l0.054-0.797c0.058-0.854,1.114-1.354,1.949-0.923l4.129,2.133
					c1.105,0.571,2.378-0.469,1.823-1.488l-26.818-49.284C235.119,249.053,233.724,249.053,233.253,249.919z"/>
			</g>
			<path style="fill:#F0F0F0;" d="M422.125,381.434c-0.815-5.237-4.469-9.282-8.174-9.028c-1.39,0.101-2.587,0.786-3.499,1.876
				c-4.606-6.517-10.985-10.524-17.416-10.081c-3.266,0.215-6.172,1.56-8.573,3.753c-4.06-9.84-10.961-16.814-17.537-16.814
				c-3.736,0-6.759,2.257-8.751,6.023c-5.25-6.606-11.488-10.664-17.533-10.664c-9.64,0-15.966,10.309-16.513,24.789
				c-2.425,2.726-11.208,6.543-12.315,11.108h110.434C422.211,382.081,422.175,381.764,422.125,381.434z"/>
			<path style="fill:#E6E6E6;" d="M156.248,373.601c-1.211,0.095-2.266,0.832-3.088,2.018c-3.787-7.024-9.178-11.334-14.745-10.857
				c-2.839,0.232-5.396,1.691-7.528,4.051c-0.01,0.014-0.008,0-0.008,0c-3.202-10.584-8.961-18.086-14.652-18.086
				c-3.239,0-5.92,2.428-7.749,6.479c-4.336-7.12-9.606-11.484-14.839-11.484c-6.486,0-11.432,6.711-13.739,17.035
				c-2.196-3.001-4.714-4.774-7.213-4.774c-3.464,0-6.14,3.396-7.509,8.716c-0.306,0-0.615,0.027-0.928,0.082
				c-5.561,0.887-9.718,7.761-9.612,15.617h108.3C162.174,377.215,159.292,373.342,156.248,373.601z"/>
			<g>
				<polygon style="fill:#F0F0F0;" points="139.778,340.308 140.037,324.281 145.518,302.674 140.386,302.674 140.777,278.433 
					124.829,278.433 123.267,322.159 119.411,323.126 121.395,346.306 122.401,346.392 121.115,382.398 139.099,382.398 
					139.377,365.179 141.612,340.012 				"/>
				<path style="fill:#E6E6E6;" d="M83.284,277.908c-9.453-4.25-13.269-15.707-2.926-24.87c10.343-9.163-6.324-12.108,6.983-29.778
					c13.308-17.671,31.414-5.165,35.778-20.908c4.363-15.743,20.943-21.851,29.451-3.09c8.508,18.762,8.072,2.618,18.761,20.943
					c10.69,18.325-16.798,26.179-3.272,34.469c13.526,8.29,29.395,22.723,15.452,30.978c-21.003,12.435-3.201,9.708-15.053,22.906
					c-13.574,15.115-19.198-8.072-42.738,2.618c-23.54,10.69-41.201,4.168-32.962-14.18
					C99.166,282.726,93.342,282.43,83.284,277.908z"/>
			</g>
			<g>
				<polygon style="fill:#FAFAFA;" points="386.187,347.9 385.901,334.765 379.822,317.056 385.514,317.056 385.08,297.187 
					402.767,297.187 404.499,333.026 408.775,333.818 406.576,352.816 405.46,352.887 406.886,382.398 386.941,382.398 
					386.633,368.285 384.154,347.658 				"/>
				<path style="fill:#F0F0F0;" d="M441.202,317.486c9.039-3.716,12.689-13.735,2.798-21.747
					c-9.891-8.012,6.047-10.587-6.678-26.039c-12.725-15.452-30.04-4.516-34.212-18.282c-4.172-13.766-20.027-19.107-28.163-2.702
					c-8.136,16.406-7.719,2.289-17.941,18.313c-10.222,16.024,16.063,22.891,3.129,30.14c-12.934,7.249-28.109,19.869-14.776,27.088
					c20.084,10.873,3.061,8.489,14.394,20.03c12.98,13.217,18.358-7.058,40.868,2.289c22.51,9.347,39.399,3.645,31.52-12.4
					C426.015,321.698,431.584,321.44,441.202,317.486z"/>
			</g>
		</g>
	</g>
</g>
<g id="Background_Simple" style="display:none;">
	<g style="display:inline;">
		<path style="fill:#407BFF;" d="M403.022,127.111c-63.693-53.772-183.416-55.746-223.696,26.254
			c-8.951,18.221-8.6,39.844-22.824,55.952c-11.66,13.205-38.391,13.219-58.835,27.905c-39.154,28.125-47.952,98.824,10.385,116.332
			c41.925,12.583,89.157-23.858,125.571-36.199c44.035-14.925,82.025,1.951,125.752-7.508
			C445.144,291.293,468.928,182.751,403.022,127.111z"/>
		<path style="opacity:0.9;fill:#FFFFFF;" d="M403.022,127.111c-63.693-53.772-183.416-55.746-223.696,26.254
			c-8.951,18.221-8.6,39.844-22.824,55.952c-11.66,13.205-38.391,13.219-58.835,27.905c-39.154,28.125-47.952,98.824,10.385,116.332
			c41.925,12.583,89.157-23.858,125.571-36.199c44.035-14.925,82.025,1.951,125.752-7.508
			C445.144,291.293,468.928,182.751,403.022,127.111z"/>
	</g>
</g>
<g id="Shadow_1_">
	<ellipse id="_x3C_Path_x3E__62_" style="fill:#F5F5F5;" cx="250" cy="416.238" rx="193.889" ry="11.323"/>
</g>
<g id="Character_1_">
	<g>
		<path style="fill:#FFB573;" d="M235.171,182.309c-1.441,5.496-3.014,10.913-4.726,16.325c-0.848,2.706-1.733,5.406-2.666,8.104
			c-0.917,2.706-1.886,5.39-2.976,8.144l-0.268,0.666c-0.121,0.299-0.253,0.567-0.388,0.834c-0.271,0.533-0.562,1.004-0.861,1.454
			c-0.6,0.883-1.227,1.626-1.869,2.288c-1.281,1.322-2.583,2.357-3.887,3.305c-2.602,1.879-5.268,3.3-7.929,4.622
			c-5.362,2.582-10.76,4.522-16.425,6.066l-2.106-5.499c2.369-1.309,4.834-2.651,7.181-4.059c2.367-1.391,4.699-2.809,6.918-4.304
			c2.228-1.467,4.346-3.051,6.172-4.654c0.899-0.803,1.721-1.633,2.318-2.411c0.294-0.388,0.546-0.752,0.704-1.056
			c0.073-0.148,0.139-0.285,0.17-0.388c0.016-0.051,0.035-0.101,0.035-0.133l0.023-0.084l0.073-0.242
			c1.555-5.155,2.992-10.616,4.482-15.986c1.473-5.391,2.99-10.805,4.567-16.16L235.171,182.309z"/>
		<path style="fill:#407BFF;" d="M237.78,176.484c3.456,6.973-7.61,29.864-7.61,29.864l-14.212-5.621c0,0,0.558-10.923,4.004-20.383
			C223.591,170.383,233.937,168.732,237.78,176.484z"/>
		<path style="opacity:0.2;" d="M238.134,177.369c-3.351-1.115-6.751,0.571-9.593,6.975c-2.804,6.338-4.511,16.735-4.419,19.613
			l6.05,2.391C230.172,206.348,240.523,185.143,238.134,177.369z"/>
		<path style="fill:#FFB573;" d="M192.455,228.27l-5.5,0.129c-2.887,0.068-5.111,2.57-4.84,5.445l0,0
			c0.361,3.826,4.733,5.817,7.859,3.582c1.567-1.12,3.112-2.409,4.305-3.795L192.455,228.27z"/>
		<path style="fill:#263238;" d="M191.408,228.263c1.203,1.885,2.11,4.434,2.5,5.672c0.076,0.243,0.321,0.398,0.583,0.361
			c1.727-0.244,4.135-1.037,4.862-1.649c0.14-0.118,0.19-0.3,0.15-0.475c-0.493-2.117-2.551-6.593-3.715-6.612
			c-0.943-0.015-3.255,1.382-4.224,1.995C191.318,227.713,191.254,228.022,191.408,228.263z"/>
		<path style="fill:#407BFF;" d="M227.513,172.12c0,0-6.574,25.559,8.003,69.902c13.023-1.581,36.883-4.479,43.22-5.248
			c-0.508-6.671-8.607-38.529-6.004-70.567c0,0-7.589-0.587-14.69-0.07c-5.555,0.404-13.572,1.199-18.372,2.232
			C233.34,169.729,227.513,172.12,227.513,172.12z"/>
		<path style="fill:#FFFFFF;" d="M246.859,190.184c-0.011,0-0.023-0.002-0.034-0.005c-0.066-0.019-0.104-0.088-0.086-0.154
			c1.271-4.521-0.753-6.65-3.817-9.872c-2.177-2.289-4.886-5.139-7.398-9.781c-5.06-9.35-0.131-13.09,3.131-15.565
			c0.724-0.549,1.349-1.023,1.785-1.49c0.05-0.05,0.129-0.053,0.177-0.006c0.051,0.047,0.054,0.126,0.007,0.177
			c-0.451,0.483-1.085,0.963-1.817,1.519c-3.193,2.423-8.02,6.085-3.062,15.247c2.496,4.613,5.192,7.449,7.359,9.727
			c3.123,3.285,5.186,5.454,3.876,10.113C246.964,190.148,246.914,190.184,246.859,190.184z"/>
		<path style="fill:#FFB573;" d="M253.71,145.67c-0.441,6.052-0.283,17.024,4.333,20.466c-5.372,3.095-10.157,7.162-14.437,12.062
			c-2.149-3.424-3.889-6.775-3.936-9.831c6.401-2.374,5.637-7.245,3.931-11.698L253.71,145.67z"/>
		<path style="opacity:0.2;" d="M249.589,150.157l-5.984,6.506c0.408,1.054,0.756,2.13,0.963,3.192
			c2.474-0.67,5.598-3.854,5.545-6.524C250.087,152.001,249.878,150.744,249.589,150.157z"/>
		<path style="fill:#263238;" d="M232.283,127.438c-5.76,3.308-1.636,16.811,1.25,17.85
			C238.931,147.231,239.428,123.337,232.283,127.438z"/>
		<path style="fill:#FFB573;" d="M253.333,136.688c0.481,8.064,1.172,12.76-2.372,17.359c-5.331,6.919-15.656,4.452-18.536-3.306
			c-2.592-6.983-2.943-18.998,4.506-23.135C244.268,123.531,252.853,128.624,253.333,136.688z"/>
		<path style="fill:#263238;" d="M259.056,129.611c0.773,4.682-3.02,17.867-6.416,17.977c-3.396,0.11-5.272-7.074-4.383-13.882
			c-3.223-0.544-22.941,2.011-20.436-6.382c2.311-7.742,13.84-4.109,21.711-9.212c0.602,3.071-2.819,5.843-1.124,5.341
			c7.006-2.076,9.904,2.335,14.791,0.108C262.636,127.669,259.056,129.611,259.056,129.611z"/>
		<path style="fill:#FFB573;" d="M258.02,145.072c-0.912,1.978-2.653,3.35-4.342,3.943c-2.541,0.891-3.985-1.34-3.424-3.829
			c0.505-2.24,2.435-5.403,5.055-5.22C257.891,140.148,259.063,142.81,258.02,145.072z"/>
		<path style="fill:#FFB573;" d="M235.516,242.021c0,0-15.39,51.089-17.194,75.862c-1.877,25.768-8.149,90.912-8.149,90.912
			l6.316,1.906c0,0,21.476-59.99,22.315-85.341c0.549-16.586,30.268-87.414,30.268-87.414L235.516,242.021z"/>
		<path style="fill:#263238;" d="M209.587,403.46l8.32,3.796c0.303,0.138,0.469,0.468,0.4,0.794l-1.54,7.25
			c-0.16,0.752-0.991,1.153-1.685,0.822c-2.882-1.375-4.215-2.189-7.874-3.858c-2.251-1.027-10.264-4.4-13.372-5.818
			c-3.04-1.387-2.112-4.677-0.713-4.375c6.275,1.355,12.479,2.105,15.055,1.297C208.641,403.22,209.143,403.257,209.587,403.46z"/>
		<path style="fill:#407BFF;" d="M205.241,401.671c0.023-0.057,0.049-0.115,0.081-0.173c0.159-0.298,0.391-0.37,0.557-0.378
			c1.009-0.046,2.639,2.34,2.955,2.819c0.051,0.078,0.051,0.176-0.001,0.254c-0.051,0.077-0.143,0.114-0.234,0.097
			c-1.047-0.203-2.873-0.689-3.339-1.666C205.116,402.322,205.11,402.002,205.241,401.671z M208.124,403.718
			c-0.736-1.021-1.748-2.163-2.224-2.14c-0.052,0.003-0.113,0.021-0.175,0.137c-0.137,0.256-0.156,0.493-0.051,0.712
			C205.914,402.93,206.813,403.399,208.124,403.718z"/>
		<path style="fill:#407BFF;" d="M207.584,400.512c0.025-0.063,0.055-0.12,0.09-0.17c0.102-0.145,0.344-0.366,0.808-0.219
			c0.297,0.094,0.521,0.29,0.666,0.584c0.546,1.11-0.257,3.342-0.291,3.436c-0.028,0.084-0.098,0.136-0.182,0.148
			c-0.083,0.012-0.166-0.022-0.217-0.089C207.916,403.481,207.23,401.405,207.584,400.512z M208.578,403.517
			c0.221-0.765,0.465-1.985,0.16-2.607c-0.089-0.18-0.217-0.294-0.393-0.35c-0.216-0.068-0.27,0.01-0.297,0.047
			C207.757,401.013,208.113,402.594,208.578,403.517z"/>
		<path style="fill:#263238;" d="M235.516,242.021c0,0-6.398,20.022-8.387,29.278c4.065,0.346,23.121,6.169,26.927,8.504
			c2.335-4.238,13.644-41.69,13.644-41.69L235.516,242.021z"/>
		<path style="opacity:0.2;" d="M255.533,251.83c-1.18,4.47-2.73,15.49,0.61,22.66c1.49-4.23,3.44-10.271,5.33-16.21
			C259.533,254.26,256.393,248.56,255.533,251.83z"/>
		<g>
			<path style="fill:#407BFF;" d="M227.042,268.214c0,0-0.987,2.22-0.987,4.253c3.121,0.606,23.534,6.934,27.283,8.924
				c1.823-1.336,2.093-4.226,2.191-4.187C255.529,277.203,238.518,269.8,227.042,268.214z"/>
			<path style="opacity:0.2;fill:#FFFFFF;" d="M227.042,268.214c0,0-0.987,2.22-0.987,4.253c3.121,0.606,23.534,6.934,27.283,8.924
				c1.823-1.336,2.093-4.226,2.191-4.187C255.529,277.203,238.518,269.8,227.042,268.214z"/>
		</g>
		<path style="fill:#FFB573;" d="M247.415,240.577c0,0,24.404,65.627,36.544,86.946c12.924,22.696,66.804-19.172,66.804-19.172
			l-4.842-5.066c0,0-31.566,13.747-44.057,12.724c-12.284-22.97-23.127-79.235-23.127-79.235L247.415,240.577z"/>
		<path style="fill:#263238;" d="M246.623,240.673c0,0,11.467,29.568,14.299,38.601c3.708-1.703,23.625-6.03,28.088-5.874
			c-0.058-4.839-10.273-36.626-10.273-36.626L246.623,240.673z"/>
		<path style="fill:#FFFFFF;" d="M269.551,240.717c-0.054,0-0.103-0.034-0.119-0.088c-2.695-8.701-8.643-15.31-13.889-21.14
			c-6.37-7.079-11.871-13.193-11.027-21.38c0.636-6.176,3.013-9.815,5.11-13.026c2.994-4.585,5.359-8.206,0.741-17.07
			c-6.933-13.304,0.563-19.772,3.384-22.208c0.388-0.335,0.693-0.599,0.856-0.789c0.045-0.053,0.124-0.058,0.176-0.014
			c0.053,0.045,0.059,0.124,0.014,0.176c-0.175,0.204-0.487,0.474-0.883,0.815c-2.78,2.4-10.166,8.774-3.324,21.903
			c4.685,8.993,2.284,12.668-0.755,17.322c-2.082,3.187-4.441,6.799-5.071,12.915c-0.832,8.077,4.635,14.152,10.965,21.187
			c5.264,5.85,11.231,12.48,13.941,21.234c0.021,0.066-0.017,0.136-0.082,0.156C269.575,240.715,269.564,240.717,269.551,240.717z"
			/>
		<path style="fill:#FFFFFF;" d="M256.244,145.112c-0.383,0.727-1.168,1.067-1.754,0.758c-0.586-0.308-0.75-1.148-0.367-1.875
			c0.383-0.727,1.168-1.067,1.753-0.758C256.462,143.546,256.627,144.385,256.244,145.112z"/>
		<path style="fill:#FFFFFF;" d="M276.444,243.232l-9.222,1.648l-0.656-3.672c-0.062-0.347,0.169-0.679,0.516-0.741l7.965-1.424
			c0.347-0.062,0.679,0.169,0.741,0.516L276.444,243.232z"/>
		<g>
			<path style="fill:#407BFF;" d="M259.676,276.433c0,0,0.236,2.418,1.238,4.187c3.014-1.012,23.894-5.569,28.136-5.686
				c0.927-2.061-0.263-4.709-0.158-4.723C288.892,270.21,270.442,272.155,259.676,276.433z"/>
			<path style="opacity:0.2;fill:#FFFFFF;" d="M259.676,276.433c0,0,0.236,2.418,1.238,4.187c3.014-1.012,23.894-5.569,28.136-5.686
				c0.927-2.061-0.263-4.709-0.158-4.723C288.892,270.21,270.442,272.155,259.676,276.433z"/>
		</g>
		<path style="fill:#263238;" d="M351.317,310.147l-6.994-5.892c-0.254-0.214-0.326-0.577-0.172-0.872l3.432-6.569
			c0.356-0.681,1.265-0.845,1.844-0.339c2.406,2.099,3.472,3.242,6.547,5.833c1.892,1.594,8.703,6.997,11.316,9.198
			c2.556,2.153,0.777,5.073-0.49,4.405c-5.68-2.992-11.454-5.382-14.152-5.295C352.163,310.632,351.689,310.461,351.317,310.147z"/>
		<path style="fill:#407BFF;" d="M355.022,313.038c-0.037,0.049-0.078,0.097-0.124,0.145c-0.233,0.244-0.476,0.251-0.638,0.214
			c-0.984-0.226-1.913-2.963-2.088-3.509c-0.028-0.089-0.002-0.183,0.069-0.244c0.07-0.06,0.169-0.072,0.251-0.031
			c0.954,0.477,2.582,1.436,2.768,2.502C355.316,312.445,355.237,312.754,355.022,313.038z M352.795,310.291
			c0.435,1.181,1.103,2.553,1.567,2.659c0.05,0.011,0.114,0.01,0.205-0.085c0.201-0.21,0.283-0.433,0.241-0.672
			C354.712,311.645,353.972,310.951,352.795,310.291z"/>
		<path style="fill:#407BFF;" d="M352.453,313.525c-0.041,0.054-0.085,0.101-0.133,0.14c-0.138,0.112-0.429,0.26-0.837-0.007
			c-0.261-0.17-0.424-0.419-0.484-0.742c-0.228-1.216,1.146-3.15,1.204-3.232c0.05-0.073,0.131-0.104,0.215-0.094
			c0.083,0.011,0.154,0.066,0.185,0.144C352.931,310.575,353.034,312.759,352.453,313.525z M352.303,310.363
			c-0.418,0.678-0.982,1.787-0.854,2.468c0.037,0.197,0.13,0.342,0.284,0.443c0.189,0.123,0.263,0.063,0.299,0.034
			C352.421,312.995,352.503,311.377,352.303,310.363z"/>
		<path style="fill:#263238;" d="M241.463,140.4c0.079,0.652-0.202,1.222-0.628,1.274c-0.426,0.052-0.836-0.435-0.915-1.086
			c-0.079-0.652,0.202-1.222,0.628-1.274C240.975,139.262,241.384,139.748,241.463,140.4z"/>
		<path style="fill:#263238;" d="M234.096,141.294c0.079,0.652-0.202,1.222-0.628,1.274c-0.426,0.052-0.836-0.435-0.915-1.086
			c-0.079-0.652,0.202-1.222,0.628-1.274C233.608,140.156,234.017,140.643,234.096,141.294z"/>
		<path style="fill:#ED893E;" d="M236.478,141.334c0,0-1.026,3.94-2.437,5.952c1.284,0.936,3.184,0.206,3.184,0.206L236.478,141.334
			z"/>
		<path style="fill:#263238;" d="M239.32,149.063c-0.096,0-0.179-0.072-0.191-0.169c-0.013-0.106,0.062-0.202,0.168-0.215
			c2.862-0.348,3.954-2.508,3.964-2.529c0.047-0.096,0.162-0.136,0.258-0.088c0.096,0.047,0.135,0.162,0.088,0.258
			c-0.047,0.097-1.197,2.37-4.264,2.742C239.335,149.063,239.328,149.063,239.32,149.063z"/>
		<path style="fill:#263238;" d="M243.348,137.757c-0.101,0-0.201-0.04-0.277-0.118c-1.183-1.224-2.552-0.991-2.609-0.98
			c-0.207,0.039-0.41-0.099-0.449-0.308c-0.039-0.209,0.096-0.409,0.305-0.45c0.074-0.014,1.826-0.332,3.308,1.201
			c0.148,0.153,0.144,0.397-0.009,0.545C243.541,137.721,243.445,137.757,243.348,137.757z"/>
		<path style="fill:#263238;" d="M230.518,139.158c-0.042,0-0.084-0.007-0.125-0.021c-0.202-0.07-0.308-0.289-0.239-0.49
			c0.694-2.017,2.416-2.471,2.489-2.489c0.208-0.051,0.416,0.074,0.468,0.28c0.052,0.206-0.073,0.415-0.279,0.467
			c-0.062,0.016-1.396,0.386-1.949,1.992C230.827,139.058,230.678,139.158,230.518,139.158z"/>
		<path style="fill:#FFB573;" d="M279.404,171.865c2.433,4.792,4.578,9.549,6.578,14.505c0.971,2.483,1.934,4.98,2.781,7.567
			c0.842,2.593,1.66,5.214,2.242,8.124c0.147,0.727,0.273,1.493,0.384,2.277c0.101,0.834,0.183,1.595,0.199,2.673
			c0.014,1.43-0.344,3.077-1.095,4.419c-0.731,1.365-1.73,2.352-2.664,3.063c-1.906,1.415-3.622,1.962-5.216,2.415
			c-1.599,0.419-3.1,0.613-4.56,0.749c-5.828,0.443-11.102-0.176-16.491-1.297l0.526-5.865l3.727-0.313
			c1.25-0.121,2.493-0.274,3.722-0.415c2.451-0.314,4.869-0.689,7.073-1.242c1.097-0.27,2.139-0.606,3.009-0.977
			c0.859-0.347,1.58-0.818,1.694-1.042c0.07-0.105-0.043-0.099-0.187,0.107c-0.138,0.196-0.244,0.53-0.258,0.669
			c0.002,0.049-0.008-0.027-0.016-0.072l-0.022-0.145l-0.04-0.289l-0.133-0.683c-0.114-0.491-0.236-0.996-0.388-1.53
			c-0.613-2.133-1.422-4.44-2.332-6.721c-0.91-2.288-1.868-4.604-2.889-6.903c-2.008-4.599-4.167-9.271-6.29-13.785L279.404,171.865
			z"/>
		<path style="fill:#FFB573;" d="M264.954,211.932l-3.372-4.347c-1.77-2.282-5.104-2.583-7.255-0.657h0
			c-2.862,2.564-1.865,7.263,1.79,8.45c1.831,0.595,3.787,1.072,5.611,1.207L264.954,211.932z"/>
		<path style="fill:#407BFF;" d="M272.733,166.206c12.436,1.728,16.322,23.051,16.322,23.051l-13.831,7.225
			c0,0-6.468-6.331-11.16-15.228C259.147,171.933,264.465,165.057,272.733,166.206z"/>
	</g>
</g>
</svg>
