<?xml version="1.0" encoding="utf-8"?>
<!-- Generator: Adobe Illustrator 27.5.0, SVG Export Plug-In . SVG Version: 6.00 Build 0)  -->
<svg version="1.1" xmlns="http://www.w3.org/2000/svg" xmlns:xlink="http://www.w3.org/1999/xlink" x="0px" y="0px"
	 viewBox="0 0 500 500" style="enable-background:new 0 0 500 500;" xml:space="preserve">
<g id="Background_Complete">
	<g>
		<rect y="382.398" style="fill:#EBEBEB;" width="500" height="0.25"/>
		<rect x="52.459" y="391.922" style="fill:#EBEBEB;" width="33.122" height="0.25"/>
		<rect x="171.14" y="389.208" style="fill:#EBEBEB;" width="46.749" height="0.25"/>
		<rect x="112.804" y="399.653" style="fill:#EBEBEB;" width="19.192" height="0.25"/>
		<rect x="312.333" y="395.306" style="fill:#EBEBEB;" width="30.208" height="0.25"/>
		<rect x="351.444" y="395.306" style="fill:#EBEBEB;" width="19.319" height="0.25"/>
		<rect x="391.346" y="399.528" style="fill:#EBEBEB;" width="58.556" height="0.25"/>
		<path style="fill:#EBEBEB;" d="M237.014,337.8H43.915c-3.147,0-5.708-2.56-5.708-5.708V60.66c0-3.147,2.561-5.708,5.708-5.708
			h193.099c3.146,0,5.707,2.561,5.707,5.708v271.432C242.721,335.239,240.16,337.8,237.014,337.8z M43.915,55.203
			c-3.01,0-5.458,2.448-5.458,5.458v271.432c0,3.01,2.448,5.458,5.458,5.458h193.099c3.009,0,5.457-2.448,5.457-5.458V60.66
			c0-3.009-2.448-5.458-5.457-5.458H43.915z"/>
		<path style="fill:#EBEBEB;" d="M453.31,337.8H260.212c-3.147,0-5.707-2.56-5.707-5.708V60.66c0-3.147,2.561-5.708,5.707-5.708
			H453.31c3.148,0,5.708,2.561,5.708,5.708v271.432C459.019,335.239,456.458,337.8,453.31,337.8z M260.212,55.203
			c-3.009,0-5.457,2.448-5.457,5.458v271.432c0,3.01,2.448,5.458,5.457,5.458H453.31c3.01,0,5.458-2.448,5.458-5.458V60.66
			c0-3.009-2.448-5.458-5.458-5.458H260.212z"/>
	</g>
	<g>
		<g>
			
				<ellipse transform="matrix(0.2461 -0.9692 0.9692 0.2461 163.5662 344.2345)" style="fill:#FAFAFA;" cx="303.062" cy="66.974" rx="31.02" ry="31.02"/>
			<path style="fill:#F5F5F5;" d="M425.827,80.002c0.161-0.017,0.312-0.068,0.45-0.152c4.225-2.581,9.839-4.328,14.72-4.328
				c5.483,0,8.462,2.203,7.936,5.324c-0.13,0.773,0.512,1.453,1.289,1.346c0.664-0.091,1.32-0.139,1.955-0.139
				c4.395,0,6.154,2.312,3.938,5.159c-0.112,0.143-0.233,0.287-0.361,0.428c-0.213,0.235-0.523,0.359-0.839,0.359h-40.828
				c-0.948,0-1.515-1.092-0.935-1.841c0.005-0.007,0.01-0.013,0.015-0.019C415.549,83.074,420.932,80.53,425.827,80.002z"/>
			<path style="fill:#F5F5F5;" d="M188.506,226.682c0.161-0.017,0.312-0.068,0.45-0.153c4.225-2.581,9.839-4.328,14.72-4.328
				c5.483,0,8.462,2.204,7.936,5.324c-0.13,0.773,0.512,1.453,1.289,1.346c0.664-0.091,1.32-0.139,1.955-0.139
				c4.395,0,6.154,2.312,3.938,5.159c-0.112,0.143-0.233,0.287-0.361,0.428c-0.212,0.235-0.523,0.359-0.839,0.359h-40.828
				c-0.948,0-1.515-1.092-0.935-1.841c0.005-0.007,0.01-0.013,0.015-0.019C178.228,229.755,183.61,227.21,188.506,226.682z"/>
			<path style="fill:#F5F5F5;" d="M185.348,38.862c0.161-0.017,0.311-0.068,0.45-0.152c4.225-2.581,9.839-4.328,14.72-4.328
				c5.483,0,8.463,2.203,7.936,5.324c-0.13,0.773,0.512,1.453,1.289,1.346c0.664-0.091,1.32-0.139,1.955-0.139
				c4.395,0,6.154,2.312,3.938,5.159c-0.112,0.143-0.232,0.287-0.361,0.428c-0.212,0.235-0.523,0.359-0.839,0.359h-40.828
				c-0.948,0-1.515-1.092-0.935-1.841c0.005-0.007,0.01-0.013,0.015-0.019C175.07,41.934,180.452,39.39,185.348,38.862z"/>
			<path style="fill:#F5F5F5;" d="M408.687,96.552c-0.005,0-0.009,0-0.014,0c-0.71,0.001-1.304-0.487-1.456-1.181
				c-0.55-2.518-3.616-4.185-8.582-4.185c-1.075,0-2.184,0.077-3.304,0.225c-0.75,0.099-1.428-0.394-1.609-1.129
				c-0.819-3.324-4.941-5.512-11.557-5.512c-8.97,0-19.631,4.027-25.854,9.451c-0.21,0.183-0.462,0.297-0.738,0.336
				c-5.717,0.808-11.821,3.788-14.585,7.339c-0.303,0.39-0.559,0.779-0.763,1.153h73.349l0.036-0.046
				C416.384,99.443,414.177,96.552,408.687,96.552z"/>
			<path style="fill:#F5F5F5;" d="M68.707,186.74c-0.003,0-0.006,0-0.008,0c-0.435,0-0.799-0.299-0.892-0.724
				c-0.337-1.543-2.216-2.565-5.26-2.565c-0.659,0-1.338,0.047-2.025,0.138c-0.46,0.061-0.875-0.242-0.986-0.692
				c-0.502-2.037-3.028-3.379-7.083-3.379c-5.498,0-12.032,2.468-15.846,5.792c-0.129,0.112-0.283,0.182-0.452,0.206
				c-3.504,0.495-7.245,2.322-8.939,4.498c-0.186,0.239-0.342,0.477-0.468,0.707h44.956l0.022-0.028
				C73.424,188.512,72.072,186.74,68.707,186.74z"/>
		</g>
		<g>
			<path style="fill:#E6E6E6;" d="M123.444,235.444c-9.708-50.268,44.222-102,32.222-119.333c-12-17.333-63.333-38.778-42.863-2.111
				c20.471,36.667-2.471,57.333-29.804,123.667c-27.333,66.333-15.666,130-9.834,144.732h78.5
				C156.333,349.667,139.036,316.175,123.444,235.444z"/>
			<path style="fill:#E6E6E6;" d="M120.859,250c15.917-41.096,43.982-65.931,53.496-82.305c9.514-16.374,49.424-30.227,26.867-0.251
				c-22.557,29.977-52.969,32.686-41.153,86.916c11.816,54.23,22.704,115.994,15.597,128.038h-64.177
				C112.87,355.639,95.296,316,120.859,250z"/>
			<g>
				<path style="fill:#E6E6E6;" d="M220.814,141.839c9.923-1.393,55.364,28.493,27.093,33.031
					C219.637,179.408,201.408,144.563,220.814,141.839z"/>
				<path style="fill:#E6E6E6;" d="M207.749,134.112c8.965-4.476,61.55,9.408,36.19,22.701
					C218.58,170.105,190.217,142.866,207.749,134.112z"/>
				<path style="fill:#E6E6E6;" d="M200.34,125.415c10.018,0.204,50.122,36.942,21.49,36.922
					C193.198,162.318,180.747,125.016,200.34,125.415z"/>
				<path style="fill:#E6E6E6;" d="M198.13,128.221c-9.102-4.189-61.22,11.361-35.45,23.84
					C188.449,164.54,215.932,136.413,198.13,128.221z"/>
				<path style="fill:#E6E6E6;" d="M211.432,147.657c12.979,1.66,59.933,54.944,22.761,50.932
					C197.02,194.576,186.049,144.41,211.432,147.657z"/>
				<path style="fill:#E6E6E6;" d="M205.411,149.566c10.339,8.02,23.74,77.765-6.249,55.435
					C169.174,182.671,185.191,133.882,205.411,149.566z"/>
				<path style="fill:#E6E6E6;" d="M180.943,147.237c-10.005,3.894-36.833,55.628-8.029,45.065
					C201.717,181.74,200.51,139.621,180.943,147.237z"/>
				<path style="fill:#E6E6E6;" d="M180.342,142.616c-9.805-4.374-65.45,12.938-37.684,25.986
					C170.425,181.65,199.518,151.171,180.342,142.616z"/>
			</g>
			<g>
				<path style="fill:#F0F0F0;" d="M109.93,79.089c-14.277-5.46-92.044,23.45-51.563,39.854
					C98.847,135.347,137.851,89.769,109.93,79.089z"/>
				<path style="fill:#F0F0F0;" d="M131.993,72.065c-11.799-9.717-94.723-7.037-61.56,21.388
					C103.596,121.878,155.069,91.068,131.993,72.065z"/>
				<path style="fill:#F0F0F0;" d="M145.98,61.665c-14.964-3.118-87.138,37.802-44.562,47.553S175.245,67.764,145.98,61.665z"/>
				<path style="fill:#F0F0F0;" d="M148.307,66.591c14.964-3.118,87.138,37.802,44.562,47.553
					C150.294,123.896,119.042,72.69,148.307,66.591z"/>
				<path style="fill:#F0F0F0;" d="M121.892,90.944c-19.863-1.965-107.874,61.216-51.237,67.948
					C127.292,165.623,160.738,94.787,121.892,90.944z"/>
				<path style="fill:#F0F0F0;" d="M130.191,95.839c-18.11,8.391-61.858,107.507-9.645,84.552
					C172.758,157.436,165.609,79.428,130.191,95.839z"/>
				<path style="fill:#F0F0F0;" d="M167.365,100.735c13.545,9.207,35.759,95.285-3.456,69.743
					C124.692,144.936,140.874,82.728,167.365,100.735z"/>
				<path style="fill:#F0F0F0;" d="M169.836,94.07c16.071-3.154,92.888,41.592,47.15,51.507
					C171.247,155.491,138.404,100.238,169.836,94.07z"/>
			</g>
		</g>
		<g>
			<path style="fill:#E6E6E6;" d="M384.14,264.581c-7.783-40.301,35.454-81.777,25.834-95.673
				c-9.621-13.897-50.776-31.089-34.364-1.693c16.412,29.397-1.981,45.966-23.895,99.147
				c-21.914,53.182-12.56,104.225-7.884,116.036h62.936C410.508,356.156,396.641,329.305,384.14,264.581z"/>
			<path style="fill:#E6E6E6;" d="M350.63,276.25c-12.761-32.948-35.262-52.859-42.889-65.987
				c-7.627-13.127-39.625-24.234-21.54-0.201c18.084,24.033,42.467,26.205,32.994,69.683
				c-9.473,43.478-18.203,92.996-12.505,102.652h51.453C357.035,360.944,371.124,329.165,350.63,276.25z"/>
			<g>
				<path style="fill:#E6E6E6;" d="M318.862,174.995c7.555-7.114,63.848-9.036,42.665,11.714
					C340.343,207.458,304.087,188.908,318.862,174.995z"/>
				<path style="fill:#E6E6E6;" d="M303.195,176.28c4.9-9.147,57.661-28.87,44.175-2.461
					C333.884,200.227,293.611,194.169,303.195,176.28z"/>
				<path style="fill:#E6E6E6;" d="M291.728,173.36c8.591-5.821,64.472,1.242,40.256,18.355S274.927,184.744,291.728,173.36z"/>
				<path style="fill:#E6E6E6;" d="M291.538,177.054c-10.201,1.905-44.956,46.23-15.705,41.362
					C305.083,213.549,311.488,173.329,291.538,177.054z"/>
				<path style="fill:#E6E6E6;" d="M314.411,185.526c11.965-6.361,83.537,10.591,49.712,29.438S291.011,197.967,314.411,185.526z"/>
				<path style="fill:#E6E6E6;" d="M310.464,190.742c13.538,0.594,66.593,51.536,27.883,50.601
					C299.636,240.408,283.988,189.581,310.464,190.742z"/>
				<path style="fill:#E6E6E6;" d="M288.386,203.413c-6.128,9.278,2.144,69.061,20.174,42.899
					C326.59,220.151,300.371,185.268,288.386,203.413z"/>
				<path style="fill:#E6E6E6;" d="M285.114,199.865c-10.905,2.168-47.588,50.094-16.309,44.512S306.442,195.625,285.114,199.865z"
					/>
			</g>
			<g>
				<path style="fill:#F0F0F0;" d="M419.379,149.128c12.242,0.564,60.12,46.741,25.114,45.817
					C409.487,194.021,395.438,148.024,419.379,149.128z"/>
				<path style="fill:#F0F0F0;" d="M405.418,136.892c11.786-3.358,71.863,25.197,38.38,35.453
					C410.316,182.601,382.368,143.459,405.418,136.892z"/>
				<path style="fill:#F0F0F0;" d="M398.474,124.766c11.996,2.506,51.914,55.714,17.501,49.23
					C381.562,167.513,375.013,119.865,398.474,124.766z"/>
				<path style="fill:#F0F0F0;" d="M395.184,127.64c-9.996-7.089-76.152-0.157-47.992,20.658S414.734,141.504,395.184,127.64z"/>
				<path style="fill:#F0F0F0;" d="M406.788,154.004c15.226,4.924,59.645,79.568,15.867,66.357
					C378.878,207.15,377.01,144.374,406.788,154.004z"/>
				<path style="fill:#F0F0F0;" d="M399.121,154.94c10.618,11.972,10.99,98.832-20.019,65.225S378.354,131.526,399.121,154.94z"/>
				<path style="fill:#F0F0F0;" d="M370.234,146.62c-12.905,2.423-56.825,58.556-19.819,52.358
					C387.421,192.781,395.473,141.881,370.234,146.62z"/>
				<path style="fill:#F0F0F0;" d="M370.555,140.93c-10.799-7.47-81.592,0.784-51.16,22.734S391.674,155.54,370.555,140.93z"/>
			</g>
		</g>
	</g>
</g>
<g id="Background_Simple" style="display:none;">
	<g style="display:inline;">
		<path style="fill:#407BFF;" d="M79.947,175.104c-1.644-58.254,51.629-56.081,83.501-47.169
			c39.663,11.091,68.409,23.885,110.454,12.341c33.626-9.232,72.331-28.753,97.675,8.023c20.774,30.144,9.022,72.116-14.912,98.496
			c-21.289,23.466-51.669,29.337-72.634,54.094c-13.436,15.865-24.666,34.682-40.421,47.671
			c-17.032,14.041-38.793,14.423-56.855,5.637c-31.383-15.266-37.201-54.254-53.705-84.806
			C117.059,239.788,81.024,213.268,79.947,175.104z"/>
		<path style="opacity:0.9;fill:#FFFFFF;" d="M79.947,175.104c-1.644-58.254,51.629-56.081,83.501-47.169
			c39.663,11.091,68.409,23.885,110.454,12.341c33.626-9.232,72.331-28.753,97.675,8.023c20.774,30.144,9.022,72.116-14.912,98.496
			c-21.289,23.466-51.669,29.337-72.634,54.094c-13.436,15.865-24.666,34.682-40.421,47.671
			c-17.032,14.041-38.793,14.423-56.855,5.637c-31.383-15.266-37.201-54.254-53.705-84.806
			C117.059,239.788,81.024,213.268,79.947,175.104z"/>
	</g>
</g>
<g id="Shadow_1_">
	<ellipse id="_x3C_Path_x3E__182_" style="fill:#F5F5F5;" cx="250" cy="416.238" rx="193.889" ry="11.323"/>
</g>
<g id="Plants">
	<g>
		<g>
			<path style="fill:#407BFF;" d="M414.125,340.67c-2.184,1.743-4.248,3.573-6.215,5.461c0.565-1.321,1.125-2.64,1.67-3.956
				c20.185-48.69,5.413-64.516-17.735-28.344c1.947-12.289,2.928-23.927,2.246-33.58c-3.113-44.089-28.113-29.267-32.625,22.048
				c-0.51,5.809-1.202,12.95-1.993,20.761c-0.573-5.274-1.377-10.474-2.47-15.49c-9.609-44.088-32.424-29.267-29.376,22.048
				c1.681,28.306,8.583,67.681,10.409,77.761c0.256,1.411,1.482,2.425,2.917,2.425h9.051h4.125h5.973h5.549h8.216h1.883h7.953
				c1.11,0,2.123-0.615,2.634-1.601c3.133-6.052,15.162-28.076,32.805-45.525C451.552,330.624,446.284,315.007,414.125,340.67z"/>
			<path style="opacity:0.2;" d="M414.125,340.67c-2.184,1.743-4.248,3.573-6.215,5.461c0.565-1.321,1.125-2.64,1.67-3.956
				c20.185-48.69,5.413-64.516-17.735-28.344c1.947-12.289,2.928-23.927,2.246-33.58c-3.113-44.089-28.113-29.267-32.625,22.048
				c-0.51,5.809-1.202,12.95-1.993,20.761c-0.573-5.274-1.377-10.474-2.47-15.49c-9.609-44.088-32.424-29.267-29.376,22.048
				c1.681,28.306,8.583,67.681,10.409,77.761c0.256,1.411,1.482,2.425,2.917,2.425h9.051h4.125h5.973h5.549h8.216h1.883h7.953
				c1.11,0,2.123-0.615,2.634-1.601c3.133-6.052,15.162-28.076,32.805-45.525C451.552,330.624,446.284,315.007,414.125,340.67z"/>
		</g>
		<g>
			<path style="fill:#407BFF;" d="M301.763,372.572c0.27,1.081,0.691,2.212,1.32,3.407c8.382,15.915,27.342-1.39,33.338-17.559
				c-10.895-2.737-25.292-1.207-31.694,4.589l6.077-19.605c0.271,1.081,0.691,2.213,1.32,3.408
				c8.382,15.915,27.342-1.39,33.338-17.559c-10.895-2.737-25.292-1.207-31.693,4.589l6.078-19.605
				c0.271,1.081,0.691,2.213,1.32,3.408c8.382,15.915,27.342-1.39,33.338-17.559c-10.895-2.737-25.292-1.207-31.693,4.589
				l6.078-19.605c0.271,1.081,0.69,2.212,1.32,3.408c8.382,15.915,27.342-1.39,33.338-17.559
				c-10.895-2.737-25.292-1.207-31.693,4.589l6.077-19.605c0.271,1.081,0.691,2.213,1.32,3.408
				c8.382,15.915,27.342-1.39,33.338-17.559c-10.895-2.737-25.292-1.207-31.694,4.589l6.078-19.605
				c0.271,1.081,0.69,2.212,1.32,3.408c8.382,15.915,27.342-1.39,33.338-17.56c-10.895-2.737-25.292-1.207-31.694,4.589l2.173-7.007
				c12.266-4.044,2.696-20.868-8.255-28.106c-5.732,11.143-6.094,29.292,4.911,28.762l-5.638,18.187
				c-2-8.401-13.007-17.807-23.54-21.712c-4.202,16.726,1.644,41.721,17.559,33.338c1.195-0.629,2.181-1.325,3.017-2.063
				l-6.078,19.605c-2-8.401-13.007-17.807-23.54-21.712c-4.202,16.726,1.644,41.721,17.559,33.338
				c1.195-0.629,2.181-1.325,3.017-2.063l-6.078,19.605c-2-8.401-13.007-17.807-23.54-21.712
				c-4.202,16.726,1.644,41.721,17.559,33.338c1.195-0.629,2.181-1.324,3.017-2.063l-6.078,19.605
				c-2-8.401-13.007-17.806-23.54-21.712c-4.202,16.725,1.644,41.72,17.559,33.337c1.195-0.629,2.181-1.325,3.017-2.063
				l-6.078,19.605c-2-8.401-13.007-17.806-23.54-21.712c-4.202,16.725,1.644,41.72,17.559,33.338
				c1.195-0.629,2.181-1.325,3.016-2.063l-6.078,19.605c-2-8.401-13.007-17.806-23.54-21.712
				c-4.202,16.725,1.644,41.72,17.559,33.338c1.195-0.629,2.181-1.324,3.016-2.063l-5.963,19.235
				c-0.244,0.788,0.201,1.633,0.989,1.877c0.789,0.245,1.633-0.201,1.878-0.988L301.763,372.572z"/>
			<path style="opacity:0.7;fill:#FFFFFF;" d="M301.763,372.572c0.27,1.081,0.691,2.212,1.32,3.407
				c8.382,15.915,27.342-1.39,33.338-17.559c-10.895-2.737-25.292-1.207-31.694,4.589l6.077-19.605
				c0.271,1.081,0.691,2.213,1.32,3.408c8.382,15.915,27.342-1.39,33.338-17.559c-10.895-2.737-25.292-1.207-31.693,4.589
				l6.078-19.605c0.271,1.081,0.691,2.213,1.32,3.408c8.382,15.915,27.342-1.39,33.338-17.559
				c-10.895-2.737-25.292-1.207-31.693,4.589l6.078-19.605c0.271,1.081,0.69,2.212,1.32,3.408
				c8.382,15.915,27.342-1.39,33.338-17.559c-10.895-2.737-25.292-1.207-31.693,4.589l6.077-19.605
				c0.271,1.081,0.691,2.213,1.32,3.408c8.382,15.915,27.342-1.39,33.338-17.559c-10.895-2.737-25.292-1.207-31.694,4.589
				l6.078-19.605c0.271,1.081,0.69,2.212,1.32,3.408c8.382,15.915,27.342-1.39,33.338-17.56
				c-10.895-2.737-25.292-1.207-31.694,4.589l2.173-7.007c12.266-4.044,2.696-20.868-8.255-28.106
				c-5.732,11.143-6.094,29.292,4.911,28.762l-5.638,18.187c-2-8.401-13.007-17.807-23.54-21.712
				c-4.202,16.726,1.644,41.721,17.559,33.338c1.195-0.629,2.181-1.325,3.017-2.063l-6.078,19.605
				c-2-8.401-13.007-17.807-23.54-21.712c-4.202,16.726,1.644,41.721,17.559,33.338c1.195-0.629,2.181-1.325,3.017-2.063
				l-6.078,19.605c-2-8.401-13.007-17.807-23.54-21.712c-4.202,16.726,1.644,41.721,17.559,33.338
				c1.195-0.629,2.181-1.324,3.017-2.063l-6.078,19.605c-2-8.401-13.007-17.806-23.54-21.712
				c-4.202,16.725,1.644,41.72,17.559,33.337c1.195-0.629,2.181-1.325,3.017-2.063l-6.078,19.605
				c-2-8.401-13.007-17.806-23.54-21.712c-4.202,16.725,1.644,41.72,17.559,33.338c1.195-0.629,2.181-1.325,3.016-2.063
				l-6.078,19.605c-2-8.401-13.007-17.806-23.54-21.712c-4.202,16.725,1.644,41.72,17.559,33.338
				c1.195-0.629,2.181-1.324,3.016-2.063l-5.963,19.235c-0.244,0.788,0.201,1.633,0.989,1.877c0.789,0.245,1.633-0.201,1.878-0.988
				L301.763,372.572z"/>
		</g>
		<path style="fill:#407BFF;" d="M242.635,401.816c-30.442-20.213-124.694-88.744-158.266-182.512
			c0.284,7.555,3.009,16.883,7.647,27.37c-6.654-6.311-18.42-18.43-29.667-34.794c7.687,21.401,21.112,36.292,30.112,44.46
			c-7.7-5.73-18.168-14.321-28.728-25.474c13.559,24.773,34.293,38.247,42.925,43.051c0.028,0.045,0.054,0.09,0.082,0.136
			c-9.533-4.76-29.289-15.636-50.631-33.402c11.175,16.667,24.667,28.483,36.671,36.627c-8.067-4.433-17.036-10.022-25.934-16.879
			c11.99,17.157,28.084,30.087,41.582,38.905c-14.831-7.655-33.155-18.175-51.216-31.31c26.451,36.416,73.977,54.871,89.204,60.046
			c0.007,0.008,0.014,0.017,0.021,0.025c-15.236-4.82-49.393-16.744-85.295-36.803c16.83,18.177,38.572,31.032,58.326,39.871
			c-13.451-4.797-28.285-10.852-42.781-18.294c21.912,22.546,55.383,38.345,79.719,47.661
			c-15.564-4.373-34.325-11.024-52.906-21.004c15.765,19.001,38.302,29.748,58.19,35.82c-14.251-3.468-30.457-8.307-46.677-15.005
			c20.035,19.699,47.918,28.863,70.159,33.121c-16.477-1.979-36.784-5.52-56.44-11.87c37.178,31.884,104.437,28.364,104.437,28.364
			l7.667-0.79C244.575,408.752,245.767,403.896,242.635,401.816z"/>
		<g>
			<path style="fill:#407BFF;" d="M288.549,363.126c-4.083-8.699-8.639-17.804-13.634-27.226l-9.93,10.784l6.36-17.431
				c-4.607-8.476-9.537-17.172-14.814-26.057c0,0,0,0-0.001,0l-10.804,11.91l7.571-17.303c-5.759-9.535-11.642-18.849-17.583-27.867
				l-8.617,12.217l2.792-20.942c-5.448-8.044-10.925-15.815-16.378-23.265l-8.308,13.773l3.383-20.42
				c-7.18-9.575-14.294-18.551-21.223-26.794l-7.707,10.028l2.915-15.646c-8.351-9.644-16.386-18.156-23.886-25.278l-3.213,9.615
				l-0.198-12.787c-14.739-13.454-27.193-21.179-35.598-21.179c-8.2,0-11.531,7.356-10.546,20.221l23.485,13.536l-22.76-7.416
				c1.226,7.847,3.706,17.241,7.338,27.877l28.246,14.834l-24.868-5.463c3.87,10.226,8.663,21.399,14.318,33.309l28.254,12.472
				l-24.543-4.801c4.742,9.623,10.01,19.671,15.772,30.042l29.741,9.899l-24.411-0.469c1.94,3.38,3.925,6.787,5.963,10.224
				c2.377,4.008,4.784,7.967,7.205,11.897l29.079,9.782l-25.165-3.487c4.572,7.281,9.2,14.406,13.855,21.341l30.021,11.062
				l-24.605-3.1c6.489,9.422,12.999,18.442,19.451,26.974l29.129,7.058l-24.482-0.985c4.878,6.3,9.71,12.312,14.455,17.98
				c4.081,4.874,10.118,7.997,15.488,7.997H294c7.592,0,11.428-6.147,8.611-13.739c-3.239-8.73-7.172-18.18-11.754-28.208
				l-12.177,9.046L288.549,363.126z"/>
			<path style="opacity:0.4;fill:#FFFFFF;" d="M288.549,363.126c-4.083-8.699-8.639-17.804-13.634-27.226l-9.93,10.784l6.36-17.431
				c-4.607-8.476-9.537-17.172-14.814-26.057c0,0,0,0-0.001,0l-10.804,11.91l7.571-17.303c-5.759-9.535-11.642-18.849-17.583-27.867
				l-8.617,12.217l2.792-20.942c-5.448-8.044-10.925-15.815-16.378-23.265l-8.308,13.773l3.383-20.42
				c-7.18-9.575-14.294-18.551-21.223-26.794l-7.707,10.028l2.915-15.646c-8.351-9.644-16.386-18.156-23.886-25.278l-3.213,9.615
				l-0.198-12.787c-14.739-13.454-27.193-21.179-35.598-21.179c-8.2,0-11.531,7.356-10.546,20.221l23.485,13.536l-22.76-7.416
				c1.226,7.847,3.706,17.241,7.338,27.877l28.246,14.834l-24.868-5.463c3.87,10.226,8.663,21.399,14.318,33.309l28.254,12.472
				l-24.543-4.801c4.742,9.623,10.01,19.671,15.772,30.042l29.741,9.899l-24.411-0.469c1.94,3.38,3.925,6.787,5.963,10.224
				c2.377,4.008,4.784,7.967,7.205,11.897l29.079,9.782l-25.165-3.487c4.572,7.281,9.2,14.406,13.855,21.341l30.021,11.062
				l-24.605-3.1c6.489,9.422,12.999,18.442,19.451,26.974l29.129,7.058l-24.482-0.985c4.878,6.3,9.71,12.312,14.455,17.98
				c4.081,4.874,10.118,7.997,15.488,7.997H294c7.592,0,11.428-6.147,8.611-13.739c-3.239-8.73-7.172-18.18-11.754-28.208
				l-12.177,9.046L288.549,363.126z"/>
		</g>
	</g>
</g>
<g id="Character_1_">
	<g>
		<path style="fill:#CE7A63;" d="M285.765,171.756c1.605,5.452,3.152,10.962,4.658,16.451c1.505,5.484,2.995,10.999,4.542,16.339
			l0.567,1.887c-0.045-0.045-0.116-0.074-0.096,0.004c0.034,0.148,0.55,0.645,1.388,1.031c1.696,0.803,4.214,1.382,6.765,1.708
			c2.58,0.355,5.298,0.516,8.047,0.605c1.375,0.026,2.764,0.082,4.155,0.076l4.138-0.045l1.077,6.205
			c-5.84,1.658-11.626,2.724-17.928,2.867c-3.157,0.002-6.409-0.105-10.103-1.303c-1.827-0.633-3.904-1.536-5.833-3.497
			c-0.948-0.978-1.8-2.238-2.352-3.625l-0.85-2.173c-2.102-5.531-3.898-11.005-5.64-16.517c-1.722-5.514-3.325-11.03-4.789-16.626
			L285.765,171.756z"/>
		<path style="fill:#263238;" d="M270.72,168.914c-3.697,7.458,8.139,31.942,8.139,31.942l15.2-6.012c0,0-0.597-11.683-4.282-21.801
			C285.896,162.388,274.83,160.622,270.72,168.914z"/>
		<path style="opacity:0.2;" d="M270.341,169.861c3.585-1.193,7.221,0.611,10.261,7.461c2.999,6.778,4.825,17.899,4.727,20.977
			l-6.471,2.557C278.857,200.856,267.786,178.175,270.341,169.861z"/>
		<path style="fill:#CE7A63;" d="M318.05,210.621l4.57-3.707c2.399-1.946,5.945-1.45,7.717,1.081l0,0
			c2.358,3.367,0.176,8.019-3.919,8.366c-2.052,0.174-4.778,0.049-6.711-0.254L318.05,210.621z"/>
		<path style="fill:#263238;" d="M281.701,164.246c0,0,7.031,27.337-8.56,74.765l-46.227-5.614
			c0.484-6.361,7.423-34.137,6.948-64.371c-0.1-6.4,5.173-11.552,11.571-11.362c1.195,0.036,2.411,0.094,3.614,0.181
			c5.941,0.433,14.516,1.283,19.651,2.387C275.468,161.689,281.701,164.246,281.701,164.246z"/>
		<path style="opacity:0.2;" d="M242.095,161.133c-1.251-0.759-2.888-0.824-4.717-0.417c-2.203,2.075-3.572,5.027-3.519,8.311
			c0.096,5.722-0.086,11.359-0.439,16.771c1.947-1.251,4.139-2.856,6.396-4.856C248.255,173.476,249.731,165.765,242.095,161.133z"
			/>
		<path style="fill:#CE7A63;" d="M253.681,135.955c0.472,6.473,0.302,18.208-4.634,21.89c5.746,3.31,8.561,8.144,15.112,9.347
			c5.102,0.937,5.571-4.1,4.538-6.96c-6.846-2.54-6.029-7.749-4.204-12.512L253.681,135.955z"/>
		<path style="opacity:0.2;" d="M258.089,140.755l6.4,6.959c-0.436,1.127-0.808,2.278-1.029,3.414
			c-2.646-0.716-5.987-4.122-5.931-6.977C257.557,142.727,257.78,141.382,258.089,140.755z"/>
		<path style="fill:#CE7A63;" d="M254.085,126.349c-0.514,8.625-1.253,13.647,2.538,18.567c5.702,7.4,16.746,4.762,19.826-3.536
			c2.773-7.469,3.147-20.319-4.819-24.744C263.78,112.276,254.598,117.723,254.085,126.349z"/>
		<path style="fill:#263238;" d="M253.714,133.813c0,0,4.273-1.378,3.793-7.332c1.261-3.319,15.923-5.592,15.923-5.592
			s0.99,0.878,3.142-1.114c4.813-4.457-3.201-9.641-10.926-10.116c0.758,1.382,1.227,1.991,1.227,1.991s-10.422-1.679-16.647,1.723
			c1.159,0.416,2.199,0.386,2.199,0.386s-4.991,3.09-7.992,6.388c5.199,2.941,7.012,3.417,7.012,3.417l0.089,5.942L253.714,133.813z
			"/>
		<path style="fill:#407BFF;" d="M250.844,123.864c-0.247,1.139-0.579,3.561,0.417,5.703c0.278,0.597,1.006,0.836,1.602,0.555
			c2.718-1.283,8.467-4.552,15.045-5.865c3.544-0.707,6.447-0.544,8.171-0.309c0.869,0.118,1.566-0.706,1.324-1.549
			c-0.327-1.141-0.908-2.636-1.923-3.999c-0.219-0.295-0.568-0.479-0.932-0.52c-6.847-0.78-11.91-0.203-22.962,5.053
			C251.208,123.112,250.933,123.456,250.844,123.864z"/>
		<path style="fill:#CE7A63;" d="M249.072,135.316c0.976,2.116,2.837,3.584,4.644,4.217c2.718,0.953,4.262-1.433,3.663-4.095
			c-0.54-2.396-2.604-5.779-5.407-5.583C249.21,130.05,247.956,132.897,249.072,135.316z"/>
		<path style="fill:#CE7A63;" d="M255.098,239.011c0,0-18.638,60.582-29.675,84.748c-11.48,25.136-49.5,80.135-49.5,80.135
			l-6.831-4.47c0,0,25.975-55.55,36.663-80.486c4.457-15.597,23.59-84.107,23.59-84.107L255.098,239.011z"/>
		<path style="fill:#263238;" d="M178.833,400.891l-8.098-5.486c-0.295-0.2-0.688-0.168-0.947,0.077l-5.764,5.443
			c-0.598,0.565-0.501,1.547,0.187,1.997c2.86,1.867,3.78,2.766,7.341,5.179c2.191,1.484,9.01,7.886,12.657,8.125
			c3.566,0.234,3.981-2.659,1.783-3.431c-6.478-2.276-5.593-7.864-6.288-10.667C179.578,401.621,179.265,401.183,178.833,400.891z"
			/>
		<path style="fill:#FFFFFF;" d="M182.886,403.864c0.04-0.053,0.077-0.109,0.113-0.17c0.183-0.311,0.12-0.563,0.035-0.719
			c-0.519-0.947-3.605-1.108-4.219-1.129c-0.099-0.003-0.189,0.051-0.231,0.142c-0.042,0.09-0.025,0.195,0.041,0.268
			c0.768,0.843,2.229,2.241,3.38,2.122C182.361,404.34,182.656,404.168,182.886,403.864z M179.411,402.37
			c1.342,0.104,2.948,0.393,3.193,0.84c0.027,0.048,0.044,0.115-0.028,0.236c-0.158,0.268-0.364,0.417-0.622,0.443
			C181.362,403.95,180.432,403.39,179.411,402.37z"/>
		<path style="fill:#FFFFFF;" d="M182.64,401.079c0.044-0.058,0.079-0.117,0.105-0.177c0.075-0.174,0.143-0.517-0.25-0.86
			c-0.251-0.219-0.555-0.314-0.904-0.283c-1.318,0.119-2.909,2.095-2.976,2.179c-0.061,0.072-0.069,0.165-0.034,0.248
			c0.035,0.082,0.113,0.139,0.202,0.148C179.743,402.428,182.021,401.899,182.64,401.079z M179.343,401.843
			c0.576-0.627,1.554-1.53,2.292-1.597c0.214-0.019,0.39,0.035,0.539,0.163c0.182,0.159,0.142,0.252,0.122,0.297
			C182.086,401.2,180.444,401.755,179.343,401.843z"/>
		<path style="fill:#CE7A63;" d="M272.841,243.385c0,0,25.227,32.514,34.226,57.163c4.375,11.983-31.805,64.092-31.805,64.092
			l-4.502-6.632c-1.252,0.571,10.504-36.053,19.312-50.092c-15.805-22.944-40.967-49.971-40.967-49.971L272.841,243.385z"/>
		<path style="fill:#263238;" d="M277.12,362.473l-6.324-7.461c-0.23-0.272-0.618-0.347-0.933-0.181l-7.015,3.692
			c-0.728,0.383-0.899,1.355-0.357,1.973c2.253,2.567,3.478,3.703,6.259,6.984c1.711,2.019,7.511,9.287,9.874,12.074
			c2.311,2.727,5.428,0.815,4.71-0.538c-3.218-6.066-5.793-12.233-5.709-15.12C277.64,363.377,277.456,362.87,277.12,362.473z"/>
		<path style="fill:#FFFFFF;" d="M280.223,366.427c0.053-0.04,0.104-0.084,0.155-0.133c0.26-0.25,0.267-0.51,0.227-0.683
			c-0.245-1.052-3.175-2.036-3.76-2.223c-0.095-0.03-0.196-0.001-0.261,0.074c-0.064,0.075-0.076,0.181-0.032,0.269
			c0.513,1.019,1.544,2.758,2.685,2.953C279.589,366.744,279.92,366.658,280.223,366.427z M277.278,364.054
			c1.264,0.461,2.734,1.171,2.849,1.667c0.012,0.054,0.011,0.122-0.09,0.22c-0.224,0.216-0.462,0.304-0.718,0.26
			C278.732,366.1,277.988,365.31,277.278,364.054z"/>
		<path style="fill:#FFFFFF;" d="M280.732,363.629c0.058-0.044,0.108-0.091,0.149-0.143c0.119-0.147,0.276-0.46-0.01-0.896
			c-0.182-0.278-0.45-0.452-0.795-0.516c-1.301-0.24-3.366,1.235-3.453,1.298c-0.078,0.054-0.111,0.141-0.1,0.23
			c0.012,0.089,0.071,0.165,0.155,0.197C277.579,364.15,279.915,364.253,280.732,363.629z M277.35,363.478
			c0.724-0.449,1.908-1.056,2.637-0.921c0.211,0.039,0.366,0.138,0.475,0.302c0.132,0.202,0.069,0.281,0.038,0.319
			C280.166,363.597,278.435,363.689,277.35,363.478z"/>
		<path style="fill:#263238;" d="M273.141,239.011c0,0,12.915,18.219,20.163,34.287c-5.008,1.902-15.508,10.523-17.675,15.412
			c-17.003-16.935-34.02-35.104-34.02-35.104l12.819-16.867L273.141,239.011z"/>
		<path style="opacity:0.2;" d="M251.325,252.179l-1.101,10.51c3.422,3.594,7.658,7.99,12.257,12.717
			C258.994,263.021,251.325,252.179,251.325,252.179z"/>
		<path style="fill:#263238;" d="M263.159,237.798c0,0-20.863,43.092-24.68,51.941c-3.966-1.822-17.779-6.768-22.552-6.602
			c0.062-5.176,10.988-49.74,10.988-49.74L263.159,237.798z"/>
		<path style="fill:#263238;" d="M266.78,130.319c-0.085,0.697,0.216,1.307,0.672,1.362c0.456,0.055,0.894-0.465,0.978-1.162
			c0.085-0.697-0.216-1.307-0.672-1.362C267.303,129.101,266.865,129.622,266.78,130.319z"/>
		<path style="fill:#263238;" d="M274.66,131.276c-0.085,0.697,0.216,1.307,0.672,1.362c0.456,0.055,0.894-0.465,0.978-1.162
			c0.085-0.697-0.216-1.307-0.672-1.363C275.182,130.058,274.744,130.578,274.66,131.276z"/>
		<path style="fill:#BA4D3C;" d="M272.112,131.318c0,0,1.097,4.214,2.606,6.367c-1.373,1.001-3.406,0.221-3.406,0.221
			L272.112,131.318z"/>
		<path style="fill:#263238;" d="M269.073,139.585c0.103,0,0.192-0.077,0.204-0.181c0.014-0.113-0.067-0.216-0.18-0.23
			c-3.061-0.372-4.229-2.682-4.24-2.706c-0.05-0.102-0.173-0.145-0.276-0.094c-0.102,0.05-0.144,0.174-0.094,0.276
			c0.051,0.104,1.28,2.535,4.561,2.933C269.056,139.585,269.064,139.585,269.073,139.585z"/>
		<path style="fill:#263238;" d="M264.764,127.492c0.108,0,0.215-0.042,0.296-0.126c1.265-1.309,2.729-1.06,2.791-1.048
			c0.222,0.041,0.439-0.106,0.48-0.329c0.042-0.223-0.103-0.438-0.326-0.481c-0.079-0.015-1.953-0.355-3.538,1.285
			c-0.158,0.164-0.154,0.425,0.01,0.583C264.557,127.454,264.661,127.492,264.764,127.492z"/>
		<path style="fill:#263238;" d="M278.487,128.991c0.044,0,0.09-0.007,0.134-0.023c0.215-0.074,0.33-0.309,0.256-0.524
			c-0.742-2.157-2.584-2.642-2.662-2.662c-0.222-0.054-0.445,0.079-0.501,0.299c-0.055,0.22,0.078,0.444,0.298,0.5
			c0.066,0.018,1.493,0.413,2.084,2.131C278.156,128.884,278.316,128.991,278.487,128.991z"/>
		<path style="fill:#CE7A63;" d="M241.634,170.848c-5.253,1.839-10.654,3.777-15.873,5.776c-2.623,0.991-5.199,2.05-7.715,3.12
			c-2.486,1.08-4.957,2.258-6.959,3.444c-0.244,0.148-0.497,0.296-0.699,0.437c-0.221,0.144-0.438,0.286-0.595,0.41l-0.245,0.174
			c-0.017,0.015-0.038,0.006-0.067,0.036c-0.056,0.03-0.134,0.107-0.223,0.203c-0.36,0.392-0.855,1.253-1.241,2.259
			c-0.78,2.055-1.335,4.641-1.719,7.271c-0.399,2.648-0.641,5.405-0.833,8.189c-0.078,1.392-0.186,2.797-0.241,4.204l-0.143,4.191
			l-6.25,0.775c-1.401-5.919-2.23-11.773-2.274-18.014c0.021-3.123,0.18-6.31,1.063-9.795c0.468-1.746,1.062-3.602,2.362-5.582
			c0.329-0.493,0.692-0.99,1.134-1.483c0.206-0.245,0.459-0.49,0.699-0.729l0.582-0.526c0.386-0.352,0.749-0.64,1.112-0.923
			c0.37-0.3,0.72-0.548,1.075-0.804c2.816-2.007,5.524-3.429,8.253-4.823c2.717-1.377,5.454-2.59,8.187-3.76
			c5.498-2.312,10.957-4.329,16.665-6.138L241.634,170.848z"/>
		<path style="fill:#CE7A63;" d="M205.085,207.773l1.12,7.767c0.396,3.064-1.89,5.82-4.973,5.999l0,0
			c-4.103,0.238-6.916-4.062-5.059-7.729c0.93-1.838,2.043-3.68,3.315-5.166L205.085,207.773z"/>
		<path style="fill:#263238;" d="M251.325,159.869c-5.225-6.799-30.862,3.833-30.862,3.833l5.161,16.977
			c0,0,7.028,0.285,16.401-3.175C252.6,173.6,256.765,166.948,251.325,159.869z"/>
		<path style="fill:#407BFF;" d="M226.396,230.189l-0.709,3.715c-0.099,0.519,0.227,1.022,0.742,1.14
			c3.3,0.754,15.068,3.335,28.346,4.995c11.941,1.493,17.461,1.264,19.416,1.069c0.501-0.05,0.875-0.474,0.874-0.978l-0.007-3.43
			c-0.001-0.527-0.414-0.96-0.941-0.979c-3.748-0.131-18.795-0.972-46.565-6.309C227.02,229.309,226.497,229.656,226.396,230.189z"
			/>
	</g>
</g>
</svg>
