<?xml version="1.0" encoding="utf-8"?>
<!-- Generator: Adobe Illustrator 27.5.0, SVG Export Plug-In . SVG Version: 6.00 Build 0)  -->
<svg version="1.1" xmlns="http://www.w3.org/2000/svg" xmlns:xlink="http://www.w3.org/1999/xlink" x="0px" y="0px"
	 viewBox="0 0 500 500" style="enable-background:new 0 0 500 500;" xml:space="preserve">
<g id="Background_Complete">
	<g>
		<g>
			<g>
				<g>
					<g>
						<g>
							<g>
								<path style="fill:#F5F5F5;" d="M119.796,140.076c0.677-5.728-6.26-10.44-11.473-10.93c-2.486-0.234-5.068,0.209-7.423-0.747
									c-5.102-2.072-7.141-9.754-12.119-12.201c-3.722-1.829-8.007-0.201-11.615,1.915c-3.608,2.116-7.174,4.78-11.206,5.08
									c-3.507,0.262-7.314-1.254-10.382,0.742c-2.286,1.487-3.483,4.557-5.591,6.369c-2.062,1.772-4.751,2.147-7.308,2.309
									c-2.558,0.162-5.206,0.192-7.535,1.435c-2.329,1.243-4.256,4.113-3.772,7.044L119.796,140.076z"/>
							</g>
						</g>
					</g>
				</g>
			</g>
		</g>
	</g>
	<g>
		<g>
			<g>
				<g>
					<g>
						<g>
							<g>
								<g>
									<g>
										<g>
											<g>
												<polygon style="fill:#EBEBEB;" points="195.235,420.768 204.361,420.768 201.998,343.612 192.873,343.612 												
													"/>
											</g>
										</g>
									</g>
								</g>
							</g>
						</g>
					</g>
				</g>
				<g>
					<g>
						<g>
							<g>
								<g>
									<g>
										<g>
											<g>
												<path style="fill:#EBEBEB;" d="M198.496,160.486c0,1.057,24.492,66.608,24.492,66.608l-12.246-10.573l17.642,45.815
													l-11.623-13.745l13.699,57.445l-6.642-5.991l11.623,40.529l-9.963-10.573l9.963,30.308l-78.873-4.934l18.68-57.093
													l-11.282,10.573l14.602-41.586l-7.472,3.524l17.02-53.569l-7.887,4.582L198.496,160.486z"/>
											</g>
										</g>
									</g>
								</g>
							</g>
						</g>
					</g>
				</g>
			</g>
		</g>
		<g>
			<g>
				<g>
					<g>
						<g>
							<g>
								<g>
									<g>
										<g>
											<path style="fill:#F5F5F5;" d="M195.852,277.488c-0.026,0.009,0.112,0.35,0.391,0.971
												c0.315,0.678,0.727,1.568,1.232,2.659c1.119,2.325,2.645,5.497,4.416,9.178l0.194,0.403l0.245-0.385
												c1.154-1.816,2.269-3.87,3.219-6.075c0.352-0.816,0.672-1.628,0.951-2.404l-0.482,0.015
												c2.177,4.71,4.307,8.812,5.912,11.724c0.802,1.456,1.469,2.617,1.942,3.411c0.22,0.359,0.404,0.658,0.556,0.907
												c0.132,0.205,0.208,0.309,0.223,0.303c0.03-0.012-0.19-0.463-0.611-1.277c-0.454-0.874-1.06-2.04-1.799-3.463
												c-1.521-2.94-3.589-7.056-5.748-11.763l-0.266-0.579l-0.216,0.595c-0.279,0.768-0.597,1.573-0.946,2.381
												c-0.941,2.185-2.037,4.223-3.165,6.03l0.439,0.018c-1.839-3.657-3.424-6.807-4.586-9.117
												c-0.559-1.072-1.014-1.947-1.362-2.613C196.066,277.802,195.878,277.479,195.852,277.488z"/>
										</g>
									</g>
								</g>
							</g>
						</g>
					</g>
				</g>
			</g>
		</g>
		<g>
			<g>
				<g>
					<g>
						<g>
							<g>
								<g>
									<g>
										<g>
											<path style="fill:#F5F5F5;" d="M187.448,253.021c0.027,0.01,0.181-0.24,0.445-0.708c0.304-0.536,0.681-1.202,1.134-2.002
												c0.977-1.704,2.408-4.081,4.268-6.738l-0.451-0.053c0.394,1.29,0.819,2.679,1.259,4.12
												c0.278,0.897,0.551,1.775,0.812,2.62l0.182,0.588l0.293-0.554c1.681-3.178,3.138-5.977,4.16-7.987
												c0.473-0.951,0.867-1.743,1.181-2.372c0.267-0.559,0.4-0.87,0.371-0.881c-0.029-0.011-0.216,0.279-0.535,0.819
												c-0.35,0.615-0.791,1.389-1.319,2.319c-1.103,1.979-2.618,4.755-4.32,7.925l0.475,0.034
												c-0.259-0.846-0.529-1.725-0.804-2.622c-0.447-1.438-0.879-2.827-1.28-4.115l-0.152-0.489l-0.299,0.436
												c-1.842,2.685-3.222,5.099-4.124,6.839c-0.452,0.87-0.788,1.571-1.005,2.057
												C187.523,252.742,187.422,253.011,187.448,253.021z"/>
										</g>
									</g>
								</g>
							</g>
						</g>
					</g>
				</g>
			</g>
		</g>
		<g>
			<g>
				<g>
					<g>
						<g>
							<g>
								<g>
									<g>
										<g>
											<path style="fill:#F5F5F5;" d="M198.621,202.801c-0.055,0.027,0.473,0.9,1.392,2.328c0.92,1.429,2.232,3.413,3.748,5.661
												l0.345,0.512l0.123-0.582c0.138-0.652,0.281-1.327,0.427-2.017c0.245-1.193,0.481-2.34,0.7-3.403l-0.448,0.073
												c1.408,1.894,2.633,3.513,3.518,4.652c0.885,1.139,1.431,1.798,1.479,1.773c0.049-0.025-0.407-0.732-1.22-1.91
												c-0.813-1.177-1.983-2.826-3.362-4.734l-0.334-0.463l-0.114,0.536c-0.227,1.062-0.471,2.207-0.726,3.4
												c-0.143,0.691-0.283,1.366-0.418,2.018l0.468-0.07c-1.535-2.239-2.902-4.196-3.899-5.587
												C199.302,203.599,198.675,202.775,198.621,202.801z"/>
										</g>
									</g>
								</g>
							</g>
						</g>
					</g>
				</g>
			</g>
		</g>
	</g>
	<g>
		<path style="fill:#E0E0E0;" d="M471.102,421.874c0,0.144-98.999,0.26-221.091,0.26c-122.135,0-221.113-0.117-221.113-0.26
			c0-0.144,98.978-0.26,221.113-0.26C372.103,421.614,471.102,421.73,471.102,421.874z"/>
	</g>
	<g>
		<g>
			<g>
				<g>
					<g>
						<g>
							<g>
								<g>
									<g>
										<g>
											<g>
												<polygon style="fill:#EBEBEB;" points="73.702,423.924 82.827,423.924 80.465,346.768 71.34,346.768 												"/>
											</g>
										</g>
									</g>
								</g>
							</g>
						</g>
					</g>
				</g>
				<g>
					<g>
						<g>
							<g>
								<g>
									<g>
										<g>
											<g>
												<path style="fill:#EBEBEB;" d="M76.963,163.641c0,1.057,24.492,66.608,24.492,66.608l-12.246-10.573l17.643,45.815
													l-11.623-13.744l13.699,57.445l-6.642-5.991l11.623,40.529l-9.963-10.573l9.963,30.308l-78.873-4.934l18.68-57.093
													l-11.282,10.573l14.602-41.586l-7.472,3.524l17.02-53.568l-7.887,4.582L76.963,163.641z"/>
											</g>
										</g>
									</g>
								</g>
							</g>
						</g>
					</g>
				</g>
			</g>
		</g>
		<g>
			<g>
				<g>
					<g>
						<g>
							<g>
								<g>
									<g>
										<g>
											<path style="fill:#F5F5F5;" d="M74.318,280.644c-0.026,0.009,0.112,0.35,0.39,0.972c0.315,0.678,0.727,1.568,1.232,2.659
												c1.119,2.325,2.645,5.497,4.416,9.178l0.194,0.403l0.245-0.385c1.154-1.816,2.269-3.87,3.219-6.075
												c0.352-0.816,0.672-1.628,0.951-2.404l-0.482,0.015c2.177,4.71,4.306,8.812,5.912,11.724
												c0.802,1.456,1.469,2.617,1.942,3.411c0.22,0.359,0.404,0.658,0.556,0.907c0.132,0.205,0.208,0.309,0.223,0.303
												c0.03-0.012-0.19-0.463-0.611-1.277c-0.454-0.874-1.06-2.04-1.799-3.463c-1.521-2.94-3.589-7.056-5.748-11.763
												l-0.266-0.579l-0.216,0.595c-0.279,0.768-0.597,1.573-0.946,2.381c-0.941,2.185-2.037,4.223-3.165,6.03l0.439,0.018
												c-1.84-3.657-3.424-6.807-4.586-9.117c-0.559-1.072-1.014-1.947-1.362-2.613
												C74.532,280.957,74.344,280.634,74.318,280.644z"/>
										</g>
									</g>
								</g>
							</g>
						</g>
					</g>
				</g>
			</g>
		</g>
		<g>
			<g>
				<g>
					<g>
						<g>
							<g>
								<g>
									<g>
										<g>
											<path style="fill:#F5F5F5;" d="M65.914,256.176c0.027,0.01,0.181-0.241,0.445-0.708c0.304-0.536,0.681-1.202,1.134-2.002
												c0.977-1.704,2.409-4.081,4.268-6.738l-0.451-0.053c0.394,1.29,0.819,2.679,1.259,4.12
												c0.278,0.897,0.551,1.775,0.812,2.62l0.182,0.588l0.293-0.554c1.681-3.178,3.138-5.977,4.16-7.987
												c0.473-0.951,0.867-1.743,1.18-2.372c0.267-0.559,0.4-0.87,0.371-0.881c-0.029-0.011-0.216,0.279-0.535,0.818
												c-0.35,0.615-0.791,1.39-1.319,2.319c-1.104,1.979-2.618,4.755-4.32,7.925l0.476,0.034
												c-0.259-0.846-0.529-1.724-0.804-2.622c-0.447-1.438-0.879-2.827-1.28-4.115l-0.152-0.489l-0.299,0.436
												c-1.842,2.685-3.222,5.099-4.124,6.839c-0.452,0.87-0.788,1.571-1.005,2.057
												C65.989,255.898,65.888,256.167,65.914,256.176z"/>
										</g>
									</g>
								</g>
							</g>
						</g>
					</g>
				</g>
			</g>
		</g>
		<g>
			<g>
				<g>
					<g>
						<g>
							<g>
								<g>
									<g>
										<g>
											<path style="fill:#F5F5F5;" d="M77.087,205.957c-0.054,0.027,0.473,0.9,1.392,2.328c0.92,1.429,2.232,3.413,3.748,5.661
												l0.345,0.512l0.123-0.582c0.138-0.651,0.281-1.327,0.427-2.017c0.245-1.193,0.481-2.34,0.7-3.403l-0.448,0.073
												c1.408,1.894,2.633,3.513,3.519,4.652c0.885,1.139,1.431,1.798,1.479,1.773c0.049-0.026-0.407-0.732-1.22-1.91
												c-0.813-1.178-1.983-2.826-3.362-4.734l-0.334-0.462l-0.114,0.536c-0.227,1.062-0.471,2.207-0.726,3.4
												c-0.143,0.691-0.283,1.366-0.418,2.018l0.468-0.07c-1.535-2.239-2.902-4.196-3.899-5.587
												C77.769,206.754,77.142,205.93,77.087,205.957z"/>
										</g>
									</g>
								</g>
							</g>
						</g>
					</g>
				</g>
			</g>
		</g>
	</g>
	<g>
		<g>
			<g>
				<g>
					<g>
						<g>
							<g>
								<g>
									<g>
										<g>
											<polygon style="fill:#EBEBEB;" points="135.539,354.968 119.066,346.94 113.604,322.853 109.005,323.925 
												112.993,346.681 97.205,337.616 93.746,340.983 114.643,352.27 135.539,360.582 											"/>
										</g>
									</g>
								</g>
							</g>
						</g>
					</g>
				</g>
			</g>
			<g>
				<g>
					<g>
						<g>
							<g>
								<g>
									<g>
										<g>
											<g>
												<polygon style="fill:#EBEBEB;" points="142.201,421.894 130.13,421.894 133.255,319.83 145.326,319.83 												"/>
											</g>
										</g>
									</g>
								</g>
							</g>
						</g>
					</g>
				</g>
				<g>
					<g>
						<g>
							<g>
								<g>
									<g>
										<g>
											<g>
												<path style="fill:#E0E0E0;" d="M135.995,65.951c0,1.399-32.399,88.111-32.399,88.111l16.199-13.986l-23.338,60.605
													l15.375-18.182l-18.121,75.99l8.786-7.925l-15.376,53.612l13.179-13.986l-13.179,40.093l104.334-6.527l-24.711-75.523
													l14.924,13.986l-19.316-55.011l9.884,4.662l-22.514-70.862l10.433,6.061L135.995,65.951z"/>
											</g>
										</g>
									</g>
								</g>
							</g>
						</g>
					</g>
				</g>
			</g>
		</g>
		<g>
			<g>
				<g>
					<g>
						<g>
							<g>
								<g>
									<g>
										<g>
											<path style="fill:#EBEBEB;" d="M139.494,220.724c0.034,0.012-0.148,0.463-0.517,1.285
												c-0.416,0.898-0.962,2.075-1.63,3.517c-1.48,3.076-3.498,7.271-5.841,12.14l-0.257,0.533l-0.324-0.51
												c-1.527-2.402-3.002-5.119-4.258-8.036c-0.466-1.08-0.889-2.154-1.258-3.18l0.638,0.02
												c-2.88,6.23-5.697,11.657-7.821,15.509c-1.061,1.926-1.943,3.462-2.569,4.512c-0.291,0.475-0.534,0.87-0.736,1.2
												c-0.174,0.271-0.275,0.409-0.295,0.401c-0.04-0.016,0.251-0.613,0.808-1.69c0.601-1.156,1.402-2.699,2.38-4.581
												c2.012-3.889,4.748-9.334,7.604-15.56l0.352-0.767l0.286,0.787c0.369,1.016,0.79,2.08,1.251,3.15
												c1.245,2.89,2.694,5.586,4.187,7.976l-0.581,0.024c2.433-4.837,4.53-9.005,6.067-12.06
												c0.739-1.418,1.342-2.575,1.801-3.457C139.211,221.139,139.459,220.712,139.494,220.724z"/>
										</g>
									</g>
								</g>
							</g>
						</g>
					</g>
				</g>
			</g>
		</g>
		<g>
			<g>
				<g>
					<g>
						<g>
							<g>
								<g>
									<g>
										<g>
											<path style="fill:#EBEBEB;" d="M150.61,188.358c-0.036,0.013-0.239-0.318-0.588-0.936c-0.402-0.709-0.901-1.59-1.5-2.648
												c-1.293-2.254-3.186-5.398-5.646-8.913l0.596-0.07c-0.521,1.706-1.083,3.544-1.665,5.449
												c-0.368,1.187-0.728,2.348-1.074,3.466l-0.241,0.778l-0.388-0.733c-2.224-4.204-4.151-7.907-5.503-10.565
												c-0.625-1.257-1.147-2.305-1.562-3.138c-0.354-0.74-0.529-1.151-0.491-1.165c0.038-0.014,0.286,0.369,0.707,1.083
												c0.463,0.814,1.046,1.838,1.745,3.068c1.46,2.617,3.463,6.29,5.714,10.484l-0.629,0.045
												c0.343-1.119,0.699-2.281,1.064-3.469c0.592-1.903,1.163-3.739,1.693-5.443l0.201-0.647l0.396,0.576
												c2.437,3.551,4.262,6.745,5.456,9.047c0.597,1.151,1.042,2.079,1.33,2.721
												C150.511,187.99,150.645,188.345,150.61,188.358z"/>
										</g>
									</g>
								</g>
							</g>
						</g>
					</g>
				</g>
			</g>
		</g>
		<g>
			<g>
				<g>
					<g>
						<g>
							<g>
								<g>
									<g>
										<g>
											<path style="fill:#EBEBEB;" d="M135.831,121.927c0.072,0.035-0.625,1.19-1.841,3.08c-1.217,1.89-2.952,4.514-4.957,7.489
												l-0.457,0.677l-0.163-0.77c-0.183-0.862-0.372-1.755-0.565-2.668c-0.325-1.579-0.637-3.095-0.926-4.502l0.593,0.097
												c-1.863,2.505-3.483,4.646-4.654,6.153c-1.171,1.507-1.893,2.379-1.957,2.345c-0.064-0.034,0.539-0.968,1.614-2.526
												c1.076-1.558,2.623-3.738,4.448-6.263l0.442-0.612l0.151,0.709c0.3,1.405,0.623,2.92,0.96,4.497
												c0.189,0.914,0.375,1.807,0.553,2.67l-0.619-0.092c2.031-2.962,3.839-5.551,5.158-7.39
												C134.929,122.981,135.759,121.891,135.831,121.927z"/>
										</g>
									</g>
								</g>
							</g>
						</g>
					</g>
				</g>
			</g>
		</g>
	</g>
	<g>
		<g>
			<g>
				<g>
					<g>
						<g>
							<g>
								<g>
									<g>
										<g>
											<g>
												<polygon style="fill:#EBEBEB;" points="356.163,420.768 365.288,420.768 362.926,343.612 353.801,343.612 												
													"/>
											</g>
										</g>
									</g>
								</g>
							</g>
						</g>
					</g>
				</g>
				<g>
					<g>
						<g>
							<g>
								<g>
									<g>
										<g>
											<g>
												<path style="fill:#EBEBEB;" d="M359.424,160.486c0,1.057,24.492,66.608,24.492,66.608l-12.246-10.573l17.642,45.815
													l-11.623-13.745l13.699,57.445l-6.642-5.991l11.623,40.529l-9.963-10.573l9.963,30.308l-78.873-4.934l18.68-57.093
													l-11.282,10.573l14.603-41.586l-7.472,3.524l17.02-53.569l-7.887,4.582L359.424,160.486z"/>
											</g>
										</g>
									</g>
								</g>
							</g>
						</g>
					</g>
				</g>
			</g>
		</g>
		<g>
			<g>
				<g>
					<g>
						<g>
							<g>
								<g>
									<g>
										<g>
											<path style="fill:#F5F5F5;" d="M356.779,277.488c-0.026,0.009,0.112,0.35,0.391,0.971
												c0.315,0.678,0.727,1.568,1.232,2.659c1.119,2.325,2.645,5.497,4.416,9.178l0.194,0.403l0.245-0.385
												c1.154-1.816,2.269-3.87,3.219-6.075c0.352-0.816,0.672-1.628,0.951-2.404l-0.482,0.015
												c2.177,4.71,4.306,8.812,5.912,11.724c0.802,1.456,1.469,2.617,1.942,3.411c0.22,0.359,0.404,0.658,0.556,0.907
												c0.132,0.205,0.208,0.309,0.223,0.303c0.03-0.012-0.19-0.463-0.611-1.277c-0.454-0.874-1.06-2.04-1.799-3.463
												c-1.521-2.94-3.589-7.056-5.748-11.763l-0.266-0.579l-0.216,0.595c-0.279,0.768-0.597,1.573-0.946,2.381
												c-0.941,2.185-2.037,4.223-3.165,6.03l0.439,0.018c-1.84-3.657-3.424-6.807-4.586-9.117
												c-0.559-1.072-1.014-1.947-1.362-2.613C356.994,277.802,356.805,277.479,356.779,277.488z"/>
										</g>
									</g>
								</g>
							</g>
						</g>
					</g>
				</g>
			</g>
		</g>
		<g>
			<g>
				<g>
					<g>
						<g>
							<g>
								<g>
									<g>
										<g>
											<path style="fill:#F5F5F5;" d="M348.376,253.021c0.027,0.01,0.181-0.24,0.445-0.708c0.304-0.536,0.681-1.202,1.134-2.002
												c0.977-1.704,2.409-4.081,4.268-6.738l-0.451-0.053c0.394,1.29,0.819,2.679,1.259,4.12
												c0.278,0.897,0.55,1.775,0.812,2.62l0.182,0.588l0.293-0.554c1.681-3.178,3.138-5.977,4.16-7.987
												c0.473-0.951,0.867-1.743,1.18-2.372c0.267-0.559,0.4-0.87,0.371-0.881c-0.029-0.011-0.216,0.279-0.535,0.819
												c-0.35,0.615-0.791,1.389-1.319,2.319c-1.103,1.979-2.618,4.755-4.32,7.925l0.476,0.034
												c-0.259-0.846-0.529-1.725-0.804-2.622c-0.447-1.438-0.879-2.827-1.28-4.115l-0.152-0.489l-0.299,0.436
												c-1.842,2.685-3.222,5.099-4.124,6.839c-0.452,0.87-0.788,1.571-1.005,2.057
												C348.451,252.742,348.35,253.011,348.376,253.021z"/>
										</g>
									</g>
								</g>
							</g>
						</g>
					</g>
				</g>
			</g>
		</g>
		<g>
			<g>
				<g>
					<g>
						<g>
							<g>
								<g>
									<g>
										<g>
											<path style="fill:#F5F5F5;" d="M359.549,202.801c-0.055,0.027,0.473,0.9,1.392,2.328c0.92,1.429,2.232,3.413,3.748,5.661
												l0.345,0.512l0.123-0.582c0.138-0.652,0.281-1.327,0.427-2.017c0.245-1.193,0.481-2.34,0.7-3.403l-0.448,0.073
												c1.408,1.894,2.633,3.513,3.519,4.652c0.885,1.139,1.431,1.798,1.479,1.773c0.049-0.025-0.407-0.732-1.22-1.91
												c-0.813-1.177-1.983-2.826-3.362-4.734l-0.334-0.463l-0.114,0.536c-0.227,1.062-0.471,2.207-0.726,3.4
												c-0.143,0.691-0.283,1.366-0.418,2.018l0.468-0.07c-1.535-2.239-2.902-4.196-3.899-5.587
												C360.23,203.599,359.603,202.775,359.549,202.801z"/>
										</g>
									</g>
								</g>
							</g>
						</g>
					</g>
				</g>
			</g>
		</g>
	</g>
	<g>
		<g>
			<g>
				<g>
					<g>
						<g>
							<g>
								<path style="fill:#F5F5F5;" d="M320.767,124.291c0.677-5.728-6.26-10.44-11.473-10.93c-2.486-0.234-5.068,0.209-7.423-0.747
									c-5.102-2.072-7.141-9.754-12.119-12.201c-3.722-1.829-8.007-0.201-11.615,1.916c-3.608,2.116-7.174,4.779-11.206,5.08
									c-3.507,0.262-7.315-1.254-10.383,0.742c-2.286,1.487-3.483,4.557-5.591,6.369c-2.061,1.772-4.751,2.147-7.308,2.309
									c-2.558,0.162-5.206,0.192-7.535,1.435c-2.329,1.243-4.256,4.113-3.772,7.044L320.767,124.291z"/>
							</g>
						</g>
					</g>
				</g>
			</g>
		</g>
	</g>
	<g>
		<g>
			<g>
				<g>
					<g>
						<g>
							<g>
								<g>
									<g>
										<g>
											<polygon style="fill:#EBEBEB;" points="424.546,365.281 410.358,358.366 405.653,337.62 401.692,338.543 
												405.127,358.143 391.529,350.336 388.55,353.236 406.548,362.957 424.546,370.116 											"/>
										</g>
									</g>
								</g>
							</g>
						</g>
					</g>
				</g>
			</g>
			<g>
				<g>
					<g>
						<g>
							<g>
								<g>
									<g>
										<g>
											<g>
												<polygon style="fill:#EBEBEB;" points="430.284,422.925 419.887,422.925 422.578,335.017 432.976,335.017 												
													"/>
											</g>
										</g>
									</g>
								</g>
							</g>
						</g>
					</g>
				</g>
				<g>
					<g>
						<g>
							<g>
								<g>
									<g>
										<g>
											<g>
												<path style="fill:#E0E0E0;" d="M424.939,116.348c0,1.205-27.905,75.891-27.905,75.891l13.953-12.046l-20.101,52.2
													l13.243-15.66l-15.608,65.451l7.568-6.826l-13.243,46.177l11.351-12.046l-11.351,34.532l89.864-5.622l-21.284-65.049
													l12.854,12.046l-16.637-47.382l8.513,4.015l-19.392-61.034l8.986,5.22L424.939,116.348z"/>
											</g>
										</g>
									</g>
								</g>
							</g>
						</g>
					</g>
				</g>
			</g>
		</g>
		<g>
			<g>
				<g>
					<g>
						<g>
							<g>
								<g>
									<g>
										<g>
											<path style="fill:#EBEBEB;" d="M427.952,249.656c0.03,0.01-0.128,0.398-0.445,1.107
												c-0.358,0.773-0.828,1.787-1.404,3.029c-1.275,2.649-3.013,6.263-5.031,10.457l-0.221,0.46l-0.279-0.439
												c-1.315-2.069-2.585-4.409-3.668-6.921c-0.401-0.93-0.765-1.855-1.083-2.739l0.549,0.018
												c-2.481,5.366-4.907,10.041-6.736,13.358c-0.914,1.659-1.673,2.982-2.213,3.887c-0.251,0.409-0.46,0.75-0.634,1.033
												c-0.15,0.233-0.237,0.352-0.254,0.345c-0.034-0.014,0.216-0.528,0.696-1.456c0.517-0.996,1.207-2.325,2.05-3.946
												c1.733-3.35,4.09-8.04,6.549-13.402l0.303-0.66l0.246,0.678c0.318,0.875,0.68,1.792,1.078,2.713
												c1.073,2.489,2.321,4.811,3.606,6.87l-0.5,0.02c2.096-4.167,3.902-7.756,5.225-10.388
												c0.636-1.221,1.156-2.218,1.552-2.977C427.708,250.013,427.923,249.645,427.952,249.656z"/>
										</g>
									</g>
								</g>
							</g>
						</g>
					</g>
				</g>
			</g>
		</g>
		<g>
			<g>
				<g>
					<g>
						<g>
							<g>
								<g>
									<g>
										<g>
											<path style="fill:#EBEBEB;" d="M437.527,221.778c-0.031,0.011-0.206-0.274-0.507-0.806
												c-0.346-0.61-0.776-1.37-1.292-2.281c-1.113-1.941-2.744-4.65-4.863-7.676l0.514-0.061
												c-0.449,1.469-0.933,3.053-1.434,4.694c-0.317,1.022-0.627,2.023-0.926,2.986l-0.208,0.67l-0.334-0.631
												c-1.916-3.621-3.575-6.81-4.74-9.1c-0.539-1.083-0.988-1.985-1.345-2.703c-0.305-0.637-0.455-0.991-0.423-1.004
												c0.033-0.012,0.246,0.318,0.609,0.932c0.399,0.701,0.901,1.583,1.503,2.642c1.257,2.254,2.983,5.418,4.921,9.03
												l-0.542,0.039c0.296-0.964,0.602-1.965,0.916-2.988c0.51-1.639,1.002-3.221,1.458-4.688l0.173-0.557l0.341,0.497
												c2.099,3.059,3.671,5.809,4.699,7.792c0.515,0.992,0.898,1.79,1.146,2.343
												C437.442,221.461,437.557,221.767,437.527,221.778z"/>
										</g>
									</g>
								</g>
							</g>
						</g>
					</g>
				</g>
			</g>
		</g>
		<g>
			<g>
				<g>
					<g>
						<g>
							<g>
								<g>
									<g>
										<g>
											<path style="fill:#EBEBEB;" d="M424.797,164.56c0.062,0.031-0.539,1.025-1.586,2.653c-1.048,1.628-2.543,3.888-4.27,6.45
												l-0.393,0.583l-0.14-0.663c-0.157-0.742-0.32-1.511-0.487-2.298c-0.28-1.36-0.548-2.666-0.798-3.877l0.511,0.083
												c-1.604,2.158-3,4.002-4.009,5.3c-1.009,1.298-1.63,2.049-1.685,2.02c-0.055-0.029,0.464-0.834,1.39-2.176
												c0.926-1.342,2.259-3.22,3.831-5.394l0.381-0.527l0.13,0.611c0.258,1.21,0.537,2.515,0.827,3.873
												c0.163,0.787,0.323,1.557,0.477,2.299l-0.533-0.079c1.749-2.551,3.307-4.781,4.443-6.365
												C424.021,165.469,424.735,164.53,424.797,164.56z"/>
										</g>
									</g>
								</g>
							</g>
						</g>
					</g>
				</g>
			</g>
		</g>
	</g>
	<g>
		<g>
			<g>
				<g>
					<g>
						<g>
							<g>
								<path style="fill:#F5F5F5;" d="M475.775,77.496c0.531-3.86-4.916-7.035-9.009-7.365c-1.952-0.157-3.979,0.141-5.828-0.503
									c-4.006-1.396-5.607-6.572-9.516-8.221c-2.923-1.233-6.287-0.135-9.121,1.291c-2.833,1.426-5.633,3.221-8.799,3.423
									c-2.753,0.176-5.743-0.845-8.152,0.5c-1.795,1.002-2.735,3.071-4.39,4.291c-1.619,1.194-3.73,1.447-5.738,1.556
									c-2.008,0.109-4.088,0.13-5.916,0.967c-1.829,0.837-3.342,2.771-2.962,4.746L475.775,77.496z"/>
							</g>
						</g>
					</g>
				</g>
			</g>
		</g>
	</g>
	<g>
		<g>
			<g>
				<g>
					<g>
						<g>
							<g>
								<path style="fill:#F5F5F5;" d="M261.737,58.991c0.531-3.86-4.916-7.035-9.009-7.365c-1.952-0.157-3.979,0.141-5.828-0.503
									c-4.006-1.396-5.607-6.572-9.516-8.221c-2.923-1.233-6.287-0.135-9.121,1.291c-2.833,1.426-5.633,3.221-8.799,3.423
									c-2.754,0.176-5.743-0.845-8.152,0.5c-1.795,1.002-2.735,3.071-4.39,4.291c-1.619,1.194-3.73,1.447-5.738,1.556
									c-2.008,0.109-4.088,0.129-5.916,0.967c-1.829,0.837-3.342,2.771-2.962,4.746L261.737,58.991z"/>
							</g>
						</g>
					</g>
				</g>
			</g>
		</g>
	</g>
</g>
<g id="Background_Simple" style="display:none;">
	<path style="display:inline;fill:#F5F5F5;" d="M339.913,38.773l-1.988,1.136c-16.763,9.576-27.186,27.415-26.483,46.531
		c0.09,2.457,0.358,4.909,0.81,7.333c3.256,17.45,15.979,32.895,32.619,39.597c9.786,3.941,21.138,5.27,28.799,12.462
		c9.97,9.359,9.883,24.8,9.102,38.357c-0.781,13.557-0.828,29.009,9.183,38.326c6.27,5.835,15.351,7.876,23.96,7.646
		c22.793-0.609,43.563-15.931,54.211-35.834c10.648-19.903,12.181-43.627,8.314-65.819c-5.417-31.089-21.76-60.949-47.734-79.324
		C404.731,30.809,368.826,25.384,339.913,38.773z"/>
	<path style="display:inline;fill:#F5F5F5;" d="M152.06,392.99l2.359-0.64c19.89-5.399,35.446-21.036,39.847-40.979
		c0.566-2.563,0.947-5.168,1.13-7.794c1.316-18.905-7.689-38.277-23.085-49.666c-9.055-6.698-20.429-11.116-26.416-20.602
		c-7.792-12.346-3.56-28.278,0.884-42.077c4.444-13.799,8.637-29.754,0.791-42.066c-4.914-7.711-13.75-12.256-22.708-14.328
		c-23.716-5.485-49.288,4.777-65.63,22.487s-24.289,41.814-26.246,65.783c-2.741,33.578,6.137,68.818,28.048,94.772
		C82.945,383.834,118.592,399.07,152.06,392.99z"/>
	
		<ellipse transform="matrix(0.7071 -0.7071 0.7071 0.7071 -106.82 383.2079)" style="display:inline;fill:#F5F5F5;" cx="409.163" cy="320.547" rx="36.717" ry="36.717"/>
</g>
<g id="Floor">
	<g>
		<path style="fill:#263238;" d="M470.341,473.111c0,0.144-98.658,0.26-220.33,0.26c-121.715,0-220.351-0.117-220.351-0.26
			s98.637-0.26,220.351-0.26C371.683,472.851,470.341,472.967,470.341,473.111z"/>
	</g>
</g>
<g id="Plants">
	<g>
		<g>
			<path style="fill:#263238;" d="M453.556,473.106c-0.067,0.026-0.437-0.745-0.975-2.014c-0.539-1.269-1.245-3.037-2.014-4.991
				c-0.735-1.85-1.401-3.526-1.984-4.995c-0.514-1.275-0.868-2.046-0.802-2.083c0.059-0.034,0.534,0.687,1.138,1.932
				c0.608,1.243,1.363,2.996,2.133,4.955c0.771,1.958,1.421,3.747,1.873,5.05C453.375,472.262,453.623,473.08,453.556,473.106z"/>
		</g>
		<g>
			<path style="fill:#263238;" d="M458.16,473.312c-0.152,0.019-0.659-3.336-1.587-7.408c-0.917-4.076-1.905-7.322-1.76-7.37
				c0.066-0.021,0.398,0.764,0.835,2.07c0.437,1.305,0.968,3.134,1.433,5.185c0.463,2.05,0.773,3.929,0.941,5.295
				C458.19,472.451,458.229,473.304,458.16,473.312z"/>
		</g>
		<g>
			<path style="fill:#263238;" d="M466.324,459.425c0.136,0.072-1.36,3.072-2.882,6.905c-1.534,3.83-2.512,7.035-2.66,6.994
				c-0.066-0.019,0.094-0.846,0.459-2.157c0.365-1.31,0.949-3.1,1.717-5.03c0.77-1.929,1.578-3.629,2.215-4.831
				C465.809,460.103,466.263,459.393,466.324,459.425z"/>
		</g>
	</g>
	<g>
		<g>
			<path style="fill:#263238;" d="M225.885,473.111c-0.125,0.071-1.588-2.263-3.267-5.213c-1.68-2.951-2.94-5.4-2.815-5.471
				c0.125-0.071,1.588,2.263,3.268,5.214C224.749,470.591,226.01,473.04,225.885,473.111z"/>
		</g>
		<g>
			<path style="fill:#263238;" d="M230.202,472.97c-0.141,0.03-0.852-2.782-1.587-6.279c-0.736-3.498-1.219-6.357-1.078-6.387
				c0.141-0.03,0.851,2.781,1.587,6.28C229.86,470.081,230.343,472.941,230.202,472.97z"/>
		</g>
		<g>
			<path style="fill:#263238;" d="M239.312,461.693c0.124,0.073-1.257,2.651-3.084,5.757c-1.828,3.107-3.409,5.566-3.533,5.493
				c-0.124-0.073,1.257-2.65,3.084-5.757C237.607,464.079,239.188,461.62,239.312,461.693z"/>
		</g>
	</g>
	<g>
		<g>
			<path style="fill:#263238;" d="M55.679,473.111c-0.125,0.071-1.443-2.024-2.943-4.678c-1.5-2.655-2.615-4.864-2.49-4.935
				c0.125-0.071,1.443,2.023,2.943,4.678C54.69,470.831,55.804,473.04,55.679,473.111z"/>
		</g>
		<g>
			<path style="fill:#263238;" d="M58.089,457.602c0.143-0.017,0.665,3.442,1.167,7.724c0.501,4.284,0.792,7.769,0.649,7.785
				c-0.143,0.017-0.665-3.441-1.167-7.725C58.237,461.104,57.946,457.619,58.089,457.602z"/>
		</g>
		<g>
			<path style="fill:#263238;" d="M67.495,462.534c0.137,0.042-0.482,2.445-1.382,5.365c-0.901,2.921-1.743,5.254-1.88,5.212
				c-0.137-0.042,0.481-2.444,1.383-5.366C66.515,464.825,67.357,462.492,67.495,462.534z"/>
		</g>
	</g>
	<g>
		<g>
			<g>
				<path style="fill:#455A64;" d="M141.722,439.957c1.52,0.66,2.638,2.065,3.199,3.624c0.561,1.559,0.612,3.262,0.425,4.909
					c-0.361,3.186-2.171,6.401-4.12,8.947c-2.683-2.341-3.3-6.425-3.483-8.517C137.454,445.615,138.939,439.465,141.722,439.957"/>
			</g>
		</g>
		<g>
			<g>
				<path style="fill:#455A64;" d="M144.344,462.695c-0.43-1.801,0.32-3.776,1.702-5.007c1.382-1.231,3.313-1.752,5.159-1.611
					c0.853,0.065,1.776,0.314,2.264,1.017c0.457,0.657,0.406,1.574,0.035,2.283c-0.371,0.709-1.012,1.239-1.69,1.665
					C149.489,462.499,146.972,463.484,144.344,462.695"/>
			</g>
		</g>
		<g>
			<g>
				<g>
					<path style="fill:#263238;" d="M140.904,472.462c-0.016-0.004,0.021-0.236,0.096-0.654c0.084-0.46,0.193-1.055,0.324-1.769
						c0.296-1.478,0.677-3.596,1.826-5.652c1.133-2.051,2.72-3.561,4.056-4.31c0.663-0.384,1.244-0.612,1.654-0.732
						c0.202-0.068,0.368-0.094,0.476-0.121c0.11-0.023,0.168-0.031,0.17-0.024c0.019,0.052-0.929,0.223-2.215,1.017
						c-1.29,0.771-2.823,2.266-3.938,4.282c-1.126,2.013-1.531,4.101-1.868,5.572c-0.162,0.741-0.294,1.342-0.397,1.755
						C140.986,472.24,140.919,472.466,140.904,472.462z"/>
				</g>
			</g>
		</g>
		<g>
			<g>
				<g>
					<path style="fill:#263238;" d="M141.005,444.741c0.008,0,0.019,0.098,0.033,0.286c0.013,0.212,0.029,0.484,0.049,0.821
						c0.038,0.713,0.08,1.746,0.121,3.022c0.083,2.552,0.147,6.081,0.131,9.978c-0.018,3.898-0.113,7.426-0.218,9.978
						c-0.052,1.276-0.103,2.308-0.147,3.021c-0.023,0.336-0.041,0.608-0.056,0.82c-0.015,0.187-0.027,0.286-0.035,0.285
						c-0.008,0-0.012-0.099-0.011-0.287c0.003-0.212,0.007-0.485,0.012-0.822c0.018-0.743,0.043-1.768,0.073-3.022
						c0.063-2.552,0.132-6.078,0.15-9.974c0.016-3.894-0.023-7.42-0.063-9.973c-0.02-1.255-0.036-2.28-0.047-3.023
						c-0.002-0.337-0.004-0.61-0.005-0.823C140.992,444.84,140.997,444.741,141.005,444.741z"/>
				</g>
			</g>
		</g>
		<g>
			<g>
				<path style="fill:#455A64;" d="M139.703,464.634c-0.61-3.854-3.208-7.339-6.727-9.025c-0.896-0.429-2.067-0.71-2.804-0.043
					c-0.738,0.668-0.573,1.867-0.212,2.794c1.502,3.86,5.538,6.585,9.679,6.536"/>
			</g>
		</g>
		<g>
			<g>
				<g>
					<path style="fill:#263238;" d="M133.41,458.631c0.007-0.014,0.209,0.074,0.569,0.248c0.181,0.086,0.402,0.192,0.643,0.343
						c0.241,0.151,0.532,0.298,0.819,0.514c0.293,0.207,0.619,0.427,0.937,0.705c0.333,0.26,0.658,0.573,0.997,0.906
						c0.661,0.681,1.326,1.494,1.894,2.434c0.56,0.945,0.965,1.915,1.248,2.822c0.128,0.458,0.25,0.892,0.315,1.31
						c0.091,0.413,0.124,0.805,0.161,1.162c0.049,0.356,0.033,0.682,0.045,0.966c0.013,0.284-0.005,0.529-0.022,0.729
						c-0.029,0.399-0.053,0.618-0.069,0.617c-0.052-0.002,0.039-0.886-0.117-2.295c-0.046-0.351-0.089-0.737-0.186-1.142
						c-0.072-0.41-0.2-0.836-0.331-1.284c-0.29-0.888-0.693-1.837-1.243-2.766c-0.558-0.923-1.207-1.726-1.848-2.404
						c-0.33-0.331-0.644-0.646-0.968-0.908c-0.308-0.281-0.624-0.505-0.908-0.718C134.194,459.043,133.386,458.676,133.41,458.631z"
						/>
				</g>
			</g>
		</g>
	</g>
	<g>
		<g>
			<g>
				<path style="fill:#455A64;" d="M411.829,430.384c2.008,0.871,3.484,2.727,4.225,4.786c0.741,2.059,0.808,4.309,0.561,6.483
					c-0.477,4.207-2.868,8.454-5.442,11.816c-3.543-3.092-4.358-8.486-4.6-11.248C406.193,437.855,408.154,429.733,411.829,430.384"
					/>
			</g>
		</g>
		<g>
			<g>
				<path style="fill:#455A64;" d="M415.293,460.414c-0.567-2.378,0.422-4.987,2.248-6.613c1.825-1.626,4.376-2.314,6.813-2.128
					c1.127,0.086,2.345,0.415,2.991,1.343c0.603,0.868,0.536,2.078,0.046,3.015c-0.49,0.936-1.337,1.637-2.232,2.198
					C422.088,460.155,418.764,461.456,415.293,460.414"/>
			</g>
		</g>
		<g>
			<g>
				<g>
					<path style="fill:#263238;" d="M410.749,473.315c-0.021-0.005,0.027-0.312,0.126-0.863c0.111-0.608,0.255-1.393,0.428-2.336
						c0.391-1.952,0.894-4.749,2.411-7.464c1.497-2.708,3.592-4.703,5.357-5.692c0.876-0.507,1.643-0.809,2.184-0.966
						c0.267-0.09,0.486-0.124,0.629-0.16c0.145-0.03,0.222-0.042,0.225-0.031c0.025,0.069-1.227,0.294-2.926,1.343
						c-1.703,1.019-3.728,2.993-5.201,5.656c-1.488,2.659-2.022,5.417-2.467,7.359c-0.215,0.979-0.389,1.773-0.524,2.317
						C410.857,473.021,410.769,473.319,410.749,473.315z"/>
				</g>
			</g>
		</g>
		<g>
			<g>
				<g>
					<path style="fill:#263238;" d="M410.883,436.701c0.01,0,0.025,0.13,0.043,0.377c0.017,0.28,0.038,0.64,0.064,1.084
						c0.051,0.942,0.106,2.306,0.16,3.991c0.109,3.371,0.195,8.031,0.173,13.178c-0.023,5.148-0.149,9.808-0.288,13.178
						c-0.069,1.685-0.136,3.048-0.194,3.99c-0.03,0.444-0.055,0.804-0.074,1.084c-0.02,0.248-0.036,0.377-0.047,0.377
						c-0.01,0-0.015-0.131-0.015-0.38c0.004-0.28,0.009-0.64,0.016-1.086c0.024-0.981,0.057-2.335,0.097-3.992
						c0.083-3.37,0.174-8.027,0.198-13.173c0.021-5.143-0.03-9.8-0.083-13.171c-0.026-1.657-0.047-3.011-0.063-3.993
						c-0.003-0.445-0.005-0.806-0.007-1.086C410.866,436.832,410.872,436.702,410.883,436.701z"/>
				</g>
			</g>
		</g>
		<g>
			<g>
				<path style="fill:#455A64;" d="M409.163,462.975c-0.806-5.091-4.237-9.693-8.885-11.92c-1.184-0.567-2.73-0.938-3.703-0.057
					c-0.975,0.882-0.756,2.465-0.28,3.69c1.984,5.098,7.314,8.696,12.784,8.632"/>
			</g>
		</g>
		<g>
			<g>
				<g>
					<path style="fill:#263238;" d="M400.852,455.046c0.009-0.019,0.276,0.098,0.752,0.328c0.239,0.113,0.531,0.253,0.85,0.453
						c0.318,0.199,0.703,0.393,1.081,0.678c0.387,0.273,0.818,0.563,1.237,0.931c0.441,0.343,0.869,0.758,1.317,1.197
						c0.873,0.899,1.751,1.973,2.502,3.215c0.739,1.249,1.274,2.53,1.648,3.727c0.168,0.605,0.331,1.179,0.416,1.731
						c0.12,0.546,0.164,1.064,0.213,1.535c0.065,0.47,0.043,0.901,0.059,1.276c0.017,0.376-0.007,0.699-0.029,0.962
						c-0.039,0.527-0.07,0.817-0.091,0.815c-0.069-0.003,0.051-1.17-0.155-3.031c-0.061-0.464-0.117-0.973-0.246-1.508
						c-0.095-0.542-0.264-1.104-0.437-1.696c-0.383-1.172-0.916-2.426-1.642-3.653c-0.737-1.219-1.594-2.279-2.441-3.175
						c-0.436-0.437-0.851-0.853-1.278-1.199c-0.406-0.371-0.825-0.667-1.199-0.949C401.887,455.592,400.821,455.106,400.852,455.046
						z"/>
				</g>
			</g>
		</g>
	</g>
</g>
<g id="Birds">
	<g>
		<g>
			<g>
				<g>
					<g>
						<g>
							<g>
								<g>
									<g>
										<path style="fill:#263238;" d="M419.559,90.161c-0.015,0.042-0.73-0.252-2.08-0.552c-1.344-0.295-3.361-0.556-5.807-0.224
											c-2.429,0.325-5.306,1.301-7.825,3.375c-2.513,2.035-4.664,5.115-5.523,8.769c-0.008,0.033-0.017,0.067-0.025,0.097
											l-0.161,0.627l-0.241-0.594c-1.406-3.472-3.904-6.231-6.613-7.985c-2.717-1.786-5.638-2.526-8.076-2.693
											c-2.453-0.171-4.444,0.181-5.77,0.528c-1.332,0.351-2.036,0.661-2.051,0.621c-0.006-0.013,0.167-0.096,0.502-0.242
											c0.334-0.148,0.839-0.341,1.505-0.537c1.325-0.399,3.335-0.803,5.833-0.668c2.48,0.131,5.476,0.854,8.267,2.664
											c2.783,1.776,5.351,4.591,6.793,8.153l-0.402,0.032c0.008-0.032,0.017-0.066,0.026-0.1
											c0.884-3.757,3.101-6.907,5.689-8.976c2.595-2.109,5.555-3.077,8.031-3.368c2.496-0.3,4.537,0.012,5.883,0.36
											c0.677,0.17,1.191,0.346,1.531,0.485C419.389,90.07,419.564,90.147,419.559,90.161z"/>
									</g>
								</g>
							</g>
						</g>
					</g>
				</g>
			</g>
		</g>
		<g>
			<g>
				<g>
					<g>
						<g>
							<g>
								<g>
									<g>
										<path style="fill:#263238;" d="M425.264,51.738c-0.013,0.035-0.41-0.115-1.153-0.268
											c-0.739-0.151-1.843-0.282-3.177-0.092c-1.325,0.186-2.889,0.725-4.257,1.858c-1.366,1.112-2.533,2.79-3,4.777
											l-0.013,0.053l-0.161,0.626l-0.241-0.594c-0.765-1.889-2.123-3.394-3.597-4.354c-1.477-0.977-3.067-1.388-4.398-1.487
											c-1.339-0.102-2.43,0.08-3.159,0.259c-0.733,0.182-1.124,0.34-1.138,0.306c-0.006-0.013,0.087-0.065,0.269-0.151
											c0.182-0.087,0.458-0.199,0.825-0.313c0.729-0.231,1.839-0.465,3.222-0.399c1.374,0.064,3.038,0.458,4.591,1.458
											c1.547,0.982,2.975,2.543,3.777,4.522l-0.401,0.032l0.014-0.056c0.492-2.09,1.726-3.838,3.167-4.983
											c1.445-1.167,3.091-1.698,4.463-1.851c1.384-0.158,2.512,0.026,3.253,0.229c0.373,0.1,0.655,0.202,0.84,0.284
											C425.175,51.675,425.269,51.724,425.264,51.738z"/>
									</g>
								</g>
							</g>
						</g>
					</g>
				</g>
			</g>
		</g>
		<g>
			<g>
				<g>
					<g>
						<g>
							<g>
								<g>
									<g>
										<path style="fill:#263238;" d="M360.166,49.337c0.026,0.026-0.397,0.455-1.116,1.266c-0.72,0.809-1.701,2.038-2.725,3.679
											c-2.058,3.238-4.117,8.397-4.046,14.317c-0.001,0.062-0.001,0.124-0.001,0.18l-0.42,0.035
											c-0.438-2.888-1.401-5.539-2.618-7.754c-1.214-2.222-2.639-4.026-3.986-5.384c-1.345-1.362-2.572-2.323-3.455-2.93
											c-0.882-0.61-1.392-0.917-1.373-0.95c0.007-0.013,0.141,0.052,0.391,0.187c0.245,0.143,0.626,0.324,1.073,0.627
											c0.918,0.569,2.185,1.503,3.575,2.856c1.391,1.348,2.863,3.16,4.115,5.407c1.255,2.24,2.25,4.936,2.696,7.88l-0.42,0.035
											c0-0.058,0.001-0.121,0.001-0.183c-0.072-6.023,2.07-11.251,4.216-14.482c1.068-1.638,2.094-2.849,2.855-3.63
											c0.367-0.403,0.694-0.676,0.9-0.875C360.041,49.423,360.156,49.326,360.166,49.337z"/>
									</g>
								</g>
							</g>
						</g>
					</g>
				</g>
			</g>
		</g>
	</g>
</g>
<g id="Lines">
	<g>
		<g>
			<path style="fill:#263238;" d="M155.451,292.007c0,0.144-13.973,0.26-31.204,0.26c-17.238,0-31.207-0.117-31.207-0.26
				s13.969-0.26,31.207-0.26C141.479,291.746,155.451,291.863,155.451,292.007z"/>
		</g>
		<g>
			<path style="fill:#263238;" d="M136.754,284.1c0,0.144-13.972,0.26-31.204,0.26c-17.238,0-31.207-0.117-31.207-0.26
				c0-0.144,13.97-0.26,31.207-0.26C122.781,283.84,136.754,283.956,136.754,284.1z"/>
		</g>
	</g>
	<g>
		<g>
			<path style="fill:#263238;" d="M294.428,412.899c0,0.144-8.064,0.26-18.01,0.26c-9.949,0-18.012-0.117-18.012-0.26
				c0-0.144,8.063-0.26,18.012-0.26C286.363,412.638,294.428,412.755,294.428,412.899z"/>
		</g>
		<g>
			<path style="fill:#263238;" d="M283.637,404.992c0,0.144-8.064,0.26-18.01,0.26c-9.949,0-18.012-0.117-18.012-0.26
				s8.063-0.26,18.012-0.26C275.572,404.732,283.637,404.848,283.637,404.992z"/>
		</g>
	</g>
</g>
<g id="Sun">
	<g>
		<g>
			<g>
				<g>
					<g>
						<g>
							<g>
								<g>
									<g>
										<circle style="fill:#FF725E;" cx="88.019" cy="72.367" r="14.659"/>
									</g>
								</g>
							</g>
						</g>
					</g>
				</g>
				<g>
					<g>
						<g>
							<g>
								<g>
									<g>
										<path style="fill:#FF725E;" d="M88.019,87.041c-1.981,0-3.902-0.388-5.712-1.153c-1.747-0.739-3.316-1.797-4.664-3.145
											c-1.348-1.348-2.406-2.917-3.145-4.664c-0.765-1.809-1.153-3.731-1.153-5.712c0-1.981,0.388-3.903,1.153-5.712
											c0.739-1.747,1.797-3.317,3.145-4.664c1.348-1.347,2.917-2.406,4.664-3.145c1.81-0.765,3.731-1.153,5.712-1.153
											c1.981,0,3.903,0.388,5.712,1.153c1.747,0.739,3.316,1.797,4.664,3.145c1.348,1.348,2.406,2.917,3.145,4.664
											c0.765,1.809,1.153,3.731,1.153,5.712c0,1.981-0.388,3.903-1.153,5.712c-0.739,1.748-1.797,3.317-3.145,4.664
											c-1.348,1.348-2.917,2.406-4.664,3.145C91.922,86.653,90,87.041,88.019,87.041z"/>
									</g>
								</g>
							</g>
						</g>
					</g>
				</g>
			</g>
		</g>
		<g>
			<g>
				<g>
					<g>
						<g>
							<g>
								<g>
									<g>
										<g>
											<path style="fill:#FF725E;" d="M85.931,105.144c-0.085,0-0.154-2.707-0.154-6.046c0-3.34,0.069-6.047,0.154-6.047
												c0.085,0,0.154,2.707,0.154,6.047C86.086,102.437,86.017,105.144,85.931,105.144z"/>
										</g>
									</g>
								</g>
							</g>
						</g>
					</g>
					<g>
						<g>
							<g>
								<g>
									<g>
										<g>
											<path style="fill:#FF725E;" d="M85.932,105.16c-0.027,0-0.079,0-0.125-1.786c-0.029-1.141-0.045-2.659-0.045-4.276
												c0-1.617,0.016-3.135,0.045-4.276c0.046-1.786,0.098-1.786,0.125-1.786c0.027,0,0.078,0,0.124,1.786
												c0.029,1.142,0.045,2.661,0.045,4.276c0,1.615-0.016,3.133-0.045,4.276C86.01,105.16,85.959,105.16,85.932,105.16z
												 M85.932,93.08c-0.068,0.222-0.139,2.517-0.139,6.019c0,3.501,0.071,5.797,0.139,6.018
												c0.068-0.222,0.139-2.517,0.139-6.018C86.07,95.597,85.999,93.301,85.932,93.08z"/>
										</g>
									</g>
								</g>
							</g>
						</g>
					</g>
				</g>
			</g>
		</g>
		<g>
			<g>
				<g>
					<g>
						<g>
							<g>
								<g>
									<g>
										<g>
											<path style="fill:#FF725E;" d="M77.484,89.643c0.074,0.043-1.305,2.569-3.079,5.641c-1.775,3.073-3.273,5.53-3.347,5.487
												c-0.074-0.043,1.305-2.568,3.079-5.641C75.912,92.057,77.411,89.6,77.484,89.643z"/>
										</g>
									</g>
								</g>
							</g>
						</g>
					</g>
					<g>
						<g>
							<g>
								<g>
									<g>
										<g>
											<path style="fill:#FF725E;" d="M71.061,100.786c-0.004,0-0.007-0.001-0.01-0.003c-0.024-0.014-0.068-0.04,0.841-1.705
												c0.581-1.065,1.374-2.471,2.233-3.958c0.858-1.486,1.679-2.875,2.311-3.911c0.89-1.46,1.014-1.583,1.048-1.583
												c0.004,0,0.006,0.002,0.009,0.003c0.024,0.014,0.068,0.039-0.841,1.704c-0.582,1.066-1.375,2.471-2.233,3.957
												c-1.522,2.636-3.214,5.458-3.352,5.494C71.064,100.786,71.062,100.786,71.061,100.786z M77.469,89.669
												c-0.179,0.174-1.46,2.249-3.319,5.469c-1.859,3.22-3.016,5.366-3.077,5.608c0.179-0.174,1.459-2.25,3.318-5.469
												C76.251,92.057,77.408,89.911,77.469,89.669z"/>
										</g>
									</g>
								</g>
							</g>
						</g>
					</g>
				</g>
			</g>
		</g>
		<g>
			<g>
				<g>
					<g>
						<g>
							<g>
								<g>
									<g>
										<g>
											<path style="fill:#FF725E;" d="M68.815,84.245c0.053,0.067-1.48,1.373-3.424,2.918c-1.944,1.545-3.563,2.743-3.616,2.677
												c-0.053-0.067,1.48-1.373,3.424-2.918C67.143,85.377,68.762,84.178,68.815,84.245z"/>
										</g>
									</g>
								</g>
							</g>
						</g>
					</g>
					<g>
						<g>
							<g>
								<g>
									<g>
										<g>
											<path style="fill:#FF725E;" d="M61.78,89.857c-0.01,0-0.013-0.004-0.016-0.008c-0.016-0.02-0.049-0.062,0.965-0.926
												c0.647-0.551,1.521-1.267,2.461-2.014c1.642-1.305,3.46-2.682,3.619-2.682c0.001,0,0.002,0,0.003,0
												c0.008,0.001,0.013,0.005,0.016,0.008l0,0c0.003,0.003,0.005,0.009,0.004,0.017c-0.016,0.14-1.779,1.61-3.43,2.922
												c-0.94,0.747-1.834,1.438-2.517,1.943C62.005,89.768,61.825,89.857,61.78,89.857z M68.797,84.259
												c-0.164,0.043-1.609,1.102-3.588,2.674c-2.043,1.624-3.34,2.746-3.416,2.893c0.161-0.041,1.546-1.051,3.589-2.675
												C67.361,85.578,68.718,84.409,68.797,84.259z M68.803,84.255L68.803,84.255L68.803,84.255z"/>
										</g>
									</g>
								</g>
							</g>
						</g>
					</g>
				</g>
			</g>
		</g>
		<g>
			<g>
				<g>
					<g>
						<g>
							<g>
								<g>
									<g>
										<g>
											<path style="fill:#FF725E;" d="M100.555,99.188c-0.044,0.007-0.175-0.565-0.387-1.488
												c-0.211-0.923-0.51-2.195-0.884-3.588c-0.375-1.393-0.755-2.644-1.035-3.548c-0.28-0.904-0.454-1.465-0.412-1.481
												c0.038-0.014,0.284,0.52,0.618,1.41c0.335,0.889,0.749,2.137,1.127,3.538c0.376,1.401,0.643,2.688,0.8,3.626
												C100.54,98.595,100.595,99.181,100.555,99.188z"/>
										</g>
									</g>
								</g>
							</g>
						</g>
					</g>
					<g>
						<g>
							<g>
								<g>
									<g>
										<g>
											<path style="fill:#FF725E;" d="M100.555,99.202c-0.05,0-0.11-0.226-0.401-1.499c-0.197-0.86-0.503-2.168-0.884-3.588
												c-0.391-1.451-0.778-2.719-1.035-3.547l-0.005-0.016c-0.372-1.204-0.447-1.465-0.397-1.483
												c0.018-0.008,0.045-0.015,0.218,0.374c0.117,0.263,0.266,0.634,0.42,1.045c0.229,0.606,0.679,1.873,1.128,3.54
												c0.447,1.668,0.693,2.988,0.8,3.627c0.14,0.837,0.214,1.484,0.174,1.539c-0.004,0.006-0.009,0.008-0.014,0.009l0,0
												C100.557,99.202,100.556,99.202,100.555,99.202z M97.846,89.107c0.002,0.107,0.184,0.698,0.413,1.436l0.005,0.016
												c0.258,0.828,0.644,2.096,1.036,3.549c0.382,1.42,0.687,2.728,0.884,3.589c0.167,0.732,0.312,1.369,0.367,1.466
												c0.014-0.094-0.031-0.598-0.183-1.503c-0.106-0.638-0.352-1.957-0.8-3.624c-0.448-1.666-0.898-2.931-1.127-3.537
												C98.119,89.639,97.905,89.181,97.846,89.107z"/>
										</g>
									</g>
								</g>
							</g>
						</g>
					</g>
				</g>
			</g>
		</g>
		<g>
			<g>
				<g>
					<g>
						<g>
							<g>
								<g>
									<g>
										<g>
											<path style="fill:#FF725E;" d="M115.423,88.637c-0.056,0.064-1.996-1.54-4.333-3.582
												c-2.337-2.043-4.186-3.751-4.13-3.815c0.056-0.064,1.996,1.54,4.333,3.583C113.63,86.865,115.479,88.573,115.423,88.637z
												"/>
										</g>
									</g>
								</g>
							</g>
						</g>
					</g>
					<g>
						<g>
							<g>
								<g>
									<g>
										<g>
											<path style="fill:#FF725E;" d="M115.419,88.654c-0.151,0-2.345-1.846-4.338-3.588c-1.13-0.988-2.182-1.929-2.962-2.65
												c-1.221-1.127-1.187-1.166-1.169-1.187c0.002-0.003,0.007-0.006,0.015-0.007c0,0,0.001,0,0.001,0
												c0.152,0,2.345,1.846,4.339,3.588c1.129,0.988,2.182,1.928,2.962,2.65c1.22,1.127,1.187,1.166,1.169,1.187l0,0
												c-0.002,0.003-0.007,0.006-0.015,0.007C115.42,88.654,115.419,88.654,115.419,88.654z M106.98,81.257
												c0.108,0.185,1.67,1.644,4.12,3.786c2.451,2.142,4.105,3.494,4.303,3.577c-0.108-0.185-1.669-1.644-4.12-3.786
												C108.833,82.692,107.178,81.34,106.98,81.257z"/>
										</g>
									</g>
								</g>
							</g>
						</g>
					</g>
				</g>
			</g>
		</g>
		<g>
			<g>
				<g>
					<g>
						<g>
							<g>
								<g>
									<g>
										<g>
											<path style="fill:#FF725E;" d="M121.118,74.139c-0.01,0.044-0.682-0.074-1.768-0.254
												c-1.086-0.181-2.588-0.413-4.255-0.605c-1.667-0.19-3.183-0.304-4.281-0.374c-1.099-0.07-1.78-0.107-1.78-0.153
												c0-0.04,0.683-0.08,1.788-0.065c1.105,0.014,2.631,0.093,4.308,0.285c1.676,0.193,3.181,0.461,4.26,0.697
												C120.471,73.906,121.127,74.1,121.118,74.139z"/>
										</g>
									</g>
								</g>
							</g>
						</g>
					</g>
					<g>
						<g>
							<g>
								<g>
									<g>
										<g>
											<path style="fill:#FF725E;" d="M121.066,74.162c-0.131,0-0.489-0.058-1.371-0.205l-0.348-0.058
												c-1.486-0.248-2.917-0.451-4.254-0.605c-1.331-0.152-2.771-0.278-4.281-0.374l-0.349-0.022
												c-1.209-0.076-1.446-0.096-1.445-0.146c0-0.003,0.001-0.009,0.007-0.014c0.051-0.05,0.84-0.078,1.796-0.066
												c0.762,0.009,2.336,0.06,4.31,0.285c1.977,0.228,3.519,0.535,4.261,0.698c0.935,0.204,1.698,0.411,1.736,0.471
												c0.004,0.006,0.004,0.012,0.003,0.015l0,0C121.13,74.155,121.112,74.162,121.066,74.162z M109.064,72.754
												c0.104,0.032,0.657,0.067,1.403,0.115l0.349,0.022c1.51,0.096,2.95,0.221,4.282,0.374
												c1.337,0.154,2.769,0.358,4.255,0.605l0.348,0.058c0.705,0.118,1.236,0.206,1.374,0.206c0.006,0,0.011,0,0.015,0
												c-0.104-0.057-0.706-0.23-1.702-0.448c-0.743-0.163-2.283-0.47-4.259-0.698c-1.973-0.225-3.546-0.275-4.307-0.285
												C109.804,72.691,109.177,72.722,109.064,72.754z"/>
										</g>
									</g>
								</g>
							</g>
						</g>
					</g>
				</g>
			</g>
		</g>
		<g>
			<g>
				<g>
					<g>
						<g>
							<g>
								<g>
									<g>
										<g>
											<path style="fill:#FF725E;" d="M121.137,59.881c0.02,0.083-3.153,0.927-7.087,1.885
												c-3.935,0.959-7.141,1.668-7.161,1.586c-0.02-0.083,3.153-0.927,7.088-1.885
												C117.91,60.508,121.116,59.799,121.137,59.881z"/>
										</g>
									</g>
								</g>
							</g>
						</g>
					</g>
					<g>
						<g>
							<g>
								<g>
									<g>
										<g>
											<path style="fill:#FF725E;" d="M106.921,63.372c-0.043,0-0.046-0.009-0.047-0.016c-0.007-0.027-0.019-0.076,2.071-0.633
												c1.34-0.356,3.125-0.808,5.028-1.271c1.903-0.464,3.696-0.884,5.048-1.183c2.113-0.467,2.126-0.417,2.131-0.391l0,0
												c0.007,0.027,0.018,0.077-2.072,0.633c-1.338,0.356-3.124,0.807-5.027,1.271c-1.902,0.464-3.695,0.884-5.049,1.183
												C107.461,63.306,107.039,63.372,106.921,63.372z M121.105,59.889c-0.29,0-3.005,0.589-7.125,1.592
												c-4.119,1.003-6.801,1.73-7.059,1.862c0.29,0,3.006-0.589,7.125-1.592C118.165,60.749,120.847,60.022,121.105,59.889z"/>
										</g>
									</g>
								</g>
							</g>
						</g>
					</g>
				</g>
			</g>
		</g>
		<g>
			<g>
				<g>
					<g>
						<g>
							<g>
								<g>
									<g>
										<g>
											<path style="fill:#FF725E;" d="M104.572,43.27c0.071,0.047-1.447,2.469-3.391,5.409c-1.944,2.941-3.577,5.287-3.648,5.24
												c-0.071-0.047,1.447-2.469,3.391-5.41C102.868,45.569,104.501,43.223,104.572,43.27z"/>
										</g>
									</g>
								</g>
							</g>
						</g>
					</g>
					<g>
						<g>
							<g>
								<g>
									<g>
										<g>
											<path style="fill:#FF725E;" d="M97.534,53.935c-0.004,0-0.007-0.002-0.009-0.003c-0.003-0.002-0.007-0.006-0.009-0.013
												c-0.029-0.139,1.728-2.895,3.396-5.418c0.94-1.423,1.838-2.751,2.526-3.74c1.061-1.523,1.118-1.52,1.143-1.504l0,0
												c0.023,0.015,0.065,0.043-0.936,1.641c-0.641,1.022-1.511,2.368-2.451,3.79c-0.939,1.421-1.837,2.749-2.527,3.741
												C97.705,53.811,97.569,53.935,97.534,53.935z M104.557,43.294c-0.189,0.161-1.583,2.142-3.62,5.223
												c-2.037,3.082-3.313,5.141-3.387,5.377c0.189-0.161,1.583-2.142,3.62-5.223C103.206,45.59,104.481,43.531,104.557,43.294
												z"/>
										</g>
									</g>
								</g>
							</g>
						</g>
					</g>
				</g>
			</g>
		</g>
		<g>
			<g>
				<g>
					<g>
						<g>
							<g>
								<g>
									<g>
										<g>
											<path style="fill:#FF725E;" d="M88.134,39.8c0.044,0.002,0.039,0.771,0.021,2.012c-0.018,1.241-0.042,2.955-0.041,4.848
												c0.003,1.894,0.031,3.608,0.052,4.849c0.02,1.241,0.027,2.01-0.017,2.012c-0.041,0.002-0.125-0.763-0.201-2.004
												c-0.077-1.241-0.139-2.959-0.142-4.857c-0.002-1.898,0.057-3.615,0.131-4.856C88.01,40.563,88.092,39.798,88.134,39.8z"
												/>
										</g>
									</g>
								</g>
							</g>
						</g>
					</g>
					<g>
						<g>
							<g>
								<g>
									<g>
										<g>
											<path style="fill:#FF725E;" d="M88.147,53.537c-0.02,0-0.046-0.023-0.1-0.55c-0.039-0.372-0.078-0.88-0.114-1.469
												c-0.051-0.836-0.138-2.578-0.142-4.858c-0.002-2.274,0.082-4.019,0.131-4.857c0.035-0.589,0.073-1.097,0.111-1.469
												c0.053-0.528,0.08-0.55,0.099-0.55c0.001,0,0.002,0,0.002,0l0,0c0.047,0.002,0.063,0.187,0.036,2.028
												c-0.017,1.17-0.042,2.939-0.04,4.848c0.002,1.854,0.03,3.539,0.049,4.77l0.002,0.079
												c0.031,1.841,0.015,2.025-0.032,2.028C88.149,53.537,88.148,53.537,88.147,53.537z M88.132,39.831
												c-0.04,0.128-0.112,0.826-0.18,1.974c-0.05,0.838-0.133,2.583-0.131,4.855c0.002,2.28,0.09,4.021,0.142,4.856
												c0.07,1.148,0.145,1.845,0.184,1.973c0.033-0.168,0.015-1.25,0.002-1.98l-0.001-0.079c-0.02-1.231-0.048-2.916-0.05-4.77
												c-0.002-1.909,0.024-3.678,0.04-4.848C88.15,41.082,88.166,40,88.132,39.831z"/>
										</g>
									</g>
								</g>
							</g>
						</g>
					</g>
				</g>
			</g>
		</g>
		<g>
			<g>
				<g>
					<g>
						<g>
							<g>
								<g>
									<g>
										<g>
											<path style="fill:#FF725E;" d="M75.685,55.304c-0.073,0.044-1.617-2.35-3.449-5.347
												c-1.832-2.999-3.258-5.465-3.186-5.509c0.073-0.044,1.617,2.349,3.449,5.348C74.331,52.793,75.758,55.26,75.685,55.304z"
												/>
										</g>
									</g>
								</g>
							</g>
						</g>
					</g>
					<g>
						<g>
							<g>
								<g>
									<g>
										<g>
											<path style="fill:#FF725E;" d="M75.684,55.32c-0.034,0-0.162-0.123-1.077-1.541c-0.652-1.01-1.499-2.365-2.384-3.815
												c-1.571-2.571-3.223-5.378-3.189-5.517c0.002-0.007,0.006-0.011,0.009-0.013c0.025-0.014,0.066-0.043,1.085,1.538
												c0.651,1.01,1.498,2.365,2.385,3.815c0.886,1.45,1.705,2.821,2.307,3.862c0.94,1.626,0.897,1.653,0.873,1.668l0,0
												C75.691,55.319,75.688,55.32,75.684,55.32z M69.066,44.473c0.065,0.238,1.263,2.334,3.183,5.476
												c1.919,3.141,3.238,5.164,3.42,5.331c-0.066-0.238-1.263-2.334-3.183-5.476C70.567,46.662,69.248,44.64,69.066,44.473z"
												/>
										</g>
									</g>
								</g>
							</g>
						</g>
					</g>
				</g>
			</g>
		</g>
		<g>
			<g>
				<g>
					<g>
						<g>
							<g>
								<g>
									<g>
										<g>
											<path style="fill:#FF725E;" d="M68.248,61.624c-0.009,0.04-0.606-0.047-1.559-0.247c-0.953-0.2-2.261-0.52-3.687-0.94
												c-1.426-0.421-2.698-0.862-3.607-1.211c-0.909-0.349-1.458-0.6-1.444-0.638c0.016-0.041,0.591,0.137,1.516,0.432
												c0.925,0.296,2.202,0.702,3.622,1.121c1.42,0.418,2.713,0.77,3.651,1.024C67.678,61.419,68.258,61.581,68.248,61.624z"/>
										</g>
									</g>
								</g>
							</g>
						</g>
					</g>
					<g>
						<g>
							<g>
								<g>
									<g>
										<g>
											<path style="fill:#FF725E;" d="M68.198,61.649c-0.057,0-0.167-0.01-0.377-0.043c-0.29-0.045-0.683-0.119-1.135-0.214
												c-0.644-0.135-1.98-0.437-3.688-0.94c-1.705-0.503-2.992-0.975-3.608-1.211c-0.431-0.166-0.8-0.316-1.069-0.436
												c-0.4-0.179-0.39-0.203-0.383-0.222c0.017-0.045,0.22,0.004,1.534,0.423c0.742,0.237,2.123,0.679,3.622,1.121
												c1.366,0.403,2.6,0.739,3.65,1.024c1.331,0.361,1.529,0.429,1.519,0.477l0,0C68.261,61.637,68.258,61.649,68.198,61.649z
												 M57.977,58.597c0.076,0.059,0.535,0.274,1.424,0.615c0.616,0.237,1.903,0.708,3.606,1.211
												c1.706,0.503,3.041,0.804,3.685,0.939c0.92,0.194,1.382,0.257,1.509,0.257c0.009,0,0.016,0,0.021-0.001
												c-0.107-0.064-0.868-0.271-1.486-0.439c-1.05-0.284-2.285-0.621-3.651-1.024c-1.5-0.443-2.881-0.884-3.623-1.122
												C58.885,58.85,58.104,58.601,57.977,58.597z"/>
										</g>
									</g>
								</g>
							</g>
						</g>
					</g>
				</g>
			</g>
		</g>
		<g>
			<g>
				<g>
					<g>
						<g>
							<g>
								<g>
									<g>
										<g>
											<path style="fill:#FF725E;" d="M64.999,72.886c0.008,0.085-2.086,0.356-4.678,0.605
												c-2.592,0.249-4.699,0.382-4.708,0.297c-0.008-0.085,2.086-0.355,4.678-0.605C62.883,72.935,64.991,72.801,64.999,72.886
												z"/>
										</g>
									</g>
								</g>
							</g>
						</g>
					</g>
					<g>
						<g>
							<g>
								<g>
									<g>
										<g>
											<path style="fill:#FF725E;" d="M55.882,73.829c-0.158,0-0.254-0.007-0.274-0.024c-0.007-0.005-0.008-0.011-0.009-0.015
												c0-0.004,0-0.01,0.005-0.017c0.089-0.109,2.481-0.393,4.686-0.605c2.204-0.212,4.608-0.39,4.715-0.299
												c0.006,0.005,0.008,0.011,0.008,0.015l0,0c0,0.004,0,0.01-0.005,0.017c-0.09,0.109-2.481,0.393-4.686,0.605
												C58.521,73.68,56.587,73.829,55.882,73.829z M55.637,73.787c0.167,0.05,1.961-0.049,4.683-0.311
												c2.723-0.262,4.502-0.505,4.656-0.588c-0.166-0.05-1.96,0.049-4.683,0.311C57.57,73.461,55.791,73.704,55.637,73.787z"/>
										</g>
									</g>
								</g>
							</g>
						</g>
					</g>
				</g>
			</g>
		</g>
	</g>
</g>
<g id="Character">
	<g>
		<g>
			<g>
				<g>
					<g>
						<g>
							<g>
								<g>
									<polygon style="fill:#FFBF9D;" points="321.798,444.95 329.215,464.077 345.522,460.25 349.106,451.504 343.587,433.364 
																			"/>
								</g>
							</g>
						</g>
					</g>
				</g>
				<g>
					<g>
						<g>
							<g>
								<g>
									<g>
										<g>
											<g>
												<g>
													<g>
														<g>
															<path style="fill:#455A64;" d="M349.938,449.246l0.579,1.452c0,0,28.984,0.038,31.095,4.611l-49.897,19.333
																l-5.661-16.585C334.786,458.559,342.698,455.932,349.938,449.246z"/>
														</g>
													</g>
												</g>
											</g>
										</g>
									</g>
								</g>
							</g>
						</g>
						<g style="opacity:0.6;">
							<g>
								<g>
									<g>
										<g>
											<g>
												<g>
													<g>
														<g>
															<g>
																<path style="fill:#FFFFFF;" d="M333.135,461.317c-0.865,0.634-1.117,1.959-0.521,2.832
																	c0.597,0.873,1.958,1.123,2.834,0.504c0.876-0.618,1.229-2.202,0.536-3.001c-0.692-0.8-2.308-1.008-3.01-0.202"/>
															</g>
														</g>
													</g>
												</g>
											</g>
										</g>
									</g>
								</g>
							</g>
						</g>
						<g style="opacity:0.6;">
							<g>
								<g>
									<g>
										<g>
											<g>
												<g>
													<g>
														<g>
															<path style="fill:#FFFFFF;" d="M331.716,474.642l-1.361-3.989l48.321-17.069c0,0,2.59,0.09,2.937,1.725
																L331.716,474.642z"/>
														</g>
													</g>
												</g>
											</g>
										</g>
									</g>
								</g>
							</g>
						</g>
						<g>
							<g>
								<g>
									<g>
										<g>
											<g>
												<g>
													<g>
														<g>
															<g>
																<path style="fill:#263238;" d="M350.746,450.767c0.085,0.243-1.091,0.823-1.991,2.058
																	c-0.932,1.212-1.147,2.488-1.408,2.481c-0.243,0.04-0.436-1.532,0.68-3.008
																	C349.129,450.812,350.713,450.527,350.746,450.767z"/>
															</g>
														</g>
													</g>
												</g>
											</g>
										</g>
									</g>
								</g>
							</g>
						</g>
						<g>
							<g>
								<g>
									<g>
										<g>
											<g>
												<g>
													<g>
														<g>
															<g>
																<path style="fill:#263238;" d="M356.806,450.867c0.146,0.211-0.751,1.027-1.186,2.361
																	c-0.473,1.321-0.257,2.498-0.503,2.581c-0.215,0.126-0.928-1.211-0.356-2.86
																	C355.317,451.297,356.712,450.641,356.806,450.867z"/>
															</g>
														</g>
													</g>
												</g>
											</g>
										</g>
									</g>
								</g>
							</g>
						</g>
						<g>
							<g>
								<g>
									<g>
										<g>
											<g>
												<g>
													<g>
														<g>
															<g>
																<path style="fill:#263238;" d="M362.169,455.873c-0.202,0.137-1.005-0.928-0.889-2.482
																	c0.105-1.555,1.053-2.518,1.233-2.358c0.214,0.144-0.253,1.134-0.328,2.411
																	C362.08,454.719,362.403,455.756,362.169,455.873z"/>
															</g>
														</g>
													</g>
												</g>
											</g>
										</g>
									</g>
								</g>
							</g>
						</g>
					</g>
				</g>
			</g>
			<path style="fill:#263238;" d="M259.734,325.226c0.422,1.143,27.185,30.998,33.145,39.704c6.738,9.843,8.161,18.161,8.487,20.108
				c1.866,11.147,3.252,18.959,8.316,31.151c5.064,12.192,15.043,37.813,15.043,37.813l23.633-6.096
				c0,0-13.927-59.435-15.193-69.341c-1.266-9.906-3.376-17.526-8.862-26.67S294.59,293.13,294.59,293.13l-38.283,16.094
				L259.734,325.226z"/>
		</g>
		<g>
			<g>
				<path style="fill:#FFBF9D;" d="M242.569,240.759c0,0,7.741,0.113,8.878,0.82c1.137,0.708,5.695,4.215,5.693,5.042
					c-0.002,0.827,0.322,1.383,0.322,1.383s2.863,3.951,1.571,5.709c-1.292,1.758-2.242,2.271-2.216,2.8
					c0.026,0.529-0.372,2.371-1.471,2.869c-1.099,0.499-2.456,1.349-2.878,1.836c-0.421,0.487-0.883,1.423-1.732,2.057
					c-0.849,0.634-2.477,1.158-2.477,1.158s-0.912,1.719-2.552,1.566c-1.639-0.153-4.629-3.268-5.599-4.432
					c-1.206-1.446-4.284-3.97-4.687-5.286c-0.403-1.316-0.918-2.304-0.918-2.304l-7.492-7.125l11.691-11.747L242.569,240.759z"/>
				<g>
					<path style="fill:#FF9A6C;" d="M257.698,248.601c-0.119,0.091-1.117-1.037-2.453-2.313c-1.33-1.282-2.499-2.232-2.413-2.355
						c0.077-0.115,1.409,0.665,2.774,1.979C256.974,247.221,257.809,248.52,257.698,248.601z"/>
				</g>
			</g>
			<path style="fill:#FF725E;" d="M238.461,161.837c0,0-8.903,7.54-11.003,9.43c-2.1,1.89-29.473,24.874-31.286,35.276
				c-1.16,6.655,4.04,11.866,6.77,16.238c2.038,3.264,14.318,25.663,25.826,26.309c0.684,0.038,4.15,4.278,4.15,4.278l12.494-10.647
				c0,0-2.994-3.701-4.728-6.986c-4.954-9.384-15.898-24.031-15.558-24.668c2.432-4.551-3.34-3.464-3.34-3.464l23.941-21.954
				L238.461,161.837z"/>
			<path style="fill:#263238;" d="M198.894,199.645c0,0-1.733-3.096,0-5.675c1.733-2.58,26.104-22.288,26.104-22.288
				s1.191,0.31,2.058,2.27c0.867,1.961-26.971,26.622-26.971,26.622L198.894,199.645z"/>
			<path style="fill:#263238;" d="M207.413,192.318c0,0,13.973,15.788,16.031,15.272c2.058-0.516,11.698-7.842,12.131-10.215
				c0.433-2.373-13.323-18.987-13.323-18.987L207.413,192.318z"/>
		</g>
		<g>
			<g>
				<g>
					<path style="fill:#263238;" d="M187.574,91.829c3.071,0.727,5.464,3.212,8.274,4.739c5.274,2.866,11.66,2.1,16.684-0.226
						c5.025-2.325,9.101-6.015,13.603-9.103c4.502-3.089,8.092-6.222,14.607-6.806c11.487-1.029,23.012,9.105,17.782,17.699
						l-9.651,3.366c-4.432,13.384-13.614,24.889-25.794,32.32c-2.416,1.474-5.161,2.833-8.167,2.456
						c-3.006-0.377-6.075-3.25-5.436-5.987c-4.779,0.977-9.694,1.922-14.697,1.174c-5.003-0.748-10.189-3.544-12.414-8.034
						c-2.225-4.491-0.252-10.477,4.561-11.344c-4.447-2.729-8.258-7.18-8.537-12.019C178.111,95.223,182.567,90.644,187.574,91.829z
						"/>
				</g>
				<g>
					<g>
						<g>
							<path style="fill:#263238;" d="M283.46,72.492c-6.224-1.692-12.024,0.204-17.708,3.251
								c-5.684,3.048-10.227,8.04-13.131,13.799c-3.058,6.066-4.343,13.102-3.097,19.779c1.246,6.678,5.128,12.925,10.858,16.574
								c7.825,4.982,18.495,4.549,26.402-0.302c7.907-4.852,13.013-13.649,14.265-22.84c0.862-6.333-0.024-12.984-3.062-18.606
								C294.948,78.524,289.663,74.029,283.46,72.492"/>
						</g>
					</g>
					<g>
						<g>
							<path style="fill:#263238;" d="M263.367,92.26c1.161-2.331,1.065-5.069,1.681-7.599c1.356-5.572,3.945-10.498,9.425-12.189
								c5.098-1.572,13.442,0.296,19.157,2.778c3.918,1.701,7.502,4.352,9.879,7.9c3.154,4.71,3.815,10.993,1.711,16.255
								l-28.499-7.025c-2.924,1.976-5.917,3.983-9.322,4.912c-0.999,0.273-2.062,0.448-3.064,0.187
								c-1.002-0.26-1.924-1.049-2.068-2.074C262.11,94.286,262.863,93.273,263.367,92.26z"/>
						</g>
					</g>
					<g>
						<g>
							<path style="fill:#FFBF9D;" d="M257.849,145.018l5.014-54.651c0.285-2.442,2.391-4.26,4.849-4.186l25.76-2.89
								c8.09,0.247,12.049,10.79,11.46,18.862c-0.655,8.968-1.809,19.891-3.769,26.381c-3.942,13.05-14.398,13.35-14.398,13.35
								c0.003-0.046-0.06,0.51-0.779,5.35c0,0-1.302,10.02-12.452,7.808C266.276,153.602,257.849,145.018,257.849,145.018z"/>
						</g>
					</g>
					<g>
						<g>
							<path style="fill:#263238;" d="M300.163,112.559c-0.091,0.908-0.936,1.579-1.885,1.501c-0.948-0.078-1.644-0.876-1.553-1.784
								c0.092-0.907,0.936-1.579,1.884-1.501C299.559,110.852,300.255,111.651,300.163,112.559z"/>
						</g>
					</g>
					<g>
						<g>
							<path style="fill:#263238;" d="M301.799,107.49c-0.242,0.194-1.408-0.942-3.249-1.189c-1.836-0.273-3.317,0.49-3.486,0.237
								c-0.085-0.113,0.187-0.486,0.833-0.834c0.637-0.347,1.682-0.627,2.828-0.466c1.146,0.163,2.053,0.717,2.548,1.225
								C301.78,106.974,301.917,107.404,301.799,107.49z"/>
						</g>
					</g>
					<g>
						<g>
							<path style="fill:#263238;" d="M284.13,110.139c-0.091,0.908-0.936,1.579-1.885,1.5c-0.948-0.078-1.644-0.875-1.553-1.783
								c0.091-0.907,0.936-1.58,1.884-1.502C283.526,108.432,284.222,109.232,284.13,110.139z"/>
						</g>
					</g>
					<g>
						<g>
							<path style="fill:#263238;" d="M284.19,104.443c-0.243,0.194-1.41-0.942-3.25-1.189c-1.836-0.273-3.317,0.49-3.486,0.237
								c-0.084-0.113,0.185-0.486,0.834-0.834c0.637-0.348,1.682-0.628,2.828-0.466c1.146,0.163,2.052,0.717,2.548,1.225
								C284.17,103.927,284.307,104.357,284.19,104.443z"/>
						</g>
					</g>
					<g>
						<g>
							<path style="fill:#263238;" d="M288.471,119.926c0.006-0.106,1.177-0.147,3.064-0.131c0.476,0.016,0.934-0.017,1.057-0.327
								c0.157-0.325,0.03-0.858-0.123-1.436c-0.286-1.198-0.586-2.454-0.901-3.77c-1.234-5.36-2.058-9.743-1.842-9.79
								c0.216-0.048,1.392,4.258,2.626,9.618c0.293,1.321,0.573,2.579,0.839,3.783c0.105,0.558,0.328,1.206-0.008,1.879
								c-0.175,0.334-0.555,0.542-0.867,0.581c-0.314,0.051-0.579,0.02-0.813,0.002
								C289.623,120.181,288.464,120.031,288.471,119.926z"/>
						</g>
					</g>
					<g>
						<g>
							<path style="fill:#FF9A6C;" d="M286.765,141.885c0,0-9.053-0.648-17.214-7.207c0,0,3.23,9.848,16.752,10.425L286.765,141.885
								z"/>
						</g>
					</g>
					<g>
						<g>
							<path style="fill:#FF9A6C;" d="M287.086,124.256c-0.542-0.966-1.637-1.605-2.805-1.639c-0.811-0.023-1.671,0.252-2.245,0.836
								c-0.574,0.584-0.802,1.494-0.446,2.174c0.402,0.767,1.417,1.07,2.33,0.94c0.913-0.13,1.748-0.605,2.545-1.083
								c0.22-0.133,0.446-0.271,0.6-0.473c0.154-0.201,0.219-0.484,0.091-0.685"/>
						</g>
					</g>
					<g>
						<g>
							<path style="fill:#263238;" d="M282.879,120.459c0.302,0.023,0.032,2.022,1.549,3.675c1.512,1.656,3.674,1.723,3.651,2.005
								c0.011,0.129-0.527,0.324-1.43,0.225c-0.886-0.09-2.135-0.549-3.063-1.56c-0.925-1.012-1.215-2.234-1.171-3.063
								C282.453,120.893,282.744,120.428,282.879,120.459z"/>
						</g>
					</g>
					<g>
						<g>
							<path style="fill:#263238;" d="M285.768,97.107c-0.25,0.476-2.056-0.013-4.251-0.048c-2.195-0.079-4.023,0.315-4.249-0.173
								c-0.098-0.232,0.269-0.661,1.04-1.05c0.764-0.389,1.941-0.696,3.257-0.663c1.316,0.035,2.475,0.403,3.218,0.831
								C285.533,96.432,285.879,96.88,285.768,97.107z"/>
						</g>
					</g>
					<g>
						<g>
							<path style="fill:#263238;" d="M302.365,99.366c-0.381,0.373-1.59-0.234-3.112-0.463c-1.514-0.282-2.855-0.104-3.092-0.582
								c-0.101-0.23,0.159-0.621,0.777-0.94c0.61-0.318,1.584-0.514,2.628-0.339c1.043,0.177,1.899,0.679,2.371,1.18
								C302.418,98.726,302.536,99.181,302.365,99.366z"/>
						</g>
					</g>
					<g>
						<g>
							<path style="fill:#263238;" d="M259.12,87.912c3.365-7.431,15.809-16.791,23.824-15.277l11.997,9.257
								c-1.298,4.306-5.143,7.736-9.569,8.535c-2.364,0.427-5.134,0.295-6.721,2.098c-1.621,1.841-1.154,4.854-2.686,6.769
								c-2.124,2.654-6.993,1.944-8.698,4.885c-0.745,1.285-0.629,2.938-1.397,4.209c-1.023,1.694-5.819,3.43-7.622,2.616
								c-1.804-0.814-1.434-4.004-1.85-5.748c-0.711-2.979-0.106-4.409,0.426-5.964C258.082,95.61,257.515,91.457,259.12,87.912z"/>
						</g>
					</g>
					<g>
						<g>
							<path style="fill:#FFBF9D;" d="M263.588,113.233c0.133-0.994-0.694-3.493-1.655-3.78c-2.564-0.767-7.315-1.201-8.269,5.446
								c-1.303,9.087,8.089,8.521,8.143,8.263C261.849,122.96,263.128,116.664,263.588,113.233z"/>
						</g>
					</g>
					<g>
						<g>
							<path style="fill:#FF9A6C;" d="M259.525,119.321c-0.036-0.035-0.174,0.088-0.459,0.173c-0.278,0.082-0.739,0.1-1.187-0.146
								c-0.91-0.49-1.499-2.13-1.309-3.774c0.096-0.83,0.382-1.593,0.768-2.203c0.373-0.625,0.869-1.028,1.365-1.044
								c0.496-0.043,0.797,0.296,0.872,0.567c0.085,0.272,0.001,0.445,0.048,0.467c0.022,0.027,0.216-0.124,0.197-0.509
								c-0.012-0.186-0.087-0.416-0.276-0.621c-0.193-0.208-0.5-0.345-0.842-0.357c-0.708-0.052-1.431,0.502-1.855,1.172
								c-0.464,0.667-0.805,1.522-0.912,2.454c-0.204,1.84,0.487,3.687,1.747,4.256c0.615,0.258,1.176,0.142,1.482-0.033
								C259.477,119.538,259.554,119.342,259.525,119.321z"/>
						</g>
					</g>
					<g>
						<g>
							<path style="fill:#263238;" d="M292.558,78.873c0.478,3.798,5.662,9.113,7.86,12.248c4.193,5.981,4.947,7.905,3.7,20.241
								c2.648-4.045,4.765-8.055,5.062-12.88c0.297-4.826-1.006-9.816-4.012-13.602C302.162,81.094,297.387,78.647,292.558,78.873"
								/>
						</g>
					</g>
					<g>
						<g>
							<path style="fill:#455A64;" d="M254.478,87.339c-0.011,0.036,0.527,0.225,1.514,0.536c0.492,0.163,1.098,0.344,1.816,0.502
								c0.716,0.165,1.525,0.389,2.441,0.527c1.818,0.354,4.017,0.598,6.466,0.698c2.449,0.061,5.15-0.045,7.955-0.43
								c2.802-0.414,5.425-1.067,7.76-1.81c2.324-0.781,4.366-1.629,6.013-2.477c0.841-0.388,1.556-0.829,2.197-1.188
								c0.645-0.353,1.177-0.697,1.603-0.99c0.86-0.575,1.324-0.906,1.304-0.938c-0.021-0.031-0.525,0.24-1.415,0.757
								c-0.441,0.264-0.986,0.579-1.64,0.904c-0.651,0.33-1.372,0.745-2.217,1.107c-1.655,0.796-3.692,1.599-5.999,2.345
								c-2.319,0.709-4.914,1.34-7.684,1.748c-2.773,0.381-5.441,0.501-7.865,0.468c-2.423-0.072-4.603-0.273-6.415-0.575
								c-0.913-0.112-1.721-0.308-2.438-0.443c-0.72-0.129-1.33-0.279-1.828-0.41C255.049,87.423,254.489,87.303,254.478,87.339z"/>
						</g>
					</g>
					<g>
						<g>
							<path style="fill:#455A64;" d="M252.889,93.792c-0.01,0.036,0.357,0.163,1.033,0.362c0.673,0.207,1.667,0.438,2.907,0.661
								c2.477,0.451,5.982,0.736,9.823,0.37c3.841-0.377,7.227-1.328,9.572-2.245c1.174-0.456,2.105-0.873,2.726-1.206
								c0.625-0.325,0.961-0.519,0.944-0.553c-0.042-0.087-1.443,0.584-3.802,1.396c-2.356,0.815-5.706,1.693-9.493,2.064
								c-3.787,0.36-7.242,0.141-9.71-0.208C254.417,94.089,252.913,93.699,252.889,93.792z"/>
						</g>
					</g>
				</g>
			</g>
		</g>
		<g>
			<g>
				<g>
					<g>
						<g>
							<g>
								<polygon style="fill:#FFBF9D;" points="155.924,343.893 136.24,335.887 127.755,350.902 131.883,359.821 150.138,366.083 
																	"/>
							</g>
						</g>
					</g>
				</g>
			</g>
			<g>
				<g>
					<g>
						<g>
							<g>
								<g>
									<g>
										<g>
											<g>
												<g>
													<g>
														<path style="fill:#455A64;" d="M133.014,362.055l-1.506-0.596c0,0-20.271,21.824-25.213,20.165l20.188-51.361
															l16.53,7.523C136.534,344.01,133.001,351.843,133.014,362.055z"/>
													</g>
												</g>
											</g>
										</g>
									</g>
								</g>
							</g>
						</g>
					</g>
					<g style="opacity:0.6;">
						<g>
							<g>
								<g>
									<g>
										<g>
											<g>
												<g>
													<g>
														<g>
															<path style="fill:#FFFFFF;" d="M135.596,340.804c0.124-1.102-0.705-2.236-1.783-2.406
																c-1.078-0.17-2.219,0.677-2.361,1.778c-0.143,1.1,0.811,2.491,1.902,2.538c1.09,0.047,2.376-1.023,2.255-2.126"/>
														</g>
													</g>
												</g>
											</g>
										</g>
									</g>
								</g>
							</g>
						</g>
					</g>
					<g style="opacity:0.6;">
						<g>
							<g>
								<g>
									<g>
										<g>
											<g>
												<g>
													<g>
														<path style="fill:#FFFFFF;" d="M126.483,330.262l3.976,1.81l-20.805,48.564c0,0-1.877,1.889-3.359,0.988
															L126.483,330.262z"/>
													</g>
												</g>
											</g>
										</g>
									</g>
								</g>
							</g>
						</g>
					</g>
					<g>
						<g>
							<g>
								<g>
									<g>
										<g>
											<g>
												<g>
													<g>
														<g>
															<path style="fill:#263238;" d="M131.296,361.581c-0.243-0.109,0.138-1.408-0.17-2.964
																c-0.268-1.564-1.086-2.634-0.898-2.826c0.139-0.211,1.466,0.761,1.806,2.652
																C132.391,360.331,131.501,361.728,131.296,361.581z"/>
														</g>
													</g>
												</g>
											</g>
										</g>
									</g>
								</g>
							</g>
						</g>
					</g>
					<g>
						<g>
							<g>
								<g>
									<g>
										<g>
											<g>
												<g>
													<g>
														<g>
															<path style="fill:#263238;" d="M126.988,366.079c-0.261-0.04-0.254-1.297-0.962-2.572
																c-0.671-1.296-1.715-1.969-1.606-2.214c0.054-0.252,1.566,0.161,2.417,1.765
																C127.702,364.651,127.225,366.169,126.988,366.079z"/>
														</g>
													</g>
												</g>
											</g>
										</g>
									</g>
								</g>
							</g>
						</g>
					</g>
					<g>
						<g>
							<g>
								<g>
									<g>
										<g>
											<g>
												<g>
													<g>
														<g>
															<path style="fill:#263238;" d="M119.446,366.564c0.036-0.249,1.406-0.098,2.503,1.095
																c1.106,1.185,1.174,2.583,0.927,2.606c-0.258,0.059-0.684-0.997-1.599-1.962
																C120.384,367.317,119.372,366.823,119.446,366.564z"/>
														</g>
													</g>
												</g>
											</g>
										</g>
									</g>
								</g>
							</g>
						</g>
					</g>
				</g>
			</g>
		</g>
		<path style="fill:#263238;" d="M145.784,339.093c0,0,15.355,4.191,25.895,6.15c10.54,1.959,22.645,4.782,31.052,6.962
			c8.804,2.283,12.717,3.587,12.717,3.587s1.948,2.613,3.498-7.743c1.55-10.355,6.103-47.732,6.103-47.732l5.057-16.079
			l30.381-5.318l16.121,21.27c0,0-14.57,47.299-19.531,57.094s-11.974,38.316-29.141,33.865
			c-10.137-2.629-89.326-27.496-89.326-27.496L145.784,339.093z"/>
		<g>
			<path style="opacity:0.3;" d="M223.393,313.778l-0.132,1.062l-0.327,2.63l23.267-11.209c0,0,0.153,10.692,22.041,18.965
				l2.781-4.836v-14.129l-16.893-13.131h-11.719l-18.613,14"/>
			<g>
				<path style="fill:#455A64;" d="M270.406,320.547c0.136,0.047-1.01,3.696-2.558,8.148c-1.549,4.454-2.914,8.025-3.05,7.977
					c-0.136-0.047,1.009-3.695,2.558-8.148C268.904,324.072,270.27,320.5,270.406,320.547z"/>
			</g>
			<g>
				<path style="fill:#455A64;" d="M223.876,365.857c-0.153,0.068-1.167-2.711-3.487-5.433c-2.29-2.749-4.856-4.219-4.763-4.359
					c0.031-0.055,0.711,0.239,1.704,0.902c0.993,0.66,2.276,1.724,3.457,3.121c1.176,1.4,2.007,2.846,2.489,3.936
					C223.761,365.116,223.935,365.836,223.876,365.857z"/>
			</g>
		</g>
		<g>
			<path style="fill:#455A64;" d="M226.55,272.738c0,0-5.064,13.207-4.876,20.657c0.188,7.45-2.729,22.372-2.729,22.372
				s27.33-14.668,29.362-16.446c0,0-2.011,14.717,21.22,21.582l2.037,0.769l7.127-21.504c0,0,4.314-6.603,6.189-12.022
				c1.875-5.418,4.501-15.408,4.501-15.408l-51.909-14.713L226.55,272.738z"/>
			<path style="fill:#455A64;" d="M289.381,287.638c0,0,12.754,17.609,12.941,20.488l-32.447,6.434l-3.001-12.361l-1.313-12.868
				L289.381,287.638z"/>
			<path style="fill:#E0E0E0;" d="M239.863,171.227c0.333,0.945,6.992,23.93,6.992,23.93l3.995,33.377
				c0,0-6.735,19.743-12.398,26.211c-17.586,20.084-15.687,25.565-15.687,25.565s29.75-8.008,44.399-5.804
				c14.649,2.204,10.654,27.394,31.961,21.411l-0.114-20.537c0,0,2.679-18.955,3.345-25.567c0.666-6.612-0.235-30.41-0.235-30.41
				s7.324-23.301,7.324-30.858c0-7.557,1.751-7.872-4.285-18.263c-6.036-10.391-15.025-24.245-15.025-24.245l-33.626-2.834
				l-18.644,19.207L239.863,171.227z"/>
			<g>
				<path style="fill:#263238;" d="M281.697,292.509c0.137,0.044-1.745,6.238-4.203,13.832c-2.459,7.597-4.563,13.717-4.699,13.673
					c-0.137-0.044,1.745-6.237,4.204-13.833C279.456,298.586,281.56,292.464,281.697,292.509z"/>
			</g>
		</g>
		<g>
			<path style="fill:#FF725E;" d="M238.713,172.168c-4.431,1.19-8.354,2.563-13.196,0c-4.842-2.563-8.887-7.36-8.963-12.838
				c-0.062-4.482-0.073-12.737,3.523-15.413c3.596-2.676,20.167-5.382,29.435-5.354c35.692,0.108,40.292,5.963,45.961,8.929
				c0,0,0.898,3.591-2.155,5.566"/>
			<path style="fill:#FF725E;" d="M235.667,165.495c0,0,1.042,19.667,2.469,27.09c1.427,7.424,7.384,29.671,7.384,29.671
				s-3.283,1.236-2.789,5.684c0,0-3.552,3.092-3.954,9.885c-0.402,6.793,1.572,9.767,1.572,9.767l-3.839,7.715l64.356,12.168
				l1.082-7.266c0,0,4.663,3.02,5.509-10.974c0.846-13.993-0.818-24.449-0.077-37.299c0.741-12.85,5.534-17.852,4.299-29.467
				c-0.729-6.854-22.324-35.488-22.324-35.488s-31.462-5.354-34.624-1.909C251.567,148.518,235.667,165.495,235.667,165.495z"/>
			<g style="opacity:0.3;">
				<path d="M303.979,226.095c-15.481-8.701-26.72-23.179-37.525-37.273l-1.126-2.814c1.116,5.891,1.422,14.1,2.538,19.991
					c0.906,4.783,1.824,9.602,3.661,14.11c1.837,4.508,4.682,8.737,8.742,11.423c6.966,4.608,16.5,3.851,23.855-0.106
					c1.074-0.578,2.248-1.444,2.222-2.663C306.32,227.515,305.067,226.706,303.979,226.095z"/>
			</g>
			<g>
				<path style="fill:#263238;" d="M234.282,178.249c0.034-0.01,0.244,0.59,0.594,1.686c0.355,1.095,0.824,2.692,1.374,4.674
					c1.107,3.962,2.453,9.484,3.865,15.594c1.413,6.112,2.723,11.633,3.756,15.609c0.507,1.924,0.925,3.511,1.239,4.704
					c0.296,1.11,0.444,1.729,0.409,1.74c-0.034,0.011-0.247-0.589-0.604-1.683c-0.361-1.092-0.839-2.687-1.4-4.666
					c-1.125-3.957-2.495-9.474-3.907-15.587c-1.412-6.111-2.7-11.637-3.714-15.618c-0.496-1.927-0.906-3.517-1.213-4.712
					C234.392,178.88,234.248,178.259,234.282,178.249z"/>
			</g>
			<g>
				<path style="fill:#263238;" d="M265.5,233.751c-0.031,0.069-1.27-0.428-3.269-1.229c-2-0.797-4.765-1.894-7.895-2.858
					c-3.133-0.962-6.046-1.536-8.176-1.792c-2.129-0.263-3.464-0.287-3.463-0.376c0-0.036,0.333-0.062,0.939-0.079
					c0.605-0.024,1.482,0.003,2.563,0.089c2.161,0.164,5.128,0.689,8.29,1.66c3.16,0.973,5.919,2.131,7.887,3.017
					c0.984,0.444,1.772,0.821,2.311,1.095C265.224,233.552,265.515,233.719,265.5,233.751z"/>
			</g>
			<g>
				<path style="fill:#263238;" d="M305.273,259.416c0.009,0.016-0.191,0.137-0.584,0.356c-0.394,0.214-1.003,0.482-1.816,0.745
					c-1.632,0.511-4.138,0.787-7.172,0.462c-6.046-0.742-14.227-2.574-23.222-4.736c-8.991-2.192-17.105-4.254-23.01-5.612
					c-2.911-0.651-5.288-1.182-7.002-1.565c-0.786-0.172-1.419-0.31-1.907-0.417c-0.435-0.101-0.662-0.163-0.658-0.18
					c0.003-0.018,0.237,0.009,0.678,0.077c0.493,0.082,1.132,0.189,1.926,0.321c1.67,0.298,4.078,0.77,7.043,1.405
					c5.931,1.268,14.066,3.275,23.052,5.465c8.983,2.16,17.158,4.048,23.139,4.877c2.996,0.367,5.454,0.152,7.077-0.291
					C304.439,259.868,305.246,259.361,305.273,259.416z"/>
			</g>
			<g style="opacity:0.3;">
				<path d="M227.924,172.826c2.378,4.033,7.494,5.942,12.136,5.336c4.642-0.606,8.784-3.372,11.941-6.829
					c3.157-3.456,5.458-7.591,7.73-11.684c2.057-3.707,4.114-7.414,6.172-11.121c-7.323,3.052-9.817,11.52-15.351,17.206
					C245.145,171.288,234.282,175.171,227.924,172.826"/>
			</g>
			<g>
				<path style="fill:#263238;" d="M266.523,148.585c0.014,0.054-0.738,0.181-1.965,0.745c-1.222,0.561-2.884,1.644-4.515,3.426
					c-1.663,1.755-3.185,4.213-4.848,6.965c-0.841,1.371-1.742,2.812-2.825,4.209c-1.079,1.41-2.427,2.678-3.909,3.823
					c-3.001,2.258-6.282,3.777-9.378,4.72c-3.099,0.946-6.039,1.311-8.493,1.181c-2.456-0.122-4.404-0.762-5.579-1.478
					c-0.596-0.344-1.012-0.685-1.273-0.933c-0.259-0.252-0.387-0.389-0.375-0.402c0.04-0.046,0.558,0.521,1.746,1.158
					c1.177,0.646,3.087,1.214,5.496,1.287c2.406,0.081,5.291-0.314,8.335-1.271c3.041-0.953,6.265-2.464,9.205-4.676
					c1.452-1.122,2.766-2.355,3.822-3.722c1.068-1.366,1.97-2.786,2.82-4.148c1.68-2.731,3.259-5.21,4.988-6.966
					c1.696-1.782,3.432-2.845,4.701-3.358c0.637-0.257,1.151-0.402,1.502-0.479C266.334,148.596,266.52,148.568,266.523,148.585z"/>
			</g>
			<g>
				<path style="fill:#263238;" d="M260.758,225.384c-0.065,0.153-3.33-1.383-7.653-2.231c-4.318-0.88-7.922-0.716-7.923-0.883
					c-0.003-0.064,0.893-0.187,2.353-0.195c1.459-0.009,3.482,0.131,5.673,0.567c2.189,0.44,4.111,1.088,5.453,1.657
					C260.006,224.868,260.786,225.326,260.758,225.384z"/>
			</g>
			<g>
				<path style="fill:#263238;" d="M243.017,227.38c0.075,0.066-0.763,0.963-1.766,2.639c-0.509,0.832-1.015,1.881-1.478,3.082
					c-0.436,1.21-0.814,2.578-1.037,4.046c-0.203,1.472-0.228,2.891-0.152,4.175c0.104,1.282,0.292,2.432,0.544,3.374
					c0.487,1.891,1.037,2.989,0.946,3.031c-0.032,0.016-0.187-0.248-0.441-0.742c-0.132-0.245-0.28-0.552-0.414-0.923
					c-0.139-0.37-0.322-0.784-0.446-1.267c-0.303-0.95-0.535-2.121-0.668-3.435c-0.105-1.316-0.094-2.775,0.115-4.288
					c0.228-1.509,0.631-2.912,1.104-4.144c0.499-1.222,1.053-2.28,1.613-3.105c0.255-0.428,0.549-0.774,0.786-1.089
					c0.234-0.318,0.463-0.57,0.659-0.768C242.767,227.565,242.99,227.356,243.017,227.38z"/>
			</g>
			<g style="opacity:0.3;">
				<path d="M234.592,178.762c-0.785,4.86,0.656,9.827,3.399,13.915l0,0C236.955,187.98,235.627,183.458,234.592,178.762z"/>
			</g>
		</g>
		<g>
			<g>
				<path style="fill:#FFBF9D;" d="M340.477,208.442c0,0,5.272-6.174,6.604-6.618c1.332-0.444,7.215-1.776,7.881-1.221
					c0.666,0.555,1.332,0.666,1.332,0.666s5.106,0.333,5.661,2.553c0.555,2.22,0.333,3.33,0.777,3.663
					c0.444,0.333,1.665,1.887,1.332,3.108c-0.333,1.221-0.555,2.886-0.444,3.552c0.111,0.666,0.557,1.665,0.501,2.775
					c-0.057,1.11-0.723,2.775-0.723,2.775s0.777,1.887-0.444,3.108c-1.221,1.221-5.736,1.549-7.326,1.554
					c-1.975,0.006-6.072,0.801-7.404,0.246c-1.332-0.555-2.475-0.801-2.475-0.801l-10.767,1.279l-1.659-17.3L340.477,208.442z"/>
				<g>
					<path style="fill:#FF9A6C;" d="M356.934,201.477c-0.005,0.15-1.586,0.195-3.51,0.419c-1.926,0.216-3.475,0.53-3.515,0.385
						c-0.039-0.132,1.483-0.68,3.455-0.902C355.335,201.15,356.942,201.34,356.934,201.477z"/>
				</g>
			</g>
			<g>
				<path style="fill:#FF725E;" d="M263.956,182.125c3.991,10.833,7.799,25.387,10.601,33.793
					c3.81,11.431,15.637,15.685,21.67,16.139c7.731,0.582,45.402-6.548,45.402-6.548l-1.741-18.958l-4.267,0.105
					c-0.883-0.844-1.785-1.161-2.973-1.441c-7.923-1.87-29.298-0.301-29.298-0.301s-5.751-23.111-7.025-34.465
					c-1.009-8.993-1.034-23.675-15.079-24.528c-9.142,0.428-15.052,3.805-17.29,13.608"/>
				<g>
					<path style="fill:#263238;" d="M263.956,159.529c0,0,0.021-0.137,0.084-0.402c0.069-0.281,0.164-0.671,0.288-1.178
						c0.308-1.02,0.744-2.565,1.764-4.372c0.981-1.806,2.654-3.878,5.277-5.363c2.611-1.512,6.061-2.24,9.87-2.444l0.011,0
						l0.006,0.001c0.505,0.063,1.017,0.127,1.536,0.192c0.52,0.062,1.049,0.113,1.562,0.289c0.519,0.146,1.045,0.293,1.577,0.442
						c0.503,0.233,1.012,0.469,1.528,0.707c2.011,1.059,3.79,2.774,5.044,4.916c1.271,2.138,2.078,4.623,2.63,7.227
						c0.555,2.611,0.85,5.358,1.129,8.183c0.497,5.65,1.635,11.576,2.912,17.777c1.294,6.198,2.775,12.668,4.418,19.349l-0.26-0.188
						c5.123-0.346,10.445-0.59,15.923-0.619c2.739-0.006,5.517,0.034,8.322,0.234c1.402,0.11,2.813,0.236,4.22,0.509
						c0.705,0.129,1.407,0.26,2.103,0.515c0.697,0.242,1.363,0.644,1.9,1.164l-0.186-0.072c1.349-0.033,2.805-0.069,4.267-0.105
						l0.243-0.006l0.022,0.243c0.008,0.084,0.016,0.176,0.025,0.267c0.587,6.403,1.164,12.696,1.714,18.691l0.021,0.234l-0.23,0.043
						c-7.65,1.427-15.089,2.727-22.259,3.878c-3.584,0.575-7.102,1.11-10.549,1.572c-3.446,0.466-6.819,0.881-10.135,1.053
						c-3.354,0.289-6.577-0.589-9.508-1.646c-2.923-1.143-5.595-2.672-7.865-4.541c-2.254-1.886-4.084-4.113-5.389-6.498
						c-1.345-2.384-2.001-4.924-2.745-7.258c-2.838-9.43-4.979-17.029-6.642-22.206c-0.813-2.594-1.489-4.585-1.941-5.935
						c-0.227-0.661-0.402-1.169-0.526-1.53c-0.116-0.345-0.163-0.526-0.163-0.526s0.078,0.169,0.209,0.509
						c0.134,0.357,0.324,0.86,0.57,1.515c0.482,1.34,1.187,3.324,2.027,5.91c1.719,5.161,3.913,12.754,6.792,22.162
						c0.757,2.338,1.42,4.853,2.746,7.178c1.291,2.339,3.095,4.519,5.319,6.367c2.238,1.832,4.876,3.331,7.76,4.45
						c2.899,1.035,6.056,1.888,9.335,1.595c3.283-0.178,6.653-0.599,10.091-1.07c3.44-0.468,6.953-1.007,10.534-1.587
						c7.162-1.16,14.598-2.467,22.241-3.897l-0.208,0.277c-0.552-5.995-1.131-12.288-1.72-18.691
						c-0.008-0.092-0.017-0.183-0.025-0.267l0.266,0.236c-1.462,0.036-2.917,0.072-4.267,0.105l-0.112,0.003l-0.075-0.075
						c-0.969-0.975-2.363-1.312-3.741-1.545c-1.372-0.266-2.772-0.393-4.161-0.502c-2.783-0.2-5.552-0.242-8.282-0.237
						c-5.461,0.025-10.781,0.264-15.889,0.603l-0.211,0.014l-0.049-0.202c-1.637-6.692-3.108-13.166-4.391-19.375
						c-1.265-6.207-2.394-12.159-2.876-17.83c-0.27-2.824-0.556-5.556-1.096-8.143c-0.537-2.58-1.325-5.028-2.559-7.122
						c-1.218-2.098-2.935-3.766-4.885-4.807c-0.501-0.235-0.996-0.467-1.484-0.697c-0.52-0.148-1.033-0.295-1.54-0.439
						c-0.5-0.176-1.02-0.228-1.531-0.292c-0.51-0.067-1.013-0.133-1.508-0.198l0.016,0c-3.782,0.181-7.191,0.881-9.769,2.347
						c-2.591,1.439-4.258,3.46-5.252,5.237c-1.033,1.777-1.492,3.307-1.825,4.316c-0.141,0.502-0.249,0.887-0.327,1.165
						C264.004,159.399,263.956,159.529,263.956,159.529z"/>
				</g>
			</g>
			<g>
				<path style="fill:#263238;" d="M298.266,216.012c-0.127-0.112,2.081-2.104,3.464-5.391c1.428-3.268,1.349-6.24,1.519-6.226
					c0.06-0.002,0.164,0.731,0.08,1.921c-0.081,1.187-0.402,2.828-1.12,4.51c-0.723,1.679-1.691,3.042-2.495,3.919
					C298.909,215.627,298.306,216.057,298.266,216.012z"/>
			</g>
			<g>
				<path style="fill:#263238;" d="M337.026,226.001c-0.143,0.012-0.618-4.283-1.061-9.592c-0.443-5.311-0.686-9.624-0.542-9.636
					c0.143-0.012,0.618,4.282,1.061,9.593C336.927,221.675,337.169,225.989,337.026,226.001z"/>
			</g>
		</g>
	</g>
</g>
</svg>
